0
SECTION
2
HEADER
0
ENDSEC
0
SECTION
2
TABLES
0
TABLE
2
LTYPE
0
LTYPE
2
CONTINUOUS
70
0
3
Solid line
72
65
73
0
40
0.000000
0
ENDTAB
0
TABLE
2
LAYER
0
LAYER
2
0
70
0
62
7
6
CONTINUOUS
0
LAYER
2
GLIDE_PLANFORM
70
0
62
192
6
CONTINUOUS
0
ENDTAB
0
TABLE
2
STYLE
0
STYLE
2
STANDARD
3
Arial
70
0
71
0
40
7.500000
41
1.000000
42
7.500000
50
0.000000
0
ENDTAB
0
TABLE
2
DIMSTYLE
0
DIMSTYLE
2
Standard
70
0
3

4

5

6
CLOSEDFILLED
7
CLOSEDFILLED
40
1.000000
41
2.000000
42
1.000000
43
5.000000
44
2.000000
45
0.000000
46
0.000000
47
0.000000
48
0.000000
140
5.000000
141
2.000000
142
0.000000
143
25.400000
144
1.000000
145
0.000000
146
1.000000
147
2.000000
71
0
72
0
73
0
74
1
75
0
76
0
77
0
78
0
170
0
171
4
172
0
173
1
174
0
175
0
176
0
177
-2
178
-2
271
4
272
4
273
1
274
4
275
0
280
0
281
0
282
0
283
1
288
0
0
ENDTAB
0
ENDSEC
0
SECTION
2
BLOCKS
0
BLOCK
8
0
2
_ARCHTICK
70
0
10
0.000000
20
0.000000
3
_ARCHTICK
0
POLYLINE
8
0
6
CONTINUOUS
70
0
66
 1
10
0.0
20
0.0
30
0.000000
0
VERTEX
8
0
10
0.500000
20
0.500000
30
0.000000
0
VERTEX
8
0
10
-0.500000
20
-0.500000
30
0.000000
0
SEQEND
8
0
0
ENDBLK
0
BLOCK
8
0
2
_BOXBLANK
70
0
10
0.000000
20
0.000000
3
_BOXBLANK
0
LINE
8
0
6
CONTINUOUS
10
-0.500000
20
-0.500000
30
0.000000
11
0.500000
21
-0.500000
31
0.000000
0
LINE
8
0
6
CONTINUOUS
10
0.500000
20
-0.500000
30
0.000000
11
0.500000
21
0.500000
31
0.000000
0
LINE
8
0
6
CONTINUOUS
10
0.500000
20
0.500000
30
0.000000
11
-0.500000
21
0.500000
31
0.000000
0
LINE
8
0
6
CONTINUOUS
10
-0.500000
20
0.500000
30
0.000000
11
-0.500000
21
-0.500000
31
0.000000
0
LINE
8
0
6
CONTINUOUS
10
-0.500000
20
0.000000
30
0.000000
11
-1.000000
21
0.000000
31
0.000000
0
ENDBLK
0
BLOCK
8
0
2
_BOXFILLED
70
0
10
0.000000
20
0.000000
3
_BOXFILLED
0
INSERT
8
0
6
CONTINUOUS
2
*R
10
0.000000
20
0.000000
41
1.000000
42
1.000000
50
0.000000
0
LINE
8
0
6
CONTINUOUS
10
-0.500000
20
0.000000
30
0.000000
11
-1.000000
21
0.000000
31
0.000000
0
ENDBLK
0
BLOCK
8
0
2
*R
70
1
10
0.000000
20
0.000000
3
*R
0
POLYLINE
8
0
6
CONTINUOUS
70
0
66
 1
10
0.0
20
0.0
30
0.000000
0
VERTEX
8
0
10
-0.500000
20
0.500000
30
0.000000
0
VERTEX
8
0
10
0.500000
20
0.500000
30
0.000000
0
VERTEX
8
0
10
0.500000
20
-0.500000
30
0.000000
0
VERTEX
8
0
10
-0.500000
20
-0.500000
30
0.000000
0
VERTEX
8
0
10
-0.500000
20
0.500000
30
0.000000
0
SEQEND
8
0
0
ENDBLK
0
BLOCK
8
0
2
_CLOSED
70
0
10
0.000000
20
0.000000
3
_CLOSED
0
LINE
8
0
6
CONTINUOUS
10
-1.000000
20
0.166667
30
0.000000
11
0.000000
21
0.000000
31
0.000000
0
LINE
8
0
6
CONTINUOUS
10
0.000000
20
0.000000
30
0.000000
11
-1.000000
21
-0.166667
31
0.000000
0
LINE
8
0
6
CONTINUOUS
10
-1.000000
20
0.166667
30
0.000000
11
-1.000000
21
-0.166667
31
0.000000
0
LINE
8
0
6
CONTINUOUS
10
0.000000
20
0.000000
30
0.000000
11
-1.000000
21
0.000000
31
0.000000
0
ENDBLK
0
BLOCK
8
0
2
_CLOSEDBLANK
70
0
10
0.000000
20
0.000000
3
_CLOSEDBLANK
0
LINE
8
0
6
CONTINUOUS
10
-1.000000
20
0.166667
30
0.000000
11
0.000000
21
0.000000
31
0.000000
0
LINE
8
0
6
CONTINUOUS
10
0.000000
20
0.000000
30
0.000000
11
-1.000000
21
-0.166667
31
0.000000
0
LINE
8
0
6
CONTINUOUS
10
-1.000000
20
0.166667
30
0.000000
11
-1.000000
21
-0.166667
31
0.000000
0
ENDBLK
0
BLOCK
8
0
2
_CLOSEDFILLED
70
0
10
0.000000
20
0.000000
3
_CLOSEDFILLED
0
INSERT
8
0
6
CONTINUOUS
2
*R1
10
-0.500000
20
0.000000
41
1.000000
42
1.000000
50
0.000000
0
ENDBLK
0
BLOCK
8
0
2
*R1
70
1
10
-0.500000
20
0.000000
3
*R1
0
POLYLINE
8
0
6
CONTINUOUS
70
0
66
 1
10
0.0
20
0.0
30
0.000000
0
VERTEX
8
0
10
-1.000000
20
0.166667
30
0.000000
0
VERTEX
8
0
10
-1.000000
20
-0.166667
30
0.000000
0
VERTEX
8
0
10
0.000000
20
0.000000
30
0.000000
0
VERTEX
8
0
10
-1.000000
20
0.166667
30
0.000000
0
SEQEND
8
0
0
ENDBLK
0
BLOCK
8
0
2
_DATUMBLANK
70
0
10
0.000000
20
0.000000
3
_DATUMBLANK
0
LINE
8
0
6
CONTINUOUS
10
0.000000
20
0.577350
30
0.000000
11
-1.000000
21
0.000000
31
0.000000
0
LINE
8
0
6
CONTINUOUS
10
-1.000000
20
0.000000
30
0.000000
11
0.000000
21
-0.577350
31
0.000000
0
LINE
8
0
6
CONTINUOUS
10
0.000000
20
-0.577350
30
0.000000
11
0.000000
21
0.577350
31
0.000000
0
ENDBLK
0
BLOCK
8
0
2
_DATUMFILLED
70
0
10
0.000000
20
0.000000
3
_DATUMFILLED
0
INSERT
8
0
6
CONTINUOUS
2
*R2
10
-0.500000
20
0.000000
41
1.000000
42
1.000000
50
0.000000
0
ENDBLK
0
BLOCK
8
0
2
*R2
70
1
10
-0.500000
20
0.000000
3
*R2
0
POLYLINE
8
0
6
CONTINUOUS
70
0
66
 1
10
0.0
20
0.0
30
0.000000
0
VERTEX
8
0
10
0.000000
20
0.577350
30
0.000000
0
VERTEX
8
0
10
-1.000000
20
0.000000
30
0.000000
0
VERTEX
8
0
10
0.000000
20
-0.577350
30
0.000000
0
VERTEX
8
0
10
0.000000
20
0.577350
30
0.000000
0
SEQEND
8
0
0
ENDBLK
0
BLOCK
8
0
2
_DOT
70
0
10
0.000000
20
0.000000
3
_DOT
0
POLYLINE
8
0
6
CONTINUOUS
70
0
66
 1
10
0.0
20
0.0
30
0.000000
0
VERTEX
8
0
10
0.250000
20
0.000000
30
0.000000
42
1.000000
0
VERTEX
8
0
10
-0.250000
20
0.000000
30
0.000000
42
1.000000
0
VERTEX
8
0
10
0.250000
20
0.000000
30
0.000000
0
SEQEND
8
0
0
LINE
8
0
6
CONTINUOUS
10
-0.500000
20
0.000000
30
0.000000
11
-1.000000
21
0.000000
31
0.000000
0
ENDBLK
0
BLOCK
8
0
2
_DOTBLANK
70
0
10
0.000000
20
0.000000
3
_DOTBLANK
0
CIRCLE
8
0
6
CONTINUOUS
10
0.000000
20
0.000000
40
0.500000
0
LINE
8
0
6
CONTINUOUS
10
-0.500000
20
0.000000
30
0.000000
11
-1.000000
21
0.000000
31
0.000000
0
ENDBLK
0
BLOCK
8
0
2
_DOTSMALL
70
0
10
0.000000
20
0.000000
3
_DOTSMALL
0
POLYLINE
8
0
6
CONTINUOUS
70
0
66
 1
10
0.0
20
0.0
30
0.000000
0
VERTEX
8
0
10
0.062500
20
0.000000
30
0.000000
42
1.000000
0
VERTEX
8
0
10
-0.062500
20
0.000000
30
0.000000
42
1.000000
0
VERTEX
8
0
10
0.062500
20
0.000000
30
0.000000
0
SEQEND
8
0
0
ENDBLK
0
BLOCK
8
0
2
_INTEGRAL
70
0
10
0.000000
20
0.000000
3
_INTEGRAL
0
POLYLINE
8
0
6
CONTINUOUS
70
0
66
 1
10
0.0
20
0.0
30
0.000000
0
VERTEX
8
0
10
0.350461
20
0.352907
30
0.000000
42
0.296213
0
VERTEX
8
0
10
0.000646
20
0.003092
30
0.000000
0
SEQEND
8
0
0
POLYLINE
8
0
6
CONTINUOUS
70
0
66
 1
10
0.0
20
0.0
30
0.000000
0
VERTEX
8
0
10
-0.350461
20
-0.352907
30
0.000000
42
0.296213
0
VERTEX
8
0
10
-0.000646
20
-0.003092
30
0.000000
0
SEQEND
8
0
0
ENDBLK
0
BLOCK
8
0
2
_OBLIQUE
70
0
10
0.000000
20
0.000000
3
_OBLIQUE
0
LINE
8
0
6
CONTINUOUS
10
-0.500000
20
-0.500000
30
0.000000
11
0.500000
21
0.500000
31
0.000000
0
ENDBLK
0
BLOCK
8
0
2
_OPEN
70
0
10
0.000000
20
0.000000
3
_OPEN
0
LINE
8
0
6
CONTINUOUS
10
-1.000000
20
0.166667
30
0.000000
11
0.000000
21
0.000000
31
0.000000
0
LINE
8
0
6
CONTINUOUS
10
-1.000000
20
-0.166667
30
0.000000
11
0.000000
21
0.000000
31
0.000000
0
LINE
8
0
6
CONTINUOUS
10
0.000000
20
0.000000
30
0.000000
11
-1.000000
21
0.000000
31
0.000000
0
ENDBLK
0
BLOCK
8
0
2
_OPEN30
70
0
10
0.000000
20
0.000000
3
_OPEN30
0
LINE
8
0
6
CONTINUOUS
10
-1.000000
20
0.267949
30
0.000000
11
0.000000
21
0.000000
31
0.000000
0
LINE
8
0
6
CONTINUOUS
10
0.000000
20
0.000000
30
0.000000
11
-1.000000
21
-0.267949
31
0.000000
0
LINE
8
0
6
CONTINUOUS
10
0.000000
20
0.000000
30
0.000000
11
-1.000000
21
0.000000
31
0.000000
0
ENDBLK
0
BLOCK
8
0
2
_OPEN90
70
0
10
0.000000
20
0.000000
3
_OPEN90
0
LINE
8
0
6
CONTINUOUS
10
-0.500000
20
0.500000
30
0.000000
11
0.000000
21
0.000000
31
0.000000
0
LINE
8
0
6
CONTINUOUS
10
0.000000
20
0.000000
30
0.000000
11
-0.500000
21
-0.500000
31
0.000000
0
LINE
8
0
6
CONTINUOUS
10
0.000000
20
0.000000
30
0.000000
11
-1.000000
21
0.000000
31
0.000000
0
ENDBLK
0
BLOCK
8
0
2
_ORIGIN
70
0
10
0.000000
20
0.000000
3
_ORIGIN
0
CIRCLE
8
0
6
CONTINUOUS
10
0.000000
20
0.000000
40
0.500000
0
LINE
8
0
6
CONTINUOUS
10
0.000000
20
0.000000
30
0.000000
11
-1.000000
21
0.000000
31
0.000000
0
ENDBLK
0
BLOCK
8
0
2
_ORIGIN2
70
0
10
0.000000
20
0.000000
3
_ORIGIN2
0
CIRCLE
8
0
6
CONTINUOUS
10
0.000000
20
0.000000
40
0.500000
0
CIRCLE
8
0
6
CONTINUOUS
10
0.000000
20
0.000000
40
0.250000
0
LINE
8
0
6
CONTINUOUS
10
-0.500000
20
0.000000
30
0.000000
11
-1.000000
21
0.000000
31
0.000000
0
ENDBLK
0
BLOCK
8
0
2
_SMALL
70
0
10
0.000000
20
0.000000
3
_SMALL
0
CIRCLE
8
0
6
CONTINUOUS
10
0.000000
20
0.000000
40
0.250000
0
ENDBLK
0
BLOCK
8
0
2
_NONE
70
0
10
0.000000
20
0.000000
3
_NONE
0
ENDBLK
0
ENDSEC
0
SECTION
2
ENTITIES
0
POLYLINE
8
GLIDE_PLANFORM
6
CONTINUOUS
70
0
66
 1
10
0.0
20
0.0
30
0.000000
0
VERTEX
8
GLIDE_PLANFORM
10
0.000000
20
230.000000
30
0.000000
0
VERTEX
8
GLIDE_PLANFORM
10
1.790310
20
230.013787
30
0.000000
0
VERTEX
8
GLIDE_PLANFORM
10
3.668189
20
230.028498
30
0.000000
0
VERTEX
8
GLIDE_PLANFORM
10
5.632957
20
230.044084
30
0.000000
0
VERTEX
8
GLIDE_PLANFORM
10
7.683936
20
230.060492
30
0.000000
0
VERTEX
8
GLIDE_PLANFORM
10
9.820446
20
230.077673
30
0.000000
0
VERTEX
8
GLIDE_PLANFORM
10
12.041808
20
230.095577
30
0.000000
0
VERTEX
8
GLIDE_PLANFORM
10
14.347344
20
230.114152
30
0.000000
0
VERTEX
8
GLIDE_PLANFORM
10
16.736373
20
230.133348
30
0.000000
0
VERTEX
8
GLIDE_PLANFORM
10
19.208218
20
230.153114
30
0.000000
0
VERTEX
8
GLIDE_PLANFORM
10
21.671025
20
230.172678
30
0.000000
0
VERTEX
8
GLIDE_PLANFORM
10
24.209684
20
230.192681
30
0.000000
0
VERTEX
8
GLIDE_PLANFORM
10
26.823587
20
230.213078
30
0.000000
0
VERTEX
8
GLIDE_PLANFORM
10
29.512121
20
230.233821
30
0.000000
0
VERTEX
8
GLIDE_PLANFORM
10
32.274679
20
230.254867
30
0.000000
0
VERTEX
8
GLIDE_PLANFORM
10
35.110649
20
230.276170
30
0.000000
0
VERTEX
8
GLIDE_PLANFORM
10
38.019422
20
230.297684
30
0.000000
0
VERTEX
8
GLIDE_PLANFORM
10
41.000389
20
230.319365
30
0.000000
0
VERTEX
8
GLIDE_PLANFORM
10
44.052938
20
230.341165
30
0.000000
0
VERTEX
8
GLIDE_PLANFORM
10
47.065453
20
230.362271
30
0.000000
0
VERTEX
8
GLIDE_PLANFORM
10
50.143490
20
230.383406
30
0.000000
0
VERTEX
8
GLIDE_PLANFORM
10
53.286502
20
230.404530
30
0.000000
0
VERTEX
8
GLIDE_PLANFORM
10
56.493941
20
230.425600
30
0.000000
0
VERTEX
8
GLIDE_PLANFORM
10
59.765259
20
230.446578
30
0.000000
0
VERTEX
8
GLIDE_PLANFORM
10
63.099909
20
230.467421
30
0.000000
0
VERTEX
8
GLIDE_PLANFORM
10
66.497343
20
230.488090
30
0.000000
0
VERTEX
8
GLIDE_PLANFORM
10
69.957013
20
230.508543
30
0.000000
0
VERTEX
8
GLIDE_PLANFORM
10
73.478370
20
230.528739
30
0.000000
0
VERTEX
8
GLIDE_PLANFORM
10
76.933890
20
230.547944
30
0.000000
0
VERTEX
8
GLIDE_PLANFORM
10
80.445834
20
230.566836
30
0.000000
0
VERTEX
8
GLIDE_PLANFORM
10
84.013711
20
230.585378
30
0.000000
0
VERTEX
8
GLIDE_PLANFORM
10
87.637029
20
230.603533
30
0.000000
0
VERTEX
8
GLIDE_PLANFORM
10
91.315296
20
230.621264
30
0.000000
0
VERTEX
8
GLIDE_PLANFORM
10
95.048019
20
230.638536
30
0.000000
0
VERTEX
8
GLIDE_PLANFORM
10
98.834707
20
230.655311
30
0.000000
0
VERTEX
8
GLIDE_PLANFORM
10
102.674867
20
230.671553
30
0.000000
0
VERTEX
8
GLIDE_PLANFORM
10
106.568007
20
230.687225
30
0.000000
0
VERTEX
8
GLIDE_PLANFORM
10
110.374038
20
230.701771
30
0.000000
0
VERTEX
8
GLIDE_PLANFORM
10
114.228489
20
230.715720
30
0.000000
0
VERTEX
8
GLIDE_PLANFORM
10
118.130919
20
230.729038
30
0.000000
0
VERTEX
8
GLIDE_PLANFORM
10
122.080886
20
230.741693
30
0.000000
0
VERTEX
8
GLIDE_PLANFORM
10
126.077948
20
230.753651
30
0.000000
0
VERTEX
8
GLIDE_PLANFORM
10
130.121662
20
230.764881
30
0.000000
0
VERTEX
8
GLIDE_PLANFORM
10
134.211588
20
230.775348
30
0.000000
0
VERTEX
8
GLIDE_PLANFORM
10
138.347282
20
230.785020
30
0.000000
0
VERTEX
8
GLIDE_PLANFORM
10
142.528304
20
230.793864
30
0.000000
0
VERTEX
8
GLIDE_PLANFORM
10
146.604887
20
230.801581
30
0.000000
0
VERTEX
8
GLIDE_PLANFORM
10
150.722857
20
230.808468
30
0.000000
0
VERTEX
8
GLIDE_PLANFORM
10
154.881818
20
230.814494
30
0.000000
0
VERTEX
8
GLIDE_PLANFORM
10
159.081373
20
230.819630
30
0.000000
0
VERTEX
8
GLIDE_PLANFORM
10
163.321125
20
230.823846
30
0.000000
0
VERTEX
8
GLIDE_PLANFORM
10
167.600676
20
230.827112
30
0.000000
0
VERTEX
8
GLIDE_PLANFORM
10
171.919630
20
230.829401
30
0.000000
0
VERTEX
8
GLIDE_PLANFORM
10
176.277589
20
230.830680
30
0.000000
0
VERTEX
8
GLIDE_PLANFORM
10
180.674158
20
230.830922
30
0.000000
0
VERTEX
8
GLIDE_PLANFORM
10
184.952384
20
230.830144
30
0.000000
0
VERTEX
8
GLIDE_PLANFORM
10
189.265826
20
230.828345
30
0.000000
0
VERTEX
8
GLIDE_PLANFORM
10
193.614127
20
230.825499
30
0.000000
0
VERTEX
8
GLIDE_PLANFORM
10
197.996931
20
230.821580
30
0.000000
0
VERTEX
8
GLIDE_PLANFORM
10
202.413881
20
230.816561
30
0.000000
0
VERTEX
8
GLIDE_PLANFORM
10
206.864620
20
230.810416
30
0.000000
0
VERTEX
8
GLIDE_PLANFORM
10
211.348793
20
230.803117
30
0.000000
0
VERTEX
8
GLIDE_PLANFORM
10
215.866042
20
230.794639
30
0.000000
0
VERTEX
8
GLIDE_PLANFORM
10
220.416010
20
230.784955
30
0.000000
0
VERTEX
8
GLIDE_PLANFORM
10
224.836700
20
230.774442
30
0.000000
0
VERTEX
8
GLIDE_PLANFORM
10
229.287197
20
230.762759
30
0.000000
0
VERTEX
8
GLIDE_PLANFORM
10
238.276332
20
230.735782
30
0.000000
0
VERTEX
8
GLIDE_PLANFORM
10
247.380855
20
230.703832
30
0.000000
0
VERTEX
8
GLIDE_PLANFORM
10
256.598202
20
230.666720
30
0.000000
0
VERTEX
8
GLIDE_PLANFORM
10
265.925813
20
230.624255
30
0.000000
0
VERTEX
8
GLIDE_PLANFORM
10
275.361124
20
230.576245
30
0.000000
0
VERTEX
8
GLIDE_PLANFORM
10
284.901574
20
230.522499
30
0.000000
0
VERTEX
8
GLIDE_PLANFORM
10
294.544601
20
230.462828
30
0.000000
0
VERTEX
8
GLIDE_PLANFORM
10
303.675820
20
230.401334
30
0.000000
0
VERTEX
8
GLIDE_PLANFORM
10
312.892833
20
230.334307
30
0.000000
0
VERTEX
8
GLIDE_PLANFORM
10
322.193527
20
230.261589
30
0.000000
0
VERTEX
8
GLIDE_PLANFORM
10
331.575791
20
230.183023
30
0.000000
0
VERTEX
8
GLIDE_PLANFORM
10
341.037515
20
230.098452
30
0.000000
0
VERTEX
8
GLIDE_PLANFORM
10
350.576587
20
230.007719
30
0.000000
0
VERTEX
8
GLIDE_PLANFORM
10
360.190896
20
229.910667
30
0.000000
0
VERTEX
8
GLIDE_PLANFORM
10
369.878332
20
229.807137
30
0.000000
0
VERTEX
8
GLIDE_PLANFORM
10
379.636783
20
229.696974
30
0.000000
0
VERTEX
8
GLIDE_PLANFORM
10
388.770944
20
229.588468
30
0.000000
0
VERTEX
8
GLIDE_PLANFORM
10
397.962964
20
229.473966
30
0.000000
0
VERTEX
8
GLIDE_PLANFORM
10
407.211147
20
229.353342
30
0.000000
0
VERTEX
8
GLIDE_PLANFORM
10
416.513796
20
229.226469
30
0.000000
0
VERTEX
8
GLIDE_PLANFORM
10
425.869214
20
229.093221
30
0.000000
0
VERTEX
8
GLIDE_PLANFORM
10
435.275706
20
228.953471
30
0.000000
0
VERTEX
8
GLIDE_PLANFORM
10
444.731576
20
228.807094
30
0.000000
0
VERTEX
8
GLIDE_PLANFORM
10
454.235126
20
228.653962
30
0.000000
0
VERTEX
8
GLIDE_PLANFORM
10
463.784660
20
228.493950
30
0.000000
0
VERTEX
8
GLIDE_PLANFORM
10
472.702506
20
228.338907
30
0.000000
0
VERTEX
8
GLIDE_PLANFORM
10
481.657267
20
228.177706
30
0.000000
0
VERTEX
8
GLIDE_PLANFORM
10
490.647581
20
228.010246
30
0.000000
0
VERTEX
8
GLIDE_PLANFORM
10
499.672086
20
227.836425
30
0.000000
0
VERTEX
8
GLIDE_PLANFORM
10
508.729416
20
227.656142
30
0.000000
0
VERTEX
8
GLIDE_PLANFORM
10
517.818211
20
227.469295
30
0.000000
0
VERTEX
8
GLIDE_PLANFORM
10
526.937106
20
227.275784
30
0.000000
0
VERTEX
8
GLIDE_PLANFORM
10
536.084739
20
227.075505
30
0.000000
0
VERTEX
8
GLIDE_PLANFORM
10
554.460765
20
226.654242
30
0.000000
0
VERTEX
8
GLIDE_PLANFORM
10
571.488756
20
226.240852
30
0.000000
0
VERTEX
8
GLIDE_PLANFORM
10
588.591994
20
225.802788
30
0.000000
0
VERTEX
8
GLIDE_PLANFORM
10
605.761934
20
225.339413
30
0.000000
0
VERTEX
8
GLIDE_PLANFORM
10
622.990035
20
224.850092
30
0.000000
0
VERTEX
8
GLIDE_PLANFORM
10
640.267752
20
224.334187
30
0.000000
0
VERTEX
8
GLIDE_PLANFORM
10
657.586542
20
223.791063
30
0.000000
0
VERTEX
8
GLIDE_PLANFORM
10
674.937863
20
223.220083
30
0.000000
0
VERTEX
8
GLIDE_PLANFORM
10
692.313169
20
222.620611
30
0.000000
0
VERTEX
8
GLIDE_PLANFORM
10
709.703919
20
221.992011
30
0.000000
0
VERTEX
8
GLIDE_PLANFORM
10
739.605610
20
220.841706
30
0.000000
0
VERTEX
8
GLIDE_PLANFORM
10
769.484306
20
219.600242
30
0.000000
0
VERTEX
8
GLIDE_PLANFORM
10
799.296629
20
218.264391
30
0.000000
0
VERTEX
8
GLIDE_PLANFORM
10
814.164346
20
217.560060
30
0.000000
0
VERTEX
8
GLIDE_PLANFORM
10
828.999204
20
216.830920
30
0.000000
0
VERTEX
8
GLIDE_PLANFORM
10
843.795779
20
216.076568
30
0.000000
0
VERTEX
8
GLIDE_PLANFORM
10
858.548651
20
215.296600
30
0.000000
0
VERTEX
8
GLIDE_PLANFORM
10
873.252396
20
214.490611
30
0.000000
0
VERTEX
8
GLIDE_PLANFORM
10
887.901593
20
213.658199
30
0.000000
0
VERTEX
8
GLIDE_PLANFORM
10
899.760157
20
212.962129
30
0.000000
0
VERTEX
8
GLIDE_PLANFORM
10
911.576222
20
212.248131
30
0.000000
0
VERTEX
8
GLIDE_PLANFORM
10
923.346881
20
211.515990
30
0.000000
0
VERTEX
8
GLIDE_PLANFORM
10
935.069225
20
210.765489
30
0.000000
0
VERTEX
8
GLIDE_PLANFORM
10
946.740346
20
209.996410
30
0.000000
0
VERTEX
8
GLIDE_PLANFORM
10
958.357335
20
209.208539
30
0.000000
0
VERTEX
8
GLIDE_PLANFORM
10
969.917284
20
208.401657
30
0.000000
0
VERTEX
8
GLIDE_PLANFORM
10
981.417285
20
207.575548
30
0.000000
0
VERTEX
8
GLIDE_PLANFORM
10
992.854429
20
206.729997
30
0.000000
0
VERTEX
8
GLIDE_PLANFORM
10
1002.630791
20
205.987651
30
0.000000
0
VERTEX
8
GLIDE_PLANFORM
10
1012.356737
20
205.230649
30
0.000000
0
VERTEX
8
GLIDE_PLANFORM
10
1022.030423
20
204.458853
30
0.000000
0
VERTEX
8
GLIDE_PLANFORM
10
1031.650002
20
203.672125
30
0.000000
0
VERTEX
8
GLIDE_PLANFORM
10
1041.213629
20
202.870328
30
0.000000
0
VERTEX
8
GLIDE_PLANFORM
10
1050.719457
20
202.053324
30
0.000000
0
VERTEX
8
GLIDE_PLANFORM
10
1060.165641
20
201.220976
30
0.000000
0
VERTEX
8
GLIDE_PLANFORM
10
1069.550335
20
200.373146
30
0.000000
0
VERTEX
8
GLIDE_PLANFORM
10
1078.871694
20
199.509697
30
0.000000
0
VERTEX
8
GLIDE_PLANFORM
10
1086.830228
20
198.755088
30
0.000000
0
VERTEX
8
GLIDE_PLANFORM
10
1094.739453
20
197.988754
30
0.000000
0
VERTEX
8
GLIDE_PLANFORM
10
1102.598196
20
197.210609
30
0.000000
0
VERTEX
8
GLIDE_PLANFORM
10
1110.405287
20
196.420566
30
0.000000
0
VERTEX
8
GLIDE_PLANFORM
10
1118.159553
20
195.618537
30
0.000000
0
VERTEX
8
GLIDE_PLANFORM
10
1125.859823
20
194.804436
30
0.000000
0
VERTEX
8
GLIDE_PLANFORM
10
1133.504926
20
193.978174
30
0.000000
0
VERTEX
8
GLIDE_PLANFORM
10
1141.093691
20
193.139665
30
0.000000
0
VERTEX
8
GLIDE_PLANFORM
10
1148.624945
20
192.288821
30
0.000000
0
VERTEX
8
GLIDE_PLANFORM
10
1155.050276
20
191.547706
30
0.000000
0
VERTEX
8
GLIDE_PLANFORM
10
1161.431526
20
190.797362
30
0.000000
0
VERTEX
8
GLIDE_PLANFORM
10
1167.767951
20
190.037733
30
0.000000
0
VERTEX
8
GLIDE_PLANFORM
10
1174.058807
20
189.268765
30
0.000000
0
VERTEX
8
GLIDE_PLANFORM
10
1180.303351
20
188.490400
30
0.000000
0
VERTEX
8
GLIDE_PLANFORM
10
1186.500840
20
187.702586
30
0.000000
0
VERTEX
8
GLIDE_PLANFORM
10
1192.650530
20
186.905265
30
0.000000
0
VERTEX
8
GLIDE_PLANFORM
10
1198.751677
20
186.098382
30
0.000000
0
VERTEX
8
GLIDE_PLANFORM
10
1204.803537
20
185.281883
30
0.000000
0
VERTEX
8
GLIDE_PLANFORM
10
1209.964412
20
184.572479
30
0.000000
0
VERTEX
8
GLIDE_PLANFORM
10
1215.087866
20
183.855896
30
0.000000
0
VERTEX
8
GLIDE_PLANFORM
10
1220.173429
20
183.132100
30
0.000000
0
VERTEX
8
GLIDE_PLANFORM
10
1225.220628
20
182.401055
30
0.000000
0
VERTEX
8
GLIDE_PLANFORM
10
1230.228991
20
181.662726
30
0.000000
0
VERTEX
8
GLIDE_PLANFORM
10
1235.198046
20
180.917078
30
0.000000
0
VERTEX
8
GLIDE_PLANFORM
10
1240.127322
20
180.164077
30
0.000000
0
VERTEX
8
GLIDE_PLANFORM
10
1245.016347
20
179.403686
30
0.000000
0
VERTEX
8
GLIDE_PLANFORM
10
1249.864648
20
178.635871
30
0.000000
0
VERTEX
8
GLIDE_PLANFORM
10
1253.998262
20
177.970071
30
0.000000
0
VERTEX
8
GLIDE_PLANFORM
10
1258.101153
20
177.298740
30
0.000000
0
VERTEX
8
GLIDE_PLANFORM
10
1262.173021
20
176.621856
30
0.000000
0
VERTEX
8
GLIDE_PLANFORM
10
1266.213566
20
175.939395
30
0.000000
0
VERTEX
8
GLIDE_PLANFORM
10
1270.222491
20
175.251337
30
0.000000
0
VERTEX
8
GLIDE_PLANFORM
10
1274.199494
20
174.557658
30
0.000000
0
VERTEX
8
GLIDE_PLANFORM
10
1278.144276
20
173.858336
30
0.000000
0
VERTEX
8
GLIDE_PLANFORM
10
1282.056539
20
173.153348
30
0.000000
0
VERTEX
8
GLIDE_PLANFORM
10
1285.935981
20
172.442674
30
0.000000
0
VERTEX
8
GLIDE_PLANFORM
10
1292.526226
20
171.207849
30
0.000000
0
VERTEX
8
GLIDE_PLANFORM
10
1299.017112
20
169.956044
30
0.000000
0
VERTEX
8
GLIDE_PLANFORM
10
1305.407120
20
168.687144
30
0.000000
0
VERTEX
8
GLIDE_PLANFORM
10
1311.694729
20
167.401038
30
0.000000
0
VERTEX
8
GLIDE_PLANFORM
10
1317.878419
20
166.097612
30
0.000000
0
VERTEX
8
GLIDE_PLANFORM
10
1323.956668
20
164.776753
30
0.000000
0
VERTEX
8
GLIDE_PLANFORM
10
1329.927956
20
163.438346
30
0.000000
0
VERTEX
8
GLIDE_PLANFORM
10
1335.790762
20
162.082280
30
0.000000
0
VERTEX
8
GLIDE_PLANFORM
10
1341.543567
20
160.708441
30
0.000000
0
VERTEX
8
GLIDE_PLANFORM
10
1345.609598
20
159.709952
30
0.000000
0
VERTEX
8
GLIDE_PLANFORM
10
1349.617452
20
158.702181
30
0.000000
0
VERTEX
8
GLIDE_PLANFORM
10
1353.566563
20
157.685086
30
0.000000
0
VERTEX
8
GLIDE_PLANFORM
10
1357.456368
20
156.658625
30
0.000000
0
VERTEX
8
GLIDE_PLANFORM
10
1361.286301
20
155.622755
30
0.000000
0
VERTEX
8
GLIDE_PLANFORM
10
1365.055799
20
154.577435
30
0.000000
0
VERTEX
8
GLIDE_PLANFORM
10
1368.764296
20
153.522622
30
0.000000
0
VERTEX
8
GLIDE_PLANFORM
10
1372.411227
20
152.458275
30
0.000000
0
VERTEX
8
GLIDE_PLANFORM
10
1375.996029
20
151.384351
30
0.000000
0
VERTEX
8
GLIDE_PLANFORM
10
1378.533913
20
150.606530
30
0.000000
0
VERTEX
8
GLIDE_PLANFORM
10
1381.039200
20
149.823724
30
0.000000
0
VERTEX
8
GLIDE_PLANFORM
10
1383.511679
20
149.035918
30
0.000000
0
VERTEX
8
GLIDE_PLANFORM
10
1385.951141
20
148.243096
30
0.000000
0
VERTEX
8
GLIDE_PLANFORM
10
1388.357376
20
147.445242
30
0.000000
0
VERTEX
8
GLIDE_PLANFORM
10
1390.730175
20
146.642341
30
0.000000
0
VERTEX
8
GLIDE_PLANFORM
10
1393.069328
20
145.834378
30
0.000000
0
VERTEX
8
GLIDE_PLANFORM
10
1395.374626
20
145.021337
30
0.000000
0
VERTEX
8
GLIDE_PLANFORM
10
1397.645858
20
144.203201
30
0.000000
0
VERTEX
8
GLIDE_PLANFORM
10
1400.850653
20
143.018176
30
0.000000
0
VERTEX
8
GLIDE_PLANFORM
10
1403.983999
20
141.822546
30
0.000000
0
VERTEX
8
GLIDE_PLANFORM
10
1407.045274
20
140.616264
30
0.000000
0
VERTEX
8
GLIDE_PLANFORM
10
1410.033855
20
139.399286
30
0.000000
0
VERTEX
8
GLIDE_PLANFORM
10
1412.949118
20
138.171563
30
0.000000
0
VERTEX
8
GLIDE_PLANFORM
10
1415.790443
20
136.933051
30
0.000000
0
VERTEX
8
GLIDE_PLANFORM
10
1418.557204
20
135.683701
30
0.000000
0
VERTEX
8
GLIDE_PLANFORM
10
1421.248781
20
134.423469
30
0.000000
0
VERTEX
8
GLIDE_PLANFORM
10
1423.864550
20
133.152307
30
0.000000
0
VERTEX
8
GLIDE_PLANFORM
10
1426.090672
20
132.031038
30
0.000000
0
VERTEX
8
GLIDE_PLANFORM
10
1428.257860
20
130.901336
30
0.000000
0
VERTEX
8
GLIDE_PLANFORM
10
1430.365696
20
129.763167
30
0.000000
0
VERTEX
8
GLIDE_PLANFORM
10
1432.413763
20
128.616502
30
0.000000
0
VERTEX
8
GLIDE_PLANFORM
10
1434.401644
20
127.461310
30
0.000000
0
VERTEX
8
GLIDE_PLANFORM
10
1436.328922
20
126.297559
30
0.000000
0
VERTEX
8
GLIDE_PLANFORM
10
1438.195180
20
125.125218
30
0.000000
0
VERTEX
8
GLIDE_PLANFORM
10
1440.000000
20
123.944256
30
0.000000
0
SEQEND
8
0
0
POLYLINE
8
GLIDE_PLANFORM
6
CONTINUOUS
70
0
66
 1
10
0.0
20
0.0
30
0.000000
0
VERTEX
8
GLIDE_PLANFORM
10
0.000000
20
0.000000
30
0.000000
0
VERTEX
8
GLIDE_PLANFORM
10
3.140013
20
0.041385
30
0.000000
0
VERTEX
8
GLIDE_PLANFORM
10
6.344827
20
0.083864
30
0.000000
0
VERTEX
8
GLIDE_PLANFORM
10
9.613905
20
0.127444
30
0.000000
0
VERTEX
8
GLIDE_PLANFORM
10
12.946714
20
0.172133
30
0.000000
0
VERTEX
8
GLIDE_PLANFORM
10
16.342717
20
0.217937
30
0.000000
0
VERTEX
8
GLIDE_PLANFORM
10
19.801379
20
0.264864
30
0.000000
0
VERTEX
8
GLIDE_PLANFORM
10
23.322166
20
0.312922
30
0.000000
0
VERTEX
8
GLIDE_PLANFORM
10
26.904543
20
0.362117
30
0.000000
0
VERTEX
8
GLIDE_PLANFORM
10
30.547973
20
0.412457
30
0.000000
0
VERTEX
8
GLIDE_PLANFORM
10
34.120685
20
0.462120
30
0.000000
0
VERTEX
8
GLIDE_PLANFORM
10
37.749255
20
0.512861
30
0.000000
0
VERTEX
8
GLIDE_PLANFORM
10
41.433202
20
0.564689
30
0.000000
0
VERTEX
8
GLIDE_PLANFORM
10
45.172045
20
0.617609
30
0.000000
0
VERTEX
8
GLIDE_PLANFORM
10
48.965304
20
0.671627
30
0.000000
0
VERTEX
8
GLIDE_PLANFORM
10
52.812499
20
0.726751
30
0.000000
0
VERTEX
8
GLIDE_PLANFORM
10
56.713147
20
0.782987
30
0.000000
0
VERTEX
8
GLIDE_PLANFORM
10
60.666770
20
0.840341
30
0.000000
0
VERTEX
8
GLIDE_PLANFORM
10
64.672885
20
0.898821
30
0.000000
0
VERTEX
8
GLIDE_PLANFORM
10
68.587468
20
0.956317
30
0.000000
0
VERTEX
8
GLIDE_PLANFORM
10
72.550038
20
1.014872
30
0.000000
0
VERTEX
8
GLIDE_PLANFORM
10
76.560165
20
1.074493
30
0.000000
0
VERTEX
8
GLIDE_PLANFORM
10
80.617415
20
1.135184
30
0.000000
0
VERTEX
8
GLIDE_PLANFORM
10
84.721359
20
1.196953
30
0.000000
0
VERTEX
8
GLIDE_PLANFORM
10
88.871563
20
1.259805
30
0.000000
0
VERTEX
8
GLIDE_PLANFORM
10
93.067596
20
1.323745
30
0.000000
0
VERTEX
8
GLIDE_PLANFORM
10
97.309027
20
1.388780
30
0.000000
0
VERTEX
8
GLIDE_PLANFORM
10
101.595423
20
1.454916
30
0.000000
0
VERTEX
8
GLIDE_PLANFORM
10
105.773344
20
1.519775
30
0.000000
0
VERTEX
8
GLIDE_PLANFORM
10
109.992334
20
1.585669
30
0.000000
0
VERTEX
8
GLIDE_PLANFORM
10
114.252006
20
1.652604
30
0.000000
0
VERTEX
8
GLIDE_PLANFORM
10
118.551973
20
1.720585
30
0.000000
0
VERTEX
8
GLIDE_PLANFORM
10
122.891846
20
1.789617
30
0.000000
0
VERTEX
8
GLIDE_PLANFORM
10
127.271238
20
1.859705
30
0.000000
0
VERTEX
8
GLIDE_PLANFORM
10
131.689760
20
1.930855
30
0.000000
0
VERTEX
8
GLIDE_PLANFORM
10
136.147026
20
2.003072
30
0.000000
0
VERTEX
8
GLIDE_PLANFORM
10
140.642647
20
2.076361
30
0.000000
0
VERTEX
8
GLIDE_PLANFORM
10
145.016212
20
2.148095
30
0.000000
0
VERTEX
8
GLIDE_PLANFORM
10
149.424774
20
2.220837
30
0.000000
0
VERTEX
8
GLIDE_PLANFORM
10
153.867984
20
2.294592
30
0.000000
0
VERTEX
8
GLIDE_PLANFORM
10
158.345494
20
2.369364
30
0.000000
0
VERTEX
8
GLIDE_PLANFORM
10
162.856955
20
2.445158
30
0.000000
0
VERTEX
8
GLIDE_PLANFORM
10
167.402020
20
2.521979
30
0.000000
0
VERTEX
8
GLIDE_PLANFORM
10
171.980340
20
2.599832
30
0.000000
0
VERTEX
8
GLIDE_PLANFORM
10
176.591566
20
2.678721
30
0.000000
0
VERTEX
8
GLIDE_PLANFORM
10
181.235351
20
2.758651
30
0.000000
0
VERTEX
8
GLIDE_PLANFORM
10
190.287147
20
2.915851
30
0.000000
0
VERTEX
8
GLIDE_PLANFORM
10
199.456381
20
3.076981
30
0.000000
0
VERTEX
8
GLIDE_PLANFORM
10
208.740550
20
3.242072
30
0.000000
0
VERTEX
8
GLIDE_PLANFORM
10
218.137151
20
3.411161
30
0.000000
0
VERTEX
8
GLIDE_PLANFORM
10
227.643681
20
3.584281
30
0.000000
0
VERTEX
8
GLIDE_PLANFORM
10
237.257637
20
3.761466
30
0.000000
0
VERTEX
8
GLIDE_PLANFORM
10
246.976517
20
3.942750
30
0.000000
0
VERTEX
8
GLIDE_PLANFORM
10
256.797818
20
4.128168
30
0.000000
0
VERTEX
8
GLIDE_PLANFORM
10
266.719037
20
4.317753
30
0.000000
0
VERTEX
8
GLIDE_PLANFORM
10
276.030104
20
4.497776
30
0.000000
0
VERTEX
8
GLIDE_PLANFORM
10
285.423359
20
4.681458
30
0.000000
0
VERTEX
8
GLIDE_PLANFORM
10
294.896788
20
4.868826
30
0.000000
0
VERTEX
8
GLIDE_PLANFORM
10
304.448382
20
5.059908
30
0.000000
0
VERTEX
8
GLIDE_PLANFORM
10
314.076130
20
5.254731
30
0.000000
0
VERTEX
8
GLIDE_PLANFORM
10
323.778019
20
5.453323
30
0.000000
0
VERTEX
8
GLIDE_PLANFORM
10
333.552040
20
5.655710
30
0.000000
0
VERTEX
8
GLIDE_PLANFORM
10
343.396181
20
5.861922
30
0.000000
0
VERTEX
8
GLIDE_PLANFORM
10
353.308430
20
6.071984
30
0.000000
0
VERTEX
8
GLIDE_PLANFORM
10
362.583056
20
6.270754
30
0.000000
0
VERTEX
8
GLIDE_PLANFORM
10
371.913196
20
6.472899
30
0.000000
0
VERTEX
8
GLIDE_PLANFORM
10
381.297233
20
6.678439
30
0.000000
0
VERTEX
8
GLIDE_PLANFORM
10
390.733552
20
6.887398
30
0.000000
0
VERTEX
8
GLIDE_PLANFORM
10
400.220536
20
7.099797
30
0.000000
0
VERTEX
8
GLIDE_PLANFORM
10
409.756569
20
7.315658
30
0.000000
0
VERTEX
8
GLIDE_PLANFORM
10
419.340036
20
7.535003
30
0.000000
0
VERTEX
8
GLIDE_PLANFORM
10
428.969320
20
7.757855
30
0.000000
0
VERTEX
8
GLIDE_PLANFORM
10
438.642805
20
7.984235
30
0.000000
0
VERTEX
8
GLIDE_PLANFORM
10
447.674356
20
8.197882
30
0.000000
0
VERTEX
8
GLIDE_PLANFORM
10
456.741416
20
8.414615
30
0.000000
0
VERTEX
8
GLIDE_PLANFORM
10
465.842686
20
8.634453
30
0.000000
0
VERTEX
8
GLIDE_PLANFORM
10
474.976868
20
8.857412
30
0.000000
0
VERTEX
8
GLIDE_PLANFORM
10
484.142662
20
9.083510
30
0.000000
0
VERTEX
8
GLIDE_PLANFORM
10
493.338771
20
9.312766
30
0.000000
0
VERTEX
8
GLIDE_PLANFORM
10
511.816738
20
9.780819
30
0.000000
0
VERTEX
8
GLIDE_PLANFORM
10
530.400379
20
10.261714
30
0.000000
0
VERTEX
8
GLIDE_PLANFORM
10
549.079308
20
10.755591
30
0.000000
0
VERTEX
8
GLIDE_PLANFORM
10
566.080699
20
11.214500
30
0.000000
0
VERTEX
8
GLIDE_PLANFORM
10
583.144085
20
11.684293
30
0.000000
0
VERTEX
8
GLIDE_PLANFORM
10
600.261732
20
12.165076
30
0.000000
0
VERTEX
8
GLIDE_PLANFORM
10
617.425909
20
12.656954
30
0.000000
0
VERTEX
8
GLIDE_PLANFORM
10
634.628884
20
13.160033
30
0.000000
0
VERTEX
8
GLIDE_PLANFORM
10
651.862924
20
13.674417
30
0.000000
0
VERTEX
8
GLIDE_PLANFORM
10
686.393274
20
14.737525
30
0.000000
0
VERTEX
8
GLIDE_PLANFORM
10
720.955102
20
15.847122
30
0.000000
0
VERTEX
8
GLIDE_PLANFORM
10
755.486551
20
17.004051
30
0.000000
0
VERTEX
8
GLIDE_PLANFORM
10
783.478286
20
17.979490
30
0.000000
0
VERTEX
8
GLIDE_PLANFORM
10
797.440951
20
18.479276
30
0.000000
0
VERTEX
8
GLIDE_PLANFORM
10
811.375952
20
18.987184
30
0.000000
0
VERTEX
8
GLIDE_PLANFORM
10
825.279142
20
19.503268
30
0.000000
0
VERTEX
8
GLIDE_PLANFORM
10
839.146373
20
20.027586
30
0.000000
0
VERTEX
8
GLIDE_PLANFORM
10
852.973498
20
20.560193
30
0.000000
0
VERTEX
8
GLIDE_PLANFORM
10
866.756370
20
21.101148
30
0.000000
0
VERTEX
8
GLIDE_PLANFORM
10
880.490841
20
21.650505
30
0.000000
0
VERTEX
8
GLIDE_PLANFORM
10
894.172764
20
22.208322
30
0.000000
0
VERTEX
8
GLIDE_PLANFORM
10
905.672955
20
22.685603
30
0.000000
0
VERTEX
8
GLIDE_PLANFORM
10
917.130293
20
23.168979
30
0.000000
0
VERTEX
8
GLIDE_PLANFORM
10
928.542287
20
23.658487
30
0.000000
0
VERTEX
8
GLIDE_PLANFORM
10
939.906444
20
24.154159
30
0.000000
0
VERTEX
8
GLIDE_PLANFORM
10
951.220275
20
24.656030
30
0.000000
0
VERTEX
8
GLIDE_PLANFORM
10
962.481288
20
25.164134
30
0.000000
0
VERTEX
8
GLIDE_PLANFORM
10
973.686992
20
25.678504
30
0.000000
0
VERTEX
8
GLIDE_PLANFORM
10
984.834895
20
26.199175
30
0.000000
0
VERTEX
8
GLIDE_PLANFORM
10
995.922506
20
26.726180
30
0.000000
0
VERTEX
8
GLIDE_PLANFORM
10
1005.400855
20
27.184162
30
0.000000
0
VERTEX
8
GLIDE_PLANFORM
10
1014.831257
20
27.646869
30
0.000000
0
VERTEX
8
GLIDE_PLANFORM
10
1024.212129
20
28.114322
30
0.000000
0
VERTEX
8
GLIDE_PLANFORM
10
1033.541892
20
28.586543
30
0.000000
0
VERTEX
8
GLIDE_PLANFORM
10
1042.818963
20
29.063554
30
0.000000
0
VERTEX
8
GLIDE_PLANFORM
10
1052.041763
20
29.545375
30
0.000000
0
VERTEX
8
GLIDE_PLANFORM
10
1061.208709
20
30.032029
30
0.000000
0
VERTEX
8
GLIDE_PLANFORM
10
1070.318221
20
30.523538
30
0.000000
0
VERTEX
8
GLIDE_PLANFORM
10
1079.368718
20
31.019922
30
0.000000
0
VERTEX
8
GLIDE_PLANFORM
10
1087.098134
20
31.450414
30
0.000000
0
VERTEX
8
GLIDE_PLANFORM
10
1094.781795
20
31.884537
30
0.000000
0
VERTEX
8
GLIDE_PLANFORM
10
1102.418697
20
32.322303
30
0.000000
0
VERTEX
8
GLIDE_PLANFORM
10
1110.007836
20
32.763727
30
0.000000
0
VERTEX
8
GLIDE_PLANFORM
10
1117.548210
20
33.208823
30
0.000000
0
VERTEX
8
GLIDE_PLANFORM
10
1125.038815
20
33.657604
30
0.000000
0
VERTEX
8
GLIDE_PLANFORM
10
1132.478646
20
34.110084
30
0.000000
0
VERTEX
8
GLIDE_PLANFORM
10
1139.866701
20
34.566277
30
0.000000
0
VERTEX
8
GLIDE_PLANFORM
10
1147.201977
20
35.026195
30
0.000000
0
VERTEX
8
GLIDE_PLANFORM
10
1153.462797
20
35.424425
30
0.000000
0
VERTEX
8
GLIDE_PLANFORM
10
1159.683260
20
35.825426
30
0.000000
0
VERTEX
8
GLIDE_PLANFORM
10
1165.862729
20
36.229206
30
0.000000
0
VERTEX
8
GLIDE_PLANFORM
10
1172.000567
20
36.635774
30
0.000000
0
VERTEX
8
GLIDE_PLANFORM
10
1178.096137
20
37.045139
30
0.000000
0
VERTEX
8
GLIDE_PLANFORM
10
1184.148803
20
37.457309
30
0.000000
0
VERTEX
8
GLIDE_PLANFORM
10
1190.157927
20
37.872294
30
0.000000
0
VERTEX
8
GLIDE_PLANFORM
10
1196.122873
20
38.290101
30
0.000000
0
VERTEX
8
GLIDE_PLANFORM
10
1202.043004
20
38.710739
30
0.000000
0
VERTEX
8
GLIDE_PLANFORM
10
1207.094327
20
39.074494
30
0.000000
0
VERTEX
8
GLIDE_PLANFORM
10
1212.111677
20
39.440353
30
0.000000
0
VERTEX
8
GLIDE_PLANFORM
10
1217.094652
20
39.808319
30
0.000000
0
VERTEX
8
GLIDE_PLANFORM
10
1222.042846
20
40.178400
30
0.000000
0
VERTEX
8
GLIDE_PLANFORM
10
1226.955857
20
40.550600
30
0.000000
0
VERTEX
8
GLIDE_PLANFORM
10
1231.833279
20
40.924926
30
0.000000
0
VERTEX
8
GLIDE_PLANFORM
10
1236.674708
20
41.301382
30
0.000000
0
VERTEX
8
GLIDE_PLANFORM
10
1241.479740
20
41.679974
30
0.000000
0
VERTEX
8
GLIDE_PLANFORM
10
1246.247971
20
42.060707
30
0.000000
0
VERTEX
8
GLIDE_PLANFORM
10
1254.356214
20
42.720113
30
0.000000
0
VERTEX
8
GLIDE_PLANFORM
10
1262.352497
20
43.385889
30
0.000000
0
VERTEX
8
GLIDE_PLANFORM
10
1270.234767
20
44.058064
30
0.000000
0
VERTEX
8
GLIDE_PLANFORM
10
1278.000971
20
44.736666
30
0.000000
0
VERTEX
8
GLIDE_PLANFORM
10
1281.839908
20
45.078386
30
0.000000
0
VERTEX
8
GLIDE_PLANFORM
10
1285.649059
20
45.421723
30
0.000000
0
VERTEX
8
GLIDE_PLANFORM
10
1289.428167
20
45.766680
30
0.000000
0
VERTEX
8
GLIDE_PLANFORM
10
1293.176976
20
46.113262
30
0.000000
0
VERTEX
8
GLIDE_PLANFORM
10
1296.895230
20
46.461471
30
0.000000
0
VERTEX
8
GLIDE_PLANFORM
10
1302.757407
20
47.019803
30
0.000000
0
VERTEX
8
GLIDE_PLANFORM
10
1308.540282
20
47.582292
30
0.000000
0
VERTEX
8
GLIDE_PLANFORM
10
1314.242816
20
48.148952
30
0.000000
0
VERTEX
8
GLIDE_PLANFORM
10
1319.863970
20
48.719799
30
0.000000
0
VERTEX
8
GLIDE_PLANFORM
10
1325.402707
20
49.294845
30
0.000000
0
VERTEX
8
GLIDE_PLANFORM
10
1330.857988
20
49.874105
30
0.000000
0
VERTEX
8
GLIDE_PLANFORM
10
1336.228773
20
50.457593
30
0.000000
0
VERTEX
8
GLIDE_PLANFORM
10
1341.514026
20
51.045323
30
0.000000
0
VERTEX
8
GLIDE_PLANFORM
10
1346.712707
20
51.637310
30
0.000000
0
VERTEX
8
GLIDE_PLANFORM
10
1350.395204
20
52.065438
30
0.000000
0
VERTEX
8
GLIDE_PLANFORM
10
1354.032056
20
52.495777
30
0.000000
0
VERTEX
8
GLIDE_PLANFORM
10
1357.622877
20
52.928333
30
0.000000
0
VERTEX
8
GLIDE_PLANFORM
10
1361.167282
20
53.363111
30
0.000000
0
VERTEX
8
GLIDE_PLANFORM
10
1364.664884
20
53.800116
30
0.000000
0
VERTEX
8
GLIDE_PLANFORM
10
1368.115299
20
54.239354
30
0.000000
0
VERTEX
8
GLIDE_PLANFORM
10
1371.518141
20
54.680830
30
0.000000
0
VERTEX
8
GLIDE_PLANFORM
10
1374.873024
20
55.124548
30
0.000000
0
VERTEX
8
GLIDE_PLANFORM
10
1378.179563
20
55.570515
30
0.000000
0
VERTEX
8
GLIDE_PLANFORM
10
1382.847241
20
56.215541
30
0.000000
0
VERTEX
8
GLIDE_PLANFORM
10
1387.413078
20
56.865240
30
0.000000
0
VERTEX
8
GLIDE_PLANFORM
10
1391.875927
20
57.519627
30
0.000000
0
VERTEX
8
GLIDE_PLANFORM
10
1396.234644
20
58.178718
30
0.000000
0
VERTEX
8
GLIDE_PLANFORM
10
1400.488084
20
58.842528
30
0.000000
0
VERTEX
8
GLIDE_PLANFORM
10
1404.635101
20
59.511072
30
0.000000
0
VERTEX
8
GLIDE_PLANFORM
10
1408.674548
20
60.184367
30
0.000000
0
VERTEX
8
GLIDE_PLANFORM
10
1412.605282
20
60.862428
30
0.000000
0
VERTEX
8
GLIDE_PLANFORM
10
1416.426157
20
61.545270
30
0.000000
0
VERTEX
8
GLIDE_PLANFORM
10
1419.678403
20
62.146692
30
0.000000
0
VERTEX
8
GLIDE_PLANFORM
10
1422.844893
20
62.751798
30
0.000000
0
VERTEX
8
GLIDE_PLANFORM
10
1425.924860
20
63.360597
30
0.000000
0
VERTEX
8
GLIDE_PLANFORM
10
1428.917538
20
63.973100
30
0.000000
0
VERTEX
8
GLIDE_PLANFORM
10
1431.822158
20
64.589318
30
0.000000
0
VERTEX
8
GLIDE_PLANFORM
10
1434.637953
20
65.209262
30
0.000000
0
VERTEX
8
GLIDE_PLANFORM
10
1437.364156
20
65.832941
30
0.000000
0
VERTEX
8
GLIDE_PLANFORM
10
1440.000000
20
66.460366
30
0.000000
0
SEQEND
8
0
0
LINE
8
GLIDE_PLANFORM
6
CONTINUOUS
10
1470.000000
20
80.860332
30
0.000000
11
1470.000000
21
83.860332
31
0.000000
0
POLYLINE
8
GLIDE_PLANFORM
6
CONTINUOUS
70
0
66
 1
10
0.0
20
0.0
30
0.000000
0
VERTEX
8
GLIDE_PLANFORM
10
1440.000000
20
66.460366
30
0.000000
0
VERTEX
8
GLIDE_PLANFORM
10
1440.720413
20
66.639237
30
0.000000
0
VERTEX
8
GLIDE_PLANFORM
10
1441.525090
20
66.846693
30
0.000000
0
VERTEX
8
GLIDE_PLANFORM
10
1442.407003
20
67.081624
30
0.000000
0
VERTEX
8
GLIDE_PLANFORM
10
1443.359128
20
67.342920
30
0.000000
0
VERTEX
8
GLIDE_PLANFORM
10
1444.374439
20
67.629473
30
0.000000
0
VERTEX
8
GLIDE_PLANFORM
10
1445.445910
20
67.940173
30
0.000000
0
VERTEX
8
GLIDE_PLANFORM
10
1446.566515
20
68.273911
30
0.000000
0
VERTEX
8
GLIDE_PLANFORM
10
1447.729229
20
68.629579
30
0.000000
0
VERTEX
8
GLIDE_PLANFORM
10
1448.927026
20
69.006066
30
0.000000
0
VERTEX
8
GLIDE_PLANFORM
10
1450.696218
20
69.581514
30
0.000000
0
VERTEX
8
GLIDE_PLANFORM
10
1452.502518
20
70.194398
30
0.000000
0
VERTEX
8
GLIDE_PLANFORM
10
1454.325056
20
70.841421
30
0.000000
0
VERTEX
8
GLIDE_PLANFORM
10
1456.142963
20
71.519290
30
0.000000
0
VERTEX
8
GLIDE_PLANFORM
10
1457.935368
20
72.224710
30
0.000000
0
VERTEX
8
GLIDE_PLANFORM
10
1459.681401
20
72.954385
30
0.000000
0
VERTEX
8
GLIDE_PLANFORM
10
1461.360194
20
73.705021
30
0.000000
0
VERTEX
8
GLIDE_PLANFORM
10
1462.950877
20
74.473323
30
0.000000
0
VERTEX
8
GLIDE_PLANFORM
10
1463.706655
20
74.863069
30
0.000000
0
VERTEX
8
GLIDE_PLANFORM
10
1464.388133
20
75.231353
30
0.000000
0
VERTEX
8
GLIDE_PLANFORM
10
1465.041223
20
75.602093
30
0.000000
0
VERTEX
8
GLIDE_PLANFORM
10
1465.663775
20
75.974950
30
0.000000
0
VERTEX
8
GLIDE_PLANFORM
10
1466.253640
20
76.349585
30
0.000000
0
VERTEX
8
GLIDE_PLANFORM
10
1466.808669
20
76.725658
30
0.000000
0
VERTEX
8
GLIDE_PLANFORM
10
1467.326711
20
77.102830
30
0.000000
0
VERTEX
8
GLIDE_PLANFORM
10
1467.805618
20
77.480761
30
0.000000
0
VERTEX
8
GLIDE_PLANFORM
10
1468.243239
20
77.859113
30
0.000000
0
VERTEX
8
GLIDE_PLANFORM
10
1468.637425
20
78.237546
30
0.000000
0
VERTEX
8
GLIDE_PLANFORM
10
1468.945019
20
78.568474
30
0.000000
0
VERTEX
8
GLIDE_PLANFORM
10
1469.216272
20
78.898977
30
0.000000
0
VERTEX
8
GLIDE_PLANFORM
10
1469.449744
20
79.228827
30
0.000000
0
VERTEX
8
GLIDE_PLANFORM
10
1469.643996
20
79.557797
30
0.000000
0
VERTEX
8
GLIDE_PLANFORM
10
1469.797588
20
79.885660
30
0.000000
0
VERTEX
8
GLIDE_PLANFORM
10
1469.909079
20
80.212188
30
0.000000
0
VERTEX
8
GLIDE_PLANFORM
10
1469.977030
20
80.537155
30
0.000000
0
VERTEX
8
GLIDE_PLANFORM
10
1470.000000
20
80.860332
30
0.000000
0
SEQEND
8
0
0
POLYLINE
8
GLIDE_PLANFORM
6
CONTINUOUS
70
0
66
 1
10
0.0
20
0.0
30
0.000000
0
VERTEX
8
GLIDE_PLANFORM
10
1470.000000
20
83.860332
30
0.000000
0
VERTEX
8
GLIDE_PLANFORM
10
1469.984189
20
84.732637
30
0.000000
0
VERTEX
8
GLIDE_PLANFORM
10
1469.937293
20
85.600784
30
0.000000
0
VERTEX
8
GLIDE_PLANFORM
10
1469.860122
20
86.464595
30
0.000000
0
VERTEX
8
GLIDE_PLANFORM
10
1469.753483
20
87.323895
30
0.000000
0
VERTEX
8
GLIDE_PLANFORM
10
1469.455036
20
89.028252
30
0.000000
0
VERTEX
8
GLIDE_PLANFORM
10
1469.048420
20
90.712442
30
0.000000
0
VERTEX
8
GLIDE_PLANFORM
10
1468.540100
20
92.375052
30
0.000000
0
VERTEX
8
GLIDE_PLANFORM
10
1467.936542
20
94.014668
30
0.000000
0
VERTEX
8
GLIDE_PLANFORM
10
1467.244214
20
95.629877
30
0.000000
0
VERTEX
8
GLIDE_PLANFORM
10
1466.645738
20
96.873865
30
0.000000
0
VERTEX
8
GLIDE_PLANFORM
10
1466.000110
20
98.101420
30
0.000000
0
VERTEX
8
GLIDE_PLANFORM
10
1465.310415
20
99.311868
30
0.000000
0
VERTEX
8
GLIDE_PLANFORM
10
1464.579736
20
100.504535
30
0.000000
0
VERTEX
8
GLIDE_PLANFORM
10
1463.811156
20
101.678747
30
0.000000
0
VERTEX
8
GLIDE_PLANFORM
10
1463.007758
20
102.833831
30
0.000000
0
VERTEX
8
GLIDE_PLANFORM
10
1462.172628
20
103.969112
30
0.000000
0
VERTEX
8
GLIDE_PLANFORM
10
1461.308846
20
105.083916
30
0.000000
0
VERTEX
8
GLIDE_PLANFORM
10
1459.507667
20
107.249401
30
0.000000
0
VERTEX
8
GLIDE_PLANFORM
10
1458.222852
20
108.686295
30
0.000000
0
VERTEX
8
GLIDE_PLANFORM
10
1456.909374
20
110.078902
30
0.000000
0
VERTEX
8
GLIDE_PLANFORM
10
1455.575251
20
111.425471
30
0.000000
0
VERTEX
8
GLIDE_PLANFORM
10
1454.228496
20
112.724248
30
0.000000
0
VERTEX
8
GLIDE_PLANFORM
10
1452.877127
20
113.973483
30
0.000000
0
VERTEX
8
GLIDE_PLANFORM
10
1451.529159
20
115.171424
30
0.000000
0
VERTEX
8
GLIDE_PLANFORM
10
1450.192607
20
116.316319
30
0.000000
0
VERTEX
8
GLIDE_PLANFORM
10
1448.875488
20
117.406416
30
0.000000
0
VERTEX
8
GLIDE_PLANFORM
10
1447.585817
20
118.439964
30
0.000000
0
VERTEX
8
GLIDE_PLANFORM
10
1446.486173
20
119.296552
30
0.000000
0
VERTEX
8
GLIDE_PLANFORM
10
1445.419051
20
120.107330
30
0.000000
0
VERTEX
8
GLIDE_PLANFORM
10
1444.389821
20
120.871124
30
0.000000
0
VERTEX
8
GLIDE_PLANFORM
10
1443.403853
20
121.586760
30
0.000000
0
VERTEX
8
GLIDE_PLANFORM
10
1442.466517
20
122.253065
30
0.000000
0
VERTEX
8
GLIDE_PLANFORM
10
1441.583183
20
122.868865
30
0.000000
0
VERTEX
8
GLIDE_PLANFORM
10
1440.759220
20
123.432986
30
0.000000
0
VERTEX
8
GLIDE_PLANFORM
10
1440.000000
20
123.944256
30
0.000000
0
SEQEND
8
0
0
LINE
8
GLIDE_PLANFORM
6
CONTINUOUS
10
0.000000
20
0.000000
30
0.000000
11
0.000000
21
230.000000
31
0.000000
0
LINE
8
GLIDE_PLANFORM
6
CONTINUOUS
10
0.000000
20
64.400000
30
0.000000
11
1470.000000
21
82.360332
31
0.000000
0
LINE
8
GLIDE_PLANFORM
6
CONTINUOUS
10
600.000000
20
71.730748
30
0.000000
11
600.000000
21
12.157725
31
0.000000
0
TEXT
8
GLIDE_PLANFORM
6
CONTINUOUS
7
STANDARD
10
0.055353
20
-34.856080
72
0
73
3
11
0.055353
21
-34.856080
40
8.000000
41
1.000000
50
0.000000
1
VJX.glide
0
TEXT
8
GLIDE_PLANFORM
6
CONTINUOUS
7
STANDARD
10
0.055353
20
-54.856080
72
0
73
3
11
0.055353
21
-54.856080
40
5.000000
41
1.000000
50
0.000000
1
Original planform designed by splines
0
ENDSEC
0
EOF
