  0
SECTION
  2
HEADER
  9
$ACADVER
  1
AC1004
  9
$INSBASE
 10
0.0
 20
0.0
  9
$EXTMIN
 10
1.000000000000000E+20
 20
1.000000000000000E+20
  9
$EXTMAX
 10
-1.000000000000000E+20
 20
-1.000000000000000E+20
  9
$LIMMIN
 10
0.0
 20
0.0
  9
$LIMMAX
 10
12.0
 20
9.0
  9
$ORTHOMODE
 70
     0
  9
$REGENMODE
 70
     1
  9
$FILLMODE
 70
     1
  9
$QTEXTMODE
 70
     0
  9
$DRAGMODE
 70
     2
  9
$LTSCALE
 40
1.0
  9
$OSMODE
 70
    37
  9
$ATTMODE
 70
     1
  9
$TEXTSIZE
 40
5.0
  9
$TRACEWID
 40
0.05
  9
$TEXTSTYLE
  7
STANDARD
  9
$CLAYER
  8
0
  9
$CELTYPE
  6
BYBLOCK
  9
$CECOLOR
 62
   256
  9
$DIMSCALE
 40
1.0
  9
$DIMASZ
 40
0.18
  9
$DIMEXO
 40
0.0625
  9
$DIMDLI
 40
0.38
  9
$DIMRND
 40
0.0
  9
$DIMDLE
 40
0.0
  9
$DIMEXE
 40
0.18
  9
$DIMTP
 40
0.0
  9
$DIMTM
 40
0.0
  9
$DIMTXT
 40
0.18
  9
$DIMCEN
 40
0.09
  9
$DIMTSZ
 40
0.0
  9
$DIMTOL
 70
     0
  9
$DIMLIM
 70
     0
  9
$DIMTIH
 70
     1
  9
$DIMTOH
 70
     1
  9
$DIMSE1
 70
     0
  9
$DIMSE2
 70
     0
  9
$DIMTAD
 70
     0
  9
$DIMZIN
 70
     0
  9
$DIMBLK
  1

  9
$DIMASO
 70
     1
  9
$DIMSHO
 70
     1
  9
$DIMPOST
  1

  9
$DIMAPOST
  1

  9
$DIMALT
 70
     0
  9
$DIMALTD
 70
     2
  9
$DIMALTF
 40
25.4
  9
$DIMLFAC
 40
1.0
  9
$DIMTOFL
 70
     0
  9
$DIMTVP
 40
0.0
  9
$DIMTIX
 70
     0
  9
$DIMSOXD
 70
     0
  9
$DIMSAH
 70
     0
  9
$DIMBLK1
  1

  9
$DIMBLK2
  1

  9
$LUNITS
 70
     2
  9
$LUPREC
 70
     4
  9
$SKETCHINC
 40
0.1
  9
$FILLETRAD
 40
0.0
  9
$AUNITS
 70
     0
  9
$AUPREC
 70
     0
  9
$MENU
  1
.
  9
$ELEVATION
 40
0.0
  9
$THICKNESS
 40
0.0
  9
$LIMCHECK
 70
     0
  9
$CHAMFERA
 40
0.0
  9
$CHAMFERB
 40
0.0
  9
$SKPOLY
 70
     0
  9
$TDCREATE
 40
2460002.506703565
  9
$TDUPDATE
 40
2460002.506703565
  9
$TDINDWG
 40
0.0000000116
  9
$TDUSRTIMER
 40
0.0000000116
  9
$USRTIMER
 70
     1
  9
$ANGBASE
 50
0.0
  9
$ANGDIR
 70
     0
  9
$PDMODE
 70
     0
  9
$PDSIZE
 40
0.0
  9
$PLINEWID
 40
0.0
  9
$COORDS
 70
     1
  9
$SPLFRAME
 70
     0
  9
$SPLINETYPE
 70
     6
  9
$SPLINESEGS
 70
     8
  9
$ATTDIA
 70
     0
  9
$ATTREQ
 70
     1
  9
$SURFTAB1
 70
     6
  9
$SURFTAB2
 70
     6
  9
$SURFTYPE
 70
     6
  9
$SURFU
 70
     6
  9
$SURFV
 70
     6
  9
$UCSNAME
  2

  9
$UCSORG
 10
0.0
 20
0.0
 30
0.0
  9
$UCSXDIR
 10
1.0
 20
0.0
 30
0.0
  9
$UCSYDIR
 10
0.0
 20
1.0
 30
0.0
  9
$USERI1
 70
     0
  9
$USERI2
 70
     0
  9
$USERI3
 70
     0
  9
$USERI4
 70
     0
  9
$USERI5
 70
     0
  9
$USERR1
 40
0.0
  9
$USERR2
 40
0.0
  9
$USERR3
 40
0.0
  9
$USERR4
 40
0.0
  9
$USERR5
 40
0.0
  9
$WORLDVIEW
 70
     1
  0
ENDSEC
  0
SECTION
  2
TABLES
  0
TABLE
  2
LTYPE
 70
     1
  0
LTYPE
  2
CONTINUOUS
 70
     0
  3
Solid line
 72
    65
 73
     0
 40
0.0
  0
ENDTAB
  0
TABLE
  2
LAYER
 70
     2
  0
LAYER
  2
0
 70
     0
 62
     7
  6
CONTINUOUS
  0
LAYER
  2
GLIDE_PLANFORM
 70
     0
 62
   192
  6
CONTINUOUS
  0
ENDTAB
  0
TABLE
  2
STYLE
 70
     1
  0
STYLE
  2
STANDARD
 70
     0
 40
5.0
 41
1.0
 50
0.0
 71
     0
 42
5.0
  3
Arial
  4

  0
ENDTAB
  0
TABLE
  2
VIEW
 70
     0
  0
ENDTAB
  0
ENDSEC
  0
SECTION
  2
BLOCKS
  0
BLOCK
  8
0
  2
_CLOSEDFILLED
 70
     0
 10
0.0
 20
0.0
  0
SOLID
  8
0
 10
-1.0
 20
0.166667
 11
-1.0
 21
-0.166667
 12
0.0
 22
0.0
 13
0.0
 23
0.0
  0
ENDBLK
  8
0
  0
BLOCK
  8
0
  2
_CLOSEDBLANK
 70
     0
 10
0.0
 20
0.0
  0
LINE
  8
0
 10
-1.0
 20
0.166667
 11
0.0
 21
0.0
  0
LINE
  8
0
 10
0.0
 20
0.0
 11
-1.0
 21
-0.166667
  0
LINE
  8
0
 10
-1.0
 20
0.166667
 11
-1.0
 21
-0.166667
  0
ENDBLK
  8
0
  0
BLOCK
  8
0
  2
_CLOSED
 70
     0
 10
0.0
 20
0.0
  0
LINE
  8
0
 10
-1.0
 20
0.166667
 11
0.0
 21
0.0
  0
LINE
  8
0
 10
0.0
 20
0.0
 11
-1.0
 21
-0.166667
  0
LINE
  8
0
 10
-1.0
 20
0.166667
 11
-1.0
 21
-0.166667
  0
LINE
  8
0
 10
0.0
 20
0.0
 11
-1.0
 21
0.0
  0
ENDBLK
  8
0
  0
BLOCK
  8
0
  2
_DOT
 70
     0
 10
0.0
 20
0.0
  0
POLYLINE
  8
0
 66
     1
 70
     1
  0
VERTEX
  8
0
 10
0.25
 20
0.0
 42
1.0
  0
VERTEX
  8
0
 10
-0.25
 20
0.0
 42
1.0
  0
SEQEND
  8
0
  0
LINE
  8
0
 10
-0.5
 20
0.0
 11
-1.0
 21
0.0
  0
ENDBLK
  8
0
  0
BLOCK
  8
0
  2
_ARCHTICK
 70
     0
 10
0.0
 20
0.0
  0
POLYLINE
  8
0
 66
     1
  0
VERTEX
  8
0
 10
0.5
 20
0.5
  0
VERTEX
  8
0
 10
-0.5
 20
-0.5
  0
SEQEND
  8
0
  0
ENDBLK
  8
0
  0
BLOCK
  8
0
  2
_OBLIQUE
 70
     0
 10
0.0
 20
0.0
  0
LINE
  8
0
 10
-0.5
 20
-0.5
 11
0.5
 21
0.5
  0
ENDBLK
  8
0
  0
BLOCK
  8
0
  2
_OPEN
 70
     0
 10
0.0
 20
0.0
  0
LINE
  8
0
 10
-1.0
 20
0.166667
 11
0.0
 21
0.0
  0
LINE
  8
0
 10
-1.0
 20
-0.166667
 11
0.0
 21
0.0
  0
LINE
  8
0
 10
0.0
 20
0.0
 11
-1.0
 21
0.0
  0
ENDBLK
  8
0
  0
BLOCK
  8
0
  2
_ORIGIN
 70
     0
 10
0.0
 20
0.0
  0
CIRCLE
  8
0
 10
0.0
 20
0.0
 40
0.5
  0
LINE
  8
0
 10
0.0
 20
0.0
 11
-1.0
 21
0.0
  0
ENDBLK
  8
0
  0
BLOCK
  8
0
  2
_ORIGIN2
 70
     0
 10
0.0
 20
0.0
  0
CIRCLE
  8
0
 10
0.0
 20
0.0
 40
0.5
  0
CIRCLE
  8
0
 10
0.0
 20
0.0
 40
0.25
  0
LINE
  8
0
 10
-0.5
 20
0.0
 11
-1.0
 21
0.0
  0
ENDBLK
  8
0
  0
BLOCK
  8
0
  2
_OPEN90
 70
     0
 10
0.0
 20
0.0
  0
LINE
  8
0
 10
-0.5
 20
0.5
 11
0.0
 21
0.0
  0
LINE
  8
0
 10
0.0
 20
0.0
 11
-0.5
 21
-0.5
  0
LINE
  8
0
 10
0.0
 20
0.0
 11
-1.0
 21
0.0
  0
ENDBLK
  8
0
  0
BLOCK
  8
0
  2
_OPEN30
 70
     0
 10
0.0
 20
0.0
  0
LINE
  8
0
 10
-1.0
 20
0.267949
 11
0.0
 21
0.0
  0
LINE
  8
0
 10
0.0
 20
0.0
 11
-1.0
 21
-0.267949
  0
LINE
  8
0
 10
0.0
 20
0.0
 11
-1.0
 21
0.0
  0
ENDBLK
  8
0
  0
BLOCK
  8
0
  2
_DOTSMALL
 70
     0
 10
0.0
 20
0.0
  0
POLYLINE
  8
0
 66
     1
 70
     1
  0
VERTEX
  8
0
 10
0.0625
 20
0.0
 42
1.0
  0
VERTEX
  8
0
 10
-0.0625
 20
0.0
 42
1.0
  0
SEQEND
  8
0
  0
ENDBLK
  8
0
  0
BLOCK
  8
0
  2
_DOTBLANK
 70
     0
 10
0.0
 20
0.0
  0
CIRCLE
  8
0
 10
0.0
 20
0.0
 40
0.5
  0
LINE
  8
0
 10
-0.5
 20
0.0
 11
-1.0
 21
0.0
  0
ENDBLK
  8
0
  0
BLOCK
  8
0
  2
_SMALL
 70
     0
 10
0.0
 20
0.0
  0
CIRCLE
  8
0
 10
0.0
 20
0.0
 40
0.25
  0
ENDBLK
  8
0
  0
BLOCK
  8
0
  2
_BOXBLANK
 70
     0
 10
0.0
 20
0.0
  0
LINE
  8
0
 10
-0.5
 20
-0.5
 11
0.5
 21
-0.5
  0
LINE
  8
0
 10
0.5
 20
-0.5
 11
0.5
 21
0.5
  0
LINE
  8
0
 10
0.5
 20
0.5
 11
-0.5
 21
0.5
  0
LINE
  8
0
 10
-0.5
 20
0.5
 11
-0.5
 21
-0.5
  0
LINE
  8
0
 10
-0.5
 20
0.0
 11
-1.0
 21
0.0
  0
ENDBLK
  8
0
  0
BLOCK
  8
0
  2
_BOXFILLED
 70
     0
 10
0.0
 20
0.0
  0
SOLID
  8
0
 10
-0.5
 20
0.5
 11
0.5
 21
0.5
 12
-0.5
 22
-0.5
 13
0.5
 23
-0.5
  0
LINE
  8
0
 10
-0.5
 20
0.0
 11
-1.0
 21
0.0
  0
ENDBLK
  8
0
  0
BLOCK
  8
0
  2
_DATUMBLANK
 70
     0
 10
0.0
 20
0.0
  0
LINE
  8
0
 10
0.0
 20
0.57735
 11
-1.0
 21
0.0
  0
LINE
  8
0
 10
-1.0
 20
0.0
 11
0.0
 21
-0.57735
  0
LINE
  8
0
 10
0.0
 20
-0.57735
 11
0.0
 21
0.57735
  0
ENDBLK
  8
0
  0
BLOCK
  8
0
  2
_DATUMFILLED
 70
     0
 10
0.0
 20
0.0
  0
SOLID
  8
0
 10
0.0
 20
0.57735
 11
-1.0
 21
0.0
 12
0.0
 22
-0.57735
 13
0.0
 23
-0.57735
  0
ENDBLK
  8
0
  0
BLOCK
  8
0
  2
_INTEGRAL
 70
     0
 10
0.0
 20
0.0
  0
ARC
  8
0
 10
0.444888
 20
-0.091335
 40
0.454167
 50
102.0
 51
168.0
  0
ARC
  8
0
 10
-0.444888
 20
0.091335
 40
0.454167
 50
281.9999999999999
 51
348.0
  0
ENDBLK
  8
0
  0
BLOCK
  8
0
  2
_NONE
 70
     0
 10
0.0
 20
0.0
  0
ENDBLK
  8
0
  0
ENDSEC
  0
SECTION
  2
ENTITIES
  0
POLYLINE
  8
GLIDE_PLANFORM
  6
CONTINUOUS
 66
     1
  0
VERTEX
  8
GLIDE_PLANFORM
  6
CONTINUOUS
 10
0.0
 20
230.0
  0
VERTEX
  8
GLIDE_PLANFORM
  6
CONTINUOUS
 10
1.79031
 20
230.013787
  0
VERTEX
  8
GLIDE_PLANFORM
  6
CONTINUOUS
 10
3.668189
 20
230.028498
  0
VERTEX
  8
GLIDE_PLANFORM
  6
CONTINUOUS
 10
5.632957
 20
230.044084
  0
VERTEX
  8
GLIDE_PLANFORM
  6
CONTINUOUS
 10
7.683936
 20
230.060492
  0
VERTEX
  8
GLIDE_PLANFORM
  6
CONTINUOUS
 10
9.820446
 20
230.077673
  0
VERTEX
  8
GLIDE_PLANFORM
  6
CONTINUOUS
 10
12.041808
 20
230.095577
  0
VERTEX
  8
GLIDE_PLANFORM
  6
CONTINUOUS
 10
14.347344
 20
230.114152
  0
VERTEX
  8
GLIDE_PLANFORM
  6
CONTINUOUS
 10
16.736373
 20
230.133348
  0
VERTEX
  8
GLIDE_PLANFORM
  6
CONTINUOUS
 10
19.208218
 20
230.153114
  0
VERTEX
  8
GLIDE_PLANFORM
  6
CONTINUOUS
 10
21.671025
 20
230.172678
  0
VERTEX
  8
GLIDE_PLANFORM
  6
CONTINUOUS
 10
24.209684
 20
230.192681
  0
VERTEX
  8
GLIDE_PLANFORM
  6
CONTINUOUS
 10
26.823587
 20
230.213078
  0
VERTEX
  8
GLIDE_PLANFORM
  6
CONTINUOUS
 10
29.512121
 20
230.233821
  0
VERTEX
  8
GLIDE_PLANFORM
  6
CONTINUOUS
 10
32.274679
 20
230.254867
  0
VERTEX
  8
GLIDE_PLANFORM
  6
CONTINUOUS
 10
35.110649
 20
230.27617
  0
VERTEX
  8
GLIDE_PLANFORM
  6
CONTINUOUS
 10
38.019422
 20
230.297684
  0
VERTEX
  8
GLIDE_PLANFORM
  6
CONTINUOUS
 10
41.000389
 20
230.319365
  0
VERTEX
  8
GLIDE_PLANFORM
  6
CONTINUOUS
 10
44.052938
 20
230.341165
  0
VERTEX
  8
GLIDE_PLANFORM
  6
CONTINUOUS
 10
47.065453
 20
230.362271
  0
VERTEX
  8
GLIDE_PLANFORM
  6
CONTINUOUS
 10
50.14349
 20
230.383406
  0
VERTEX
  8
GLIDE_PLANFORM
  6
CONTINUOUS
 10
53.286502
 20
230.40453
  0
VERTEX
  8
GLIDE_PLANFORM
  6
CONTINUOUS
 10
56.493941
 20
230.4256
  0
VERTEX
  8
GLIDE_PLANFORM
  6
CONTINUOUS
 10
59.765259
 20
230.446578
  0
VERTEX
  8
GLIDE_PLANFORM
  6
CONTINUOUS
 10
63.099909
 20
230.467421
  0
VERTEX
  8
GLIDE_PLANFORM
  6
CONTINUOUS
 10
66.497343
 20
230.48809
  0
VERTEX
  8
GLIDE_PLANFORM
  6
CONTINUOUS
 10
69.957013
 20
230.508543
  0
VERTEX
  8
GLIDE_PLANFORM
  6
CONTINUOUS
 10
73.47837
 20
230.528739
  0
VERTEX
  8
GLIDE_PLANFORM
  6
CONTINUOUS
 10
76.93389
 20
230.547944
  0
VERTEX
  8
GLIDE_PLANFORM
  6
CONTINUOUS
 10
80.445834
 20
230.566836
  0
VERTEX
  8
GLIDE_PLANFORM
  6
CONTINUOUS
 10
84.013711
 20
230.585378
  0
VERTEX
  8
GLIDE_PLANFORM
  6
CONTINUOUS
 10
87.637029
 20
230.603533
  0
VERTEX
  8
GLIDE_PLANFORM
  6
CONTINUOUS
 10
91.315296
 20
230.621264
  0
VERTEX
  8
GLIDE_PLANFORM
  6
CONTINUOUS
 10
95.048019
 20
230.638536
  0
VERTEX
  8
GLIDE_PLANFORM
  6
CONTINUOUS
 10
98.834707
 20
230.655311
  0
VERTEX
  8
GLIDE_PLANFORM
  6
CONTINUOUS
 10
102.674867
 20
230.671553
  0
VERTEX
  8
GLIDE_PLANFORM
  6
CONTINUOUS
 10
106.568007
 20
230.687225
  0
VERTEX
  8
GLIDE_PLANFORM
  6
CONTINUOUS
 10
110.374038
 20
230.701771
  0
VERTEX
  8
GLIDE_PLANFORM
  6
CONTINUOUS
 10
114.228489
 20
230.71572
  0
VERTEX
  8
GLIDE_PLANFORM
  6
CONTINUOUS
 10
118.130919
 20
230.729038
  0
VERTEX
  8
GLIDE_PLANFORM
  6
CONTINUOUS
 10
122.080886
 20
230.741693
  0
VERTEX
  8
GLIDE_PLANFORM
  6
CONTINUOUS
 10
126.077948
 20
230.753651
  0
VERTEX
  8
GLIDE_PLANFORM
  6
CONTINUOUS
 10
130.121662
 20
230.764881
  0
VERTEX
  8
GLIDE_PLANFORM
  6
CONTINUOUS
 10
134.211588
 20
230.775348
  0
VERTEX
  8
GLIDE_PLANFORM
  6
CONTINUOUS
 10
138.347282
 20
230.78502
  0
VERTEX
  8
GLIDE_PLANFORM
  6
CONTINUOUS
 10
142.528304
 20
230.793864
  0
VERTEX
  8
GLIDE_PLANFORM
  6
CONTINUOUS
 10
146.604887
 20
230.801581
  0
VERTEX
  8
GLIDE_PLANFORM
  6
CONTINUOUS
 10
150.722857
 20
230.808468
  0
VERTEX
  8
GLIDE_PLANFORM
  6
CONTINUOUS
 10
154.881818
 20
230.814494
  0
VERTEX
  8
GLIDE_PLANFORM
  6
CONTINUOUS
 10
159.081373
 20
230.81963
  0
VERTEX
  8
GLIDE_PLANFORM
  6
CONTINUOUS
 10
163.321125
 20
230.823846
  0
VERTEX
  8
GLIDE_PLANFORM
  6
CONTINUOUS
 10
167.600676
 20
230.827112
  0
VERTEX
  8
GLIDE_PLANFORM
  6
CONTINUOUS
 10
171.91963
 20
230.829401
  0
VERTEX
  8
GLIDE_PLANFORM
  6
CONTINUOUS
 10
176.277589
 20
230.83068
  0
VERTEX
  8
GLIDE_PLANFORM
  6
CONTINUOUS
 10
180.674158
 20
230.830922
  0
VERTEX
  8
GLIDE_PLANFORM
  6
CONTINUOUS
 10
184.952384
 20
230.830144
  0
VERTEX
  8
GLIDE_PLANFORM
  6
CONTINUOUS
 10
189.265826
 20
230.828345
  0
VERTEX
  8
GLIDE_PLANFORM
  6
CONTINUOUS
 10
193.614127
 20
230.825499
  0
VERTEX
  8
GLIDE_PLANFORM
  6
CONTINUOUS
 10
197.996931
 20
230.82158
  0
VERTEX
  8
GLIDE_PLANFORM
  6
CONTINUOUS
 10
202.413881
 20
230.816561
  0
VERTEX
  8
GLIDE_PLANFORM
  6
CONTINUOUS
 10
206.86462
 20
230.810416
  0
VERTEX
  8
GLIDE_PLANFORM
  6
CONTINUOUS
 10
211.348793
 20
230.803117
  0
VERTEX
  8
GLIDE_PLANFORM
  6
CONTINUOUS
 10
215.866042
 20
230.794639
  0
VERTEX
  8
GLIDE_PLANFORM
  6
CONTINUOUS
 10
220.41601
 20
230.784955
  0
VERTEX
  8
GLIDE_PLANFORM
  6
CONTINUOUS
 10
224.8367
 20
230.774442
  0
VERTEX
  8
GLIDE_PLANFORM
  6
CONTINUOUS
 10
229.287197
 20
230.762759
  0
VERTEX
  8
GLIDE_PLANFORM
  6
CONTINUOUS
 10
238.276332
 20
230.735782
  0
VERTEX
  8
GLIDE_PLANFORM
  6
CONTINUOUS
 10
247.380855
 20
230.703832
  0
VERTEX
  8
GLIDE_PLANFORM
  6
CONTINUOUS
 10
256.598202
 20
230.66672
  0
VERTEX
  8
GLIDE_PLANFORM
  6
CONTINUOUS
 10
265.925813
 20
230.624255
  0
VERTEX
  8
GLIDE_PLANFORM
  6
CONTINUOUS
 10
275.361124
 20
230.576245
  0
VERTEX
  8
GLIDE_PLANFORM
  6
CONTINUOUS
 10
284.901574
 20
230.522499
  0
VERTEX
  8
GLIDE_PLANFORM
  6
CONTINUOUS
 10
294.544601
 20
230.462828
  0
VERTEX
  8
GLIDE_PLANFORM
  6
CONTINUOUS
 10
303.67582
 20
230.401334
  0
VERTEX
  8
GLIDE_PLANFORM
  6
CONTINUOUS
 10
312.892833
 20
230.334307
  0
VERTEX
  8
GLIDE_PLANFORM
  6
CONTINUOUS
 10
322.193527
 20
230.261589
  0
VERTEX
  8
GLIDE_PLANFORM
  6
CONTINUOUS
 10
331.575791
 20
230.183023
  0
VERTEX
  8
GLIDE_PLANFORM
  6
CONTINUOUS
 10
341.037515
 20
230.098452
  0
VERTEX
  8
GLIDE_PLANFORM
  6
CONTINUOUS
 10
350.576587
 20
230.007719
  0
VERTEX
  8
GLIDE_PLANFORM
  6
CONTINUOUS
 10
360.190896
 20
229.910667
  0
VERTEX
  8
GLIDE_PLANFORM
  6
CONTINUOUS
 10
369.878332
 20
229.807137
  0
VERTEX
  8
GLIDE_PLANFORM
  6
CONTINUOUS
 10
379.636783
 20
229.696974
  0
VERTEX
  8
GLIDE_PLANFORM
  6
CONTINUOUS
 10
388.770944
 20
229.588468
  0
VERTEX
  8
GLIDE_PLANFORM
  6
CONTINUOUS
 10
397.962964
 20
229.473966
  0
VERTEX
  8
GLIDE_PLANFORM
  6
CONTINUOUS
 10
407.211147
 20
229.353342
  0
VERTEX
  8
GLIDE_PLANFORM
  6
CONTINUOUS
 10
416.513796
 20
229.226469
  0
VERTEX
  8
GLIDE_PLANFORM
  6
CONTINUOUS
 10
425.869214
 20
229.093221
  0
VERTEX
  8
GLIDE_PLANFORM
  6
CONTINUOUS
 10
435.275706
 20
228.953471
  0
VERTEX
  8
GLIDE_PLANFORM
  6
CONTINUOUS
 10
444.731576
 20
228.807094
  0
VERTEX
  8
GLIDE_PLANFORM
  6
CONTINUOUS
 10
454.235126
 20
228.653962
  0
VERTEX
  8
GLIDE_PLANFORM
  6
CONTINUOUS
 10
463.78466
 20
228.49395
  0
VERTEX
  8
GLIDE_PLANFORM
  6
CONTINUOUS
 10
472.702506
 20
228.338907
  0
VERTEX
  8
GLIDE_PLANFORM
  6
CONTINUOUS
 10
481.657267
 20
228.177706
  0
VERTEX
  8
GLIDE_PLANFORM
  6
CONTINUOUS
 10
490.647581
 20
228.010246
  0
VERTEX
  8
GLIDE_PLANFORM
  6
CONTINUOUS
 10
499.672086
 20
227.836425
  0
VERTEX
  8
GLIDE_PLANFORM
  6
CONTINUOUS
 10
508.729416
 20
227.656142
  0
VERTEX
  8
GLIDE_PLANFORM
  6
CONTINUOUS
 10
517.818211
 20
227.469295
  0
VERTEX
  8
GLIDE_PLANFORM
  6
CONTINUOUS
 10
526.937106
 20
227.275784
  0
VERTEX
  8
GLIDE_PLANFORM
  6
CONTINUOUS
 10
536.084739
 20
227.075505
  0
VERTEX
  8
GLIDE_PLANFORM
  6
CONTINUOUS
 10
554.460765
 20
226.654242
  0
VERTEX
  8
GLIDE_PLANFORM
  6
CONTINUOUS
 10
571.488756
 20
226.240852
  0
VERTEX
  8
GLIDE_PLANFORM
  6
CONTINUOUS
 10
588.591994
 20
225.802788
  0
VERTEX
  8
GLIDE_PLANFORM
  6
CONTINUOUS
 10
605.761934
 20
225.339413
  0
VERTEX
  8
GLIDE_PLANFORM
  6
CONTINUOUS
 10
622.990035
 20
224.850092
  0
VERTEX
  8
GLIDE_PLANFORM
  6
CONTINUOUS
 10
640.267752
 20
224.334187
  0
VERTEX
  8
GLIDE_PLANFORM
  6
CONTINUOUS
 10
657.586542
 20
223.791063
  0
VERTEX
  8
GLIDE_PLANFORM
  6
CONTINUOUS
 10
674.937863
 20
223.220083
  0
VERTEX
  8
GLIDE_PLANFORM
  6
CONTINUOUS
 10
692.313169
 20
222.620611
  0
VERTEX
  8
GLIDE_PLANFORM
  6
CONTINUOUS
 10
709.703919
 20
221.992011
  0
VERTEX
  8
GLIDE_PLANFORM
  6
CONTINUOUS
 10
739.60561
 20
220.841706
  0
VERTEX
  8
GLIDE_PLANFORM
  6
CONTINUOUS
 10
769.484306
 20
219.600242
  0
VERTEX
  8
GLIDE_PLANFORM
  6
CONTINUOUS
 10
799.296629
 20
218.264391
  0
VERTEX
  8
GLIDE_PLANFORM
  6
CONTINUOUS
 10
814.164346
 20
217.56006
  0
VERTEX
  8
GLIDE_PLANFORM
  6
CONTINUOUS
 10
828.999204
 20
216.83092
  0
VERTEX
  8
GLIDE_PLANFORM
  6
CONTINUOUS
 10
843.795779
 20
216.076568
  0
VERTEX
  8
GLIDE_PLANFORM
  6
CONTINUOUS
 10
858.548651
 20
215.2966
  0
VERTEX
  8
GLIDE_PLANFORM
  6
CONTINUOUS
 10
873.252396
 20
214.490611
  0
VERTEX
  8
GLIDE_PLANFORM
  6
CONTINUOUS
 10
887.901593
 20
213.658199
  0
VERTEX
  8
GLIDE_PLANFORM
  6
CONTINUOUS
 10
899.760157
 20
212.962129
  0
VERTEX
  8
GLIDE_PLANFORM
  6
CONTINUOUS
 10
911.576222
 20
212.248131
  0
VERTEX
  8
GLIDE_PLANFORM
  6
CONTINUOUS
 10
923.346881
 20
211.51599
  0
VERTEX
  8
GLIDE_PLANFORM
  6
CONTINUOUS
 10
935.069225
 20
210.765489
  0
VERTEX
  8
GLIDE_PLANFORM
  6
CONTINUOUS
 10
946.740346
 20
209.99641
  0
VERTEX
  8
GLIDE_PLANFORM
  6
CONTINUOUS
 10
958.357335
 20
209.208539
  0
VERTEX
  8
GLIDE_PLANFORM
  6
CONTINUOUS
 10
969.917284
 20
208.401657
  0
VERTEX
  8
GLIDE_PLANFORM
  6
CONTINUOUS
 10
981.417285
 20
207.575548
  0
VERTEX
  8
GLIDE_PLANFORM
  6
CONTINUOUS
 10
992.854429
 20
206.729997
  0
VERTEX
  8
GLIDE_PLANFORM
  6
CONTINUOUS
 10
1002.630791
 20
205.987651
  0
VERTEX
  8
GLIDE_PLANFORM
  6
CONTINUOUS
 10
1012.356737
 20
205.230649
  0
VERTEX
  8
GLIDE_PLANFORM
  6
CONTINUOUS
 10
1022.030423
 20
204.458853
  0
VERTEX
  8
GLIDE_PLANFORM
  6
CONTINUOUS
 10
1031.650002
 20
203.672125
  0
VERTEX
  8
GLIDE_PLANFORM
  6
CONTINUOUS
 10
1041.213629
 20
202.870328
  0
VERTEX
  8
GLIDE_PLANFORM
  6
CONTINUOUS
 10
1050.719457
 20
202.053324
  0
VERTEX
  8
GLIDE_PLANFORM
  6
CONTINUOUS
 10
1060.165641
 20
201.220976
  0
VERTEX
  8
GLIDE_PLANFORM
  6
CONTINUOUS
 10
1069.550335
 20
200.373146
  0
VERTEX
  8
GLIDE_PLANFORM
  6
CONTINUOUS
 10
1078.871694
 20
199.509697
  0
VERTEX
  8
GLIDE_PLANFORM
  6
CONTINUOUS
 10
1086.830228
 20
198.755088
  0
VERTEX
  8
GLIDE_PLANFORM
  6
CONTINUOUS
 10
1094.739453
 20
197.988754
  0
VERTEX
  8
GLIDE_PLANFORM
  6
CONTINUOUS
 10
1102.598196
 20
197.210609
  0
VERTEX
  8
GLIDE_PLANFORM
  6
CONTINUOUS
 10
1110.405287
 20
196.420566
  0
VERTEX
  8
GLIDE_PLANFORM
  6
CONTINUOUS
 10
1118.159553
 20
195.618537
  0
VERTEX
  8
GLIDE_PLANFORM
  6
CONTINUOUS
 10
1125.859823
 20
194.804436
  0
VERTEX
  8
GLIDE_PLANFORM
  6
CONTINUOUS
 10
1133.504926
 20
193.978174
  0
VERTEX
  8
GLIDE_PLANFORM
  6
CONTINUOUS
 10
1141.093691
 20
193.139665
  0
VERTEX
  8
GLIDE_PLANFORM
  6
CONTINUOUS
 10
1148.624945
 20
192.288821
  0
VERTEX
  8
GLIDE_PLANFORM
  6
CONTINUOUS
 10
1155.050276
 20
191.547706
  0
VERTEX
  8
GLIDE_PLANFORM
  6
CONTINUOUS
 10
1161.431526
 20
190.797362
  0
VERTEX
  8
GLIDE_PLANFORM
  6
CONTINUOUS
 10
1167.767951
 20
190.037733
  0
VERTEX
  8
GLIDE_PLANFORM
  6
CONTINUOUS
 10
1174.058807
 20
189.268765
  0
VERTEX
  8
GLIDE_PLANFORM
  6
CONTINUOUS
 10
1180.303351
 20
188.4904
  0
VERTEX
  8
GLIDE_PLANFORM
  6
CONTINUOUS
 10
1186.50084
 20
187.702586
  0
VERTEX
  8
GLIDE_PLANFORM
  6
CONTINUOUS
 10
1192.65053
 20
186.905265
  0
VERTEX
  8
GLIDE_PLANFORM
  6
CONTINUOUS
 10
1198.751677
 20
186.098382
  0
VERTEX
  8
GLIDE_PLANFORM
  6
CONTINUOUS
 10
1204.803537
 20
185.281883
  0
VERTEX
  8
GLIDE_PLANFORM
  6
CONTINUOUS
 10
1209.964412
 20
184.572479
  0
VERTEX
  8
GLIDE_PLANFORM
  6
CONTINUOUS
 10
1215.087866
 20
183.855896
  0
VERTEX
  8
GLIDE_PLANFORM
  6
CONTINUOUS
 10
1220.173429
 20
183.1321
  0
VERTEX
  8
GLIDE_PLANFORM
  6
CONTINUOUS
 10
1225.220628
 20
182.401055
  0
VERTEX
  8
GLIDE_PLANFORM
  6
CONTINUOUS
 10
1230.228991
 20
181.662726
  0
VERTEX
  8
GLIDE_PLANFORM
  6
CONTINUOUS
 10
1235.198046
 20
180.917078
  0
VERTEX
  8
GLIDE_PLANFORM
  6
CONTINUOUS
 10
1240.127322
 20
180.164077
  0
VERTEX
  8
GLIDE_PLANFORM
  6
CONTINUOUS
 10
1245.016347
 20
179.403686
  0
VERTEX
  8
GLIDE_PLANFORM
  6
CONTINUOUS
 10
1249.864648
 20
178.635871
  0
VERTEX
  8
GLIDE_PLANFORM
  6
CONTINUOUS
 10
1253.998262
 20
177.970071
  0
VERTEX
  8
GLIDE_PLANFORM
  6
CONTINUOUS
 10
1258.101153
 20
177.29874
  0
VERTEX
  8
GLIDE_PLANFORM
  6
CONTINUOUS
 10
1262.173021
 20
176.621856
  0
VERTEX
  8
GLIDE_PLANFORM
  6
CONTINUOUS
 10
1266.213566
 20
175.939395
  0
VERTEX
  8
GLIDE_PLANFORM
  6
CONTINUOUS
 10
1270.222491
 20
175.251337
  0
VERTEX
  8
GLIDE_PLANFORM
  6
CONTINUOUS
 10
1274.199494
 20
174.557658
  0
VERTEX
  8
GLIDE_PLANFORM
  6
CONTINUOUS
 10
1278.144276
 20
173.858336
  0
VERTEX
  8
GLIDE_PLANFORM
  6
CONTINUOUS
 10
1282.056539
 20
173.153348
  0
VERTEX
  8
GLIDE_PLANFORM
  6
CONTINUOUS
 10
1285.935981
 20
172.442674
  0
VERTEX
  8
GLIDE_PLANFORM
  6
CONTINUOUS
 10
1292.526226
 20
171.207849
  0
VERTEX
  8
GLIDE_PLANFORM
  6
CONTINUOUS
 10
1299.017112
 20
169.956044
  0
VERTEX
  8
GLIDE_PLANFORM
  6
CONTINUOUS
 10
1305.40712
 20
168.687144
  0
VERTEX
  8
GLIDE_PLANFORM
  6
CONTINUOUS
 10
1311.694729
 20
167.401038
  0
VERTEX
  8
GLIDE_PLANFORM
  6
CONTINUOUS
 10
1317.878419
 20
166.097612
  0
VERTEX
  8
GLIDE_PLANFORM
  6
CONTINUOUS
 10
1323.956668
 20
164.776753
  0
VERTEX
  8
GLIDE_PLANFORM
  6
CONTINUOUS
 10
1329.927956
 20
163.438346
  0
VERTEX
  8
GLIDE_PLANFORM
  6
CONTINUOUS
 10
1335.790762
 20
162.08228
  0
VERTEX
  8
GLIDE_PLANFORM
  6
CONTINUOUS
 10
1341.543567
 20
160.708441
  0
VERTEX
  8
GLIDE_PLANFORM
  6
CONTINUOUS
 10
1345.609598
 20
159.709952
  0
VERTEX
  8
GLIDE_PLANFORM
  6
CONTINUOUS
 10
1349.617452
 20
158.702181
  0
VERTEX
  8
GLIDE_PLANFORM
  6
CONTINUOUS
 10
1353.566563
 20
157.685086
  0
VERTEX
  8
GLIDE_PLANFORM
  6
CONTINUOUS
 10
1357.456368
 20
156.658625
  0
VERTEX
  8
GLIDE_PLANFORM
  6
CONTINUOUS
 10
1361.286301
 20
155.622755
  0
VERTEX
  8
GLIDE_PLANFORM
  6
CONTINUOUS
 10
1365.055799
 20
154.577435
  0
VERTEX
  8
GLIDE_PLANFORM
  6
CONTINUOUS
 10
1368.764296
 20
153.522622
  0
VERTEX
  8
GLIDE_PLANFORM
  6
CONTINUOUS
 10
1372.411227
 20
152.458275
  0
VERTEX
  8
GLIDE_PLANFORM
  6
CONTINUOUS
 10
1375.996029
 20
151.384351
  0
VERTEX
  8
GLIDE_PLANFORM
  6
CONTINUOUS
 10
1378.533913
 20
150.60653
  0
VERTEX
  8
GLIDE_PLANFORM
  6
CONTINUOUS
 10
1381.0392
 20
149.823724
  0
VERTEX
  8
GLIDE_PLANFORM
  6
CONTINUOUS
 10
1383.511679
 20
149.035918
  0
VERTEX
  8
GLIDE_PLANFORM
  6
CONTINUOUS
 10
1385.951141
 20
148.243096
  0
VERTEX
  8
GLIDE_PLANFORM
  6
CONTINUOUS
 10
1388.357376
 20
147.445242
  0
VERTEX
  8
GLIDE_PLANFORM
  6
CONTINUOUS
 10
1390.730175
 20
146.642341
  0
VERTEX
  8
GLIDE_PLANFORM
  6
CONTINUOUS
 10
1393.069328
 20
145.834378
  0
VERTEX
  8
GLIDE_PLANFORM
  6
CONTINUOUS
 10
1395.374626
 20
145.021337
  0
VERTEX
  8
GLIDE_PLANFORM
  6
CONTINUOUS
 10
1397.645858
 20
144.203201
  0
VERTEX
  8
GLIDE_PLANFORM
  6
CONTINUOUS
 10
1400.850653
 20
143.018176
  0
VERTEX
  8
GLIDE_PLANFORM
  6
CONTINUOUS
 10
1403.983999
 20
141.822546
  0
VERTEX
  8
GLIDE_PLANFORM
  6
CONTINUOUS
 10
1407.045274
 20
140.616264
  0
VERTEX
  8
GLIDE_PLANFORM
  6
CONTINUOUS
 10
1410.033855
 20
139.399286
  0
VERTEX
  8
GLIDE_PLANFORM
  6
CONTINUOUS
 10
1412.949118
 20
138.171563
  0
VERTEX
  8
GLIDE_PLANFORM
  6
CONTINUOUS
 10
1415.790443
 20
136.933051
  0
VERTEX
  8
GLIDE_PLANFORM
  6
CONTINUOUS
 10
1418.557204
 20
135.683701
  0
VERTEX
  8
GLIDE_PLANFORM
  6
CONTINUOUS
 10
1421.248781
 20
134.423469
  0
VERTEX
  8
GLIDE_PLANFORM
  6
CONTINUOUS
 10
1423.86455
 20
133.152307
  0
VERTEX
  8
GLIDE_PLANFORM
  6
CONTINUOUS
 10
1426.090672
 20
132.031038
  0
VERTEX
  8
GLIDE_PLANFORM
  6
CONTINUOUS
 10
1428.25786
 20
130.901336
  0
VERTEX
  8
GLIDE_PLANFORM
  6
CONTINUOUS
 10
1430.365696
 20
129.763167
  0
VERTEX
  8
GLIDE_PLANFORM
  6
CONTINUOUS
 10
1432.413763
 20
128.616502
  0
VERTEX
  8
GLIDE_PLANFORM
  6
CONTINUOUS
 10
1434.401644
 20
127.46131
  0
VERTEX
  8
GLIDE_PLANFORM
  6
CONTINUOUS
 10
1436.328922
 20
126.297559
  0
VERTEX
  8
GLIDE_PLANFORM
  6
CONTINUOUS
 10
1438.19518
 20
125.125218
  0
VERTEX
  8
GLIDE_PLANFORM
  6
CONTINUOUS
 10
1440.0
 20
123.944256
  0
SEQEND
  8
GLIDE_PLANFORM
  6
CONTINUOUS
  0
POLYLINE
  8
GLIDE_PLANFORM
  6
CONTINUOUS
 66
     1
  0
VERTEX
  8
GLIDE_PLANFORM
  6
CONTINUOUS
 10
0.0
 20
0.0
  0
VERTEX
  8
GLIDE_PLANFORM
  6
CONTINUOUS
 10
3.140013
 20
0.041385
  0
VERTEX
  8
GLIDE_PLANFORM
  6
CONTINUOUS
 10
6.344827
 20
0.083864
  0
VERTEX
  8
GLIDE_PLANFORM
  6
CONTINUOUS
 10
9.613905
 20
0.127444
  0
VERTEX
  8
GLIDE_PLANFORM
  6
CONTINUOUS
 10
12.946714
 20
0.172133
  0
VERTEX
  8
GLIDE_PLANFORM
  6
CONTINUOUS
 10
16.342717
 20
0.217937
  0
VERTEX
  8
GLIDE_PLANFORM
  6
CONTINUOUS
 10
19.801379
 20
0.264864
  0
VERTEX
  8
GLIDE_PLANFORM
  6
CONTINUOUS
 10
23.322166
 20
0.312922
  0
VERTEX
  8
GLIDE_PLANFORM
  6
CONTINUOUS
 10
26.904543
 20
0.362117
  0
VERTEX
  8
GLIDE_PLANFORM
  6
CONTINUOUS
 10
30.547973
 20
0.412457
  0
VERTEX
  8
GLIDE_PLANFORM
  6
CONTINUOUS
 10
34.120685
 20
0.46212
  0
VERTEX
  8
GLIDE_PLANFORM
  6
CONTINUOUS
 10
37.749255
 20
0.512861
  0
VERTEX
  8
GLIDE_PLANFORM
  6
CONTINUOUS
 10
41.433202
 20
0.564689
  0
VERTEX
  8
GLIDE_PLANFORM
  6
CONTINUOUS
 10
45.172045
 20
0.617609
  0
VERTEX
  8
GLIDE_PLANFORM
  6
CONTINUOUS
 10
48.965304
 20
0.671627
  0
VERTEX
  8
GLIDE_PLANFORM
  6
CONTINUOUS
 10
52.812499
 20
0.726751
  0
VERTEX
  8
GLIDE_PLANFORM
  6
CONTINUOUS
 10
56.713147
 20
0.782987
  0
VERTEX
  8
GLIDE_PLANFORM
  6
CONTINUOUS
 10
60.66677
 20
0.840341
  0
VERTEX
  8
GLIDE_PLANFORM
  6
CONTINUOUS
 10
64.672885
 20
0.898821
  0
VERTEX
  8
GLIDE_PLANFORM
  6
CONTINUOUS
 10
68.587468
 20
0.956317
  0
VERTEX
  8
GLIDE_PLANFORM
  6
CONTINUOUS
 10
72.550038
 20
1.014872
  0
VERTEX
  8
GLIDE_PLANFORM
  6
CONTINUOUS
 10
76.560165
 20
1.074493
  0
VERTEX
  8
GLIDE_PLANFORM
  6
CONTINUOUS
 10
80.617415
 20
1.135184
  0
VERTEX
  8
GLIDE_PLANFORM
  6
CONTINUOUS
 10
84.721359
 20
1.196953
  0
VERTEX
  8
GLIDE_PLANFORM
  6
CONTINUOUS
 10
88.871563
 20
1.259805
  0
VERTEX
  8
GLIDE_PLANFORM
  6
CONTINUOUS
 10
93.067596
 20
1.323745
  0
VERTEX
  8
GLIDE_PLANFORM
  6
CONTINUOUS
 10
97.309027
 20
1.38878
  0
VERTEX
  8
GLIDE_PLANFORM
  6
CONTINUOUS
 10
101.595423
 20
1.454916
  0
VERTEX
  8
GLIDE_PLANFORM
  6
CONTINUOUS
 10
105.773344
 20
1.519775
  0
VERTEX
  8
GLIDE_PLANFORM
  6
CONTINUOUS
 10
109.992334
 20
1.585669
  0
VERTEX
  8
GLIDE_PLANFORM
  6
CONTINUOUS
 10
114.252006
 20
1.652604
  0
VERTEX
  8
GLIDE_PLANFORM
  6
CONTINUOUS
 10
118.551973
 20
1.720585
  0
VERTEX
  8
GLIDE_PLANFORM
  6
CONTINUOUS
 10
122.891846
 20
1.789617
  0
VERTEX
  8
GLIDE_PLANFORM
  6
CONTINUOUS
 10
127.271238
 20
1.859705
  0
VERTEX
  8
GLIDE_PLANFORM
  6
CONTINUOUS
 10
131.68976
 20
1.930855
  0
VERTEX
  8
GLIDE_PLANFORM
  6
CONTINUOUS
 10
136.147026
 20
2.003072
  0
VERTEX
  8
GLIDE_PLANFORM
  6
CONTINUOUS
 10
140.642647
 20
2.076361
  0
VERTEX
  8
GLIDE_PLANFORM
  6
CONTINUOUS
 10
145.016212
 20
2.148095
  0
VERTEX
  8
GLIDE_PLANFORM
  6
CONTINUOUS
 10
149.424774
 20
2.220837
  0
VERTEX
  8
GLIDE_PLANFORM
  6
CONTINUOUS
 10
153.867984
 20
2.294592
  0
VERTEX
  8
GLIDE_PLANFORM
  6
CONTINUOUS
 10
158.345494
 20
2.369364
  0
VERTEX
  8
GLIDE_PLANFORM
  6
CONTINUOUS
 10
162.856955
 20
2.445158
  0
VERTEX
  8
GLIDE_PLANFORM
  6
CONTINUOUS
 10
167.40202
 20
2.521979
  0
VERTEX
  8
GLIDE_PLANFORM
  6
CONTINUOUS
 10
171.98034
 20
2.599832
  0
VERTEX
  8
GLIDE_PLANFORM
  6
CONTINUOUS
 10
176.591566
 20
2.678721
  0
VERTEX
  8
GLIDE_PLANFORM
  6
CONTINUOUS
 10
181.235351
 20
2.758651
  0
VERTEX
  8
GLIDE_PLANFORM
  6
CONTINUOUS
 10
190.287147
 20
2.915851
  0
VERTEX
  8
GLIDE_PLANFORM
  6
CONTINUOUS
 10
199.456381
 20
3.076981
  0
VERTEX
  8
GLIDE_PLANFORM
  6
CONTINUOUS
 10
208.74055
 20
3.242072
  0
VERTEX
  8
GLIDE_PLANFORM
  6
CONTINUOUS
 10
218.137151
 20
3.411161
  0
VERTEX
  8
GLIDE_PLANFORM
  6
CONTINUOUS
 10
227.643681
 20
3.584281
  0
VERTEX
  8
GLIDE_PLANFORM
  6
CONTINUOUS
 10
237.257637
 20
3.761466
  0
VERTEX
  8
GLIDE_PLANFORM
  6
CONTINUOUS
 10
246.976517
 20
3.94275
  0
VERTEX
  8
GLIDE_PLANFORM
  6
CONTINUOUS
 10
256.797818
 20
4.128168
  0
VERTEX
  8
GLIDE_PLANFORM
  6
CONTINUOUS
 10
266.719037
 20
4.317753
  0
VERTEX
  8
GLIDE_PLANFORM
  6
CONTINUOUS
 10
276.030104
 20
4.497776
  0
VERTEX
  8
GLIDE_PLANFORM
  6
CONTINUOUS
 10
285.423359
 20
4.681458
  0
VERTEX
  8
GLIDE_PLANFORM
  6
CONTINUOUS
 10
294.896788
 20
4.868826
  0
VERTEX
  8
GLIDE_PLANFORM
  6
CONTINUOUS
 10
304.448382
 20
5.059908
  0
VERTEX
  8
GLIDE_PLANFORM
  6
CONTINUOUS
 10
314.07613
 20
5.254731
  0
VERTEX
  8
GLIDE_PLANFORM
  6
CONTINUOUS
 10
323.778019
 20
5.453323
  0
VERTEX
  8
GLIDE_PLANFORM
  6
CONTINUOUS
 10
333.55204
 20
5.65571
  0
VERTEX
  8
GLIDE_PLANFORM
  6
CONTINUOUS
 10
343.396181
 20
5.861922
  0
VERTEX
  8
GLIDE_PLANFORM
  6
CONTINUOUS
 10
353.30843
 20
6.071984
  0
VERTEX
  8
GLIDE_PLANFORM
  6
CONTINUOUS
 10
362.583056
 20
6.270754
  0
VERTEX
  8
GLIDE_PLANFORM
  6
CONTINUOUS
 10
371.913196
 20
6.472899
  0
VERTEX
  8
GLIDE_PLANFORM
  6
CONTINUOUS
 10
381.297233
 20
6.678439
  0
VERTEX
  8
GLIDE_PLANFORM
  6
CONTINUOUS
 10
390.733552
 20
6.887398
  0
VERTEX
  8
GLIDE_PLANFORM
  6
CONTINUOUS
 10
400.220536
 20
7.099797
  0
VERTEX
  8
GLIDE_PLANFORM
  6
CONTINUOUS
 10
409.756569
 20
7.315658
  0
VERTEX
  8
GLIDE_PLANFORM
  6
CONTINUOUS
 10
419.340036
 20
7.535003
  0
VERTEX
  8
GLIDE_PLANFORM
  6
CONTINUOUS
 10
428.96932
 20
7.757855
  0
VERTEX
  8
GLIDE_PLANFORM
  6
CONTINUOUS
 10
438.642805
 20
7.984235
  0
VERTEX
  8
GLIDE_PLANFORM
  6
CONTINUOUS
 10
447.674356
 20
8.197882
  0
VERTEX
  8
GLIDE_PLANFORM
  6
CONTINUOUS
 10
456.741416
 20
8.414615
  0
VERTEX
  8
GLIDE_PLANFORM
  6
CONTINUOUS
 10
465.842686
 20
8.634453
  0
VERTEX
  8
GLIDE_PLANFORM
  6
CONTINUOUS
 10
474.976868
 20
8.857412
  0
VERTEX
  8
GLIDE_PLANFORM
  6
CONTINUOUS
 10
484.142662
 20
9.08351
  0
VERTEX
  8
GLIDE_PLANFORM
  6
CONTINUOUS
 10
493.338771
 20
9.312766
  0
VERTEX
  8
GLIDE_PLANFORM
  6
CONTINUOUS
 10
511.816738
 20
9.780819
  0
VERTEX
  8
GLIDE_PLANFORM
  6
CONTINUOUS
 10
530.400379
 20
10.261714
  0
VERTEX
  8
GLIDE_PLANFORM
  6
CONTINUOUS
 10
549.079308
 20
10.755591
  0
VERTEX
  8
GLIDE_PLANFORM
  6
CONTINUOUS
 10
566.080699
 20
11.2145
  0
VERTEX
  8
GLIDE_PLANFORM
  6
CONTINUOUS
 10
583.144085
 20
11.684293
  0
VERTEX
  8
GLIDE_PLANFORM
  6
CONTINUOUS
 10
600.261732
 20
12.165076
  0
VERTEX
  8
GLIDE_PLANFORM
  6
CONTINUOUS
 10
617.425909
 20
12.656954
  0
VERTEX
  8
GLIDE_PLANFORM
  6
CONTINUOUS
 10
634.628884
 20
13.160033
  0
VERTEX
  8
GLIDE_PLANFORM
  6
CONTINUOUS
 10
651.862924
 20
13.674417
  0
VERTEX
  8
GLIDE_PLANFORM
  6
CONTINUOUS
 10
686.393274
 20
14.737525
  0
VERTEX
  8
GLIDE_PLANFORM
  6
CONTINUOUS
 10
720.955102
 20
15.847122
  0
VERTEX
  8
GLIDE_PLANFORM
  6
CONTINUOUS
 10
755.486551
 20
17.004051
  0
VERTEX
  8
GLIDE_PLANFORM
  6
CONTINUOUS
 10
783.478286
 20
17.97949
  0
VERTEX
  8
GLIDE_PLANFORM
  6
CONTINUOUS
 10
797.440951
 20
18.479276
  0
VERTEX
  8
GLIDE_PLANFORM
  6
CONTINUOUS
 10
811.375952
 20
18.987184
  0
VERTEX
  8
GLIDE_PLANFORM
  6
CONTINUOUS
 10
825.279142
 20
19.503268
  0
VERTEX
  8
GLIDE_PLANFORM
  6
CONTINUOUS
 10
839.146373
 20
20.027586
  0
VERTEX
  8
GLIDE_PLANFORM
  6
CONTINUOUS
 10
852.973498
 20
20.560193
  0
VERTEX
  8
GLIDE_PLANFORM
  6
CONTINUOUS
 10
866.75637
 20
21.101148
  0
VERTEX
  8
GLIDE_PLANFORM
  6
CONTINUOUS
 10
880.490841
 20
21.650505
  0
VERTEX
  8
GLIDE_PLANFORM
  6
CONTINUOUS
 10
894.172764
 20
22.208322
  0
VERTEX
  8
GLIDE_PLANFORM
  6
CONTINUOUS
 10
905.672955
 20
22.685603
  0
VERTEX
  8
GLIDE_PLANFORM
  6
CONTINUOUS
 10
917.130293
 20
23.168979
  0
VERTEX
  8
GLIDE_PLANFORM
  6
CONTINUOUS
 10
928.542287
 20
23.658487
  0
VERTEX
  8
GLIDE_PLANFORM
  6
CONTINUOUS
 10
939.906444
 20
24.154159
  0
VERTEX
  8
GLIDE_PLANFORM
  6
CONTINUOUS
 10
951.220275
 20
24.65603
  0
VERTEX
  8
GLIDE_PLANFORM
  6
CONTINUOUS
 10
962.481288
 20
25.164134
  0
VERTEX
  8
GLIDE_PLANFORM
  6
CONTINUOUS
 10
973.686992
 20
25.678504
  0
VERTEX
  8
GLIDE_PLANFORM
  6
CONTINUOUS
 10
984.834895
 20
26.199175
  0
VERTEX
  8
GLIDE_PLANFORM
  6
CONTINUOUS
 10
995.922506
 20
26.72618
  0
VERTEX
  8
GLIDE_PLANFORM
  6
CONTINUOUS
 10
1005.400855
 20
27.184162
  0
VERTEX
  8
GLIDE_PLANFORM
  6
CONTINUOUS
 10
1014.831257
 20
27.646869
  0
VERTEX
  8
GLIDE_PLANFORM
  6
CONTINUOUS
 10
1024.212129
 20
28.114322
  0
VERTEX
  8
GLIDE_PLANFORM
  6
CONTINUOUS
 10
1033.541892
 20
28.586543
  0
VERTEX
  8
GLIDE_PLANFORM
  6
CONTINUOUS
 10
1042.818963
 20
29.063554
  0
VERTEX
  8
GLIDE_PLANFORM
  6
CONTINUOUS
 10
1052.041763
 20
29.545375
  0
VERTEX
  8
GLIDE_PLANFORM
  6
CONTINUOUS
 10
1061.208709
 20
30.032029
  0
VERTEX
  8
GLIDE_PLANFORM
  6
CONTINUOUS
 10
1070.318221
 20
30.523538
  0
VERTEX
  8
GLIDE_PLANFORM
  6
CONTINUOUS
 10
1079.368718
 20
31.019922
  0
VERTEX
  8
GLIDE_PLANFORM
  6
CONTINUOUS
 10
1087.098134
 20
31.450414
  0
VERTEX
  8
GLIDE_PLANFORM
  6
CONTINUOUS
 10
1094.781795
 20
31.884537
  0
VERTEX
  8
GLIDE_PLANFORM
  6
CONTINUOUS
 10
1102.418697
 20
32.322303
  0
VERTEX
  8
GLIDE_PLANFORM
  6
CONTINUOUS
 10
1110.007836
 20
32.763727
  0
VERTEX
  8
GLIDE_PLANFORM
  6
CONTINUOUS
 10
1117.54821
 20
33.208823
  0
VERTEX
  8
GLIDE_PLANFORM
  6
CONTINUOUS
 10
1125.038815
 20
33.657604
  0
VERTEX
  8
GLIDE_PLANFORM
  6
CONTINUOUS
 10
1132.478646
 20
34.110084
  0
VERTEX
  8
GLIDE_PLANFORM
  6
CONTINUOUS
 10
1139.866701
 20
34.566277
  0
VERTEX
  8
GLIDE_PLANFORM
  6
CONTINUOUS
 10
1147.201977
 20
35.026195
  0
VERTEX
  8
GLIDE_PLANFORM
  6
CONTINUOUS
 10
1153.462797
 20
35.424425
  0
VERTEX
  8
GLIDE_PLANFORM
  6
CONTINUOUS
 10
1159.68326
 20
35.825426
  0
VERTEX
  8
GLIDE_PLANFORM
  6
CONTINUOUS
 10
1165.862729
 20
36.229206
  0
VERTEX
  8
GLIDE_PLANFORM
  6
CONTINUOUS
 10
1172.000567
 20
36.635774
  0
VERTEX
  8
GLIDE_PLANFORM
  6
CONTINUOUS
 10
1178.096137
 20
37.045139
  0
VERTEX
  8
GLIDE_PLANFORM
  6
CONTINUOUS
 10
1184.148803
 20
37.457309
  0
VERTEX
  8
GLIDE_PLANFORM
  6
CONTINUOUS
 10
1190.157927
 20
37.872294
  0
VERTEX
  8
GLIDE_PLANFORM
  6
CONTINUOUS
 10
1196.122873
 20
38.290101
  0
VERTEX
  8
GLIDE_PLANFORM
  6
CONTINUOUS
 10
1202.043004
 20
38.710739
  0
VERTEX
  8
GLIDE_PLANFORM
  6
CONTINUOUS
 10
1207.094327
 20
39.074494
  0
VERTEX
  8
GLIDE_PLANFORM
  6
CONTINUOUS
 10
1212.111677
 20
39.440353
  0
VERTEX
  8
GLIDE_PLANFORM
  6
CONTINUOUS
 10
1217.094652
 20
39.808319
  0
VERTEX
  8
GLIDE_PLANFORM
  6
CONTINUOUS
 10
1222.042846
 20
40.1784
  0
VERTEX
  8
GLIDE_PLANFORM
  6
CONTINUOUS
 10
1226.955857
 20
40.5506
  0
VERTEX
  8
GLIDE_PLANFORM
  6
CONTINUOUS
 10
1231.833279
 20
40.924926
  0
VERTEX
  8
GLIDE_PLANFORM
  6
CONTINUOUS
 10
1236.674708
 20
41.301382
  0
VERTEX
  8
GLIDE_PLANFORM
  6
CONTINUOUS
 10
1241.47974
 20
41.679974
  0
VERTEX
  8
GLIDE_PLANFORM
  6
CONTINUOUS
 10
1246.247971
 20
42.060707
  0
VERTEX
  8
GLIDE_PLANFORM
  6
CONTINUOUS
 10
1254.356214
 20
42.720113
  0
VERTEX
  8
GLIDE_PLANFORM
  6
CONTINUOUS
 10
1262.352497
 20
43.385889
  0
VERTEX
  8
GLIDE_PLANFORM
  6
CONTINUOUS
 10
1270.234767
 20
44.058064
  0
VERTEX
  8
GLIDE_PLANFORM
  6
CONTINUOUS
 10
1278.000971
 20
44.736666
  0
VERTEX
  8
GLIDE_PLANFORM
  6
CONTINUOUS
 10
1281.839908
 20
45.078386
  0
VERTEX
  8
GLIDE_PLANFORM
  6
CONTINUOUS
 10
1285.649059
 20
45.421723
  0
VERTEX
  8
GLIDE_PLANFORM
  6
CONTINUOUS
 10
1289.428167
 20
45.76668
  0
VERTEX
  8
GLIDE_PLANFORM
  6
CONTINUOUS
 10
1293.176976
 20
46.113262
  0
VERTEX
  8
GLIDE_PLANFORM
  6
CONTINUOUS
 10
1296.89523
 20
46.461471
  0
VERTEX
  8
GLIDE_PLANFORM
  6
CONTINUOUS
 10
1302.757407
 20
47.019803
  0
VERTEX
  8
GLIDE_PLANFORM
  6
CONTINUOUS
 10
1308.540282
 20
47.582292
  0
VERTEX
  8
GLIDE_PLANFORM
  6
CONTINUOUS
 10
1314.242816
 20
48.148952
  0
VERTEX
  8
GLIDE_PLANFORM
  6
CONTINUOUS
 10
1319.86397
 20
48.719799
  0
VERTEX
  8
GLIDE_PLANFORM
  6
CONTINUOUS
 10
1325.402707
 20
49.294845
  0
VERTEX
  8
GLIDE_PLANFORM
  6
CONTINUOUS
 10
1330.857988
 20
49.874105
  0
VERTEX
  8
GLIDE_PLANFORM
  6
CONTINUOUS
 10
1336.228773
 20
50.457593
  0
VERTEX
  8
GLIDE_PLANFORM
  6
CONTINUOUS
 10
1341.514026
 20
51.045323
  0
VERTEX
  8
GLIDE_PLANFORM
  6
CONTINUOUS
 10
1346.712707
 20
51.63731
  0
VERTEX
  8
GLIDE_PLANFORM
  6
CONTINUOUS
 10
1350.395204
 20
52.065438
  0
VERTEX
  8
GLIDE_PLANFORM
  6
CONTINUOUS
 10
1354.032056
 20
52.495777
  0
VERTEX
  8
GLIDE_PLANFORM
  6
CONTINUOUS
 10
1357.622877
 20
52.928333
  0
VERTEX
  8
GLIDE_PLANFORM
  6
CONTINUOUS
 10
1361.167282
 20
53.363111
  0
VERTEX
  8
GLIDE_PLANFORM
  6
CONTINUOUS
 10
1364.664884
 20
53.800116
  0
VERTEX
  8
GLIDE_PLANFORM
  6
CONTINUOUS
 10
1368.115299
 20
54.239354
  0
VERTEX
  8
GLIDE_PLANFORM
  6
CONTINUOUS
 10
1371.518141
 20
54.68083
  0
VERTEX
  8
GLIDE_PLANFORM
  6
CONTINUOUS
 10
1374.873024
 20
55.124548
  0
VERTEX
  8
GLIDE_PLANFORM
  6
CONTINUOUS
 10
1378.179563
 20
55.570515
  0
VERTEX
  8
GLIDE_PLANFORM
  6
CONTINUOUS
 10
1382.847241
 20
56.215541
  0
VERTEX
  8
GLIDE_PLANFORM
  6
CONTINUOUS
 10
1387.413078
 20
56.86524
  0
VERTEX
  8
GLIDE_PLANFORM
  6
CONTINUOUS
 10
1391.875927
 20
57.519627
  0
VERTEX
  8
GLIDE_PLANFORM
  6
CONTINUOUS
 10
1396.234644
 20
58.178718
  0
VERTEX
  8
GLIDE_PLANFORM
  6
CONTINUOUS
 10
1400.488084
 20
58.842528
  0
VERTEX
  8
GLIDE_PLANFORM
  6
CONTINUOUS
 10
1404.635101
 20
59.511072
  0
VERTEX
  8
GLIDE_PLANFORM
  6
CONTINUOUS
 10
1408.674548
 20
60.184367
  0
VERTEX
  8
GLIDE_PLANFORM
  6
CONTINUOUS
 10
1412.605282
 20
60.862428
  0
VERTEX
  8
GLIDE_PLANFORM
  6
CONTINUOUS
 10
1416.426157
 20
61.54527
  0
VERTEX
  8
GLIDE_PLANFORM
  6
CONTINUOUS
 10
1419.678403
 20
62.146692
  0
VERTEX
  8
GLIDE_PLANFORM
  6
CONTINUOUS
 10
1422.844893
 20
62.751798
  0
VERTEX
  8
GLIDE_PLANFORM
  6
CONTINUOUS
 10
1425.92486
 20
63.360597
  0
VERTEX
  8
GLIDE_PLANFORM
  6
CONTINUOUS
 10
1428.917538
 20
63.9731
  0
VERTEX
  8
GLIDE_PLANFORM
  6
CONTINUOUS
 10
1431.822158
 20
64.589318
  0
VERTEX
  8
GLIDE_PLANFORM
  6
CONTINUOUS
 10
1434.637953
 20
65.209262
  0
VERTEX
  8
GLIDE_PLANFORM
  6
CONTINUOUS
 10
1437.364156
 20
65.832941
  0
VERTEX
  8
GLIDE_PLANFORM
  6
CONTINUOUS
 10
1440.0
 20
66.460366
  0
SEQEND
  8
GLIDE_PLANFORM
  6
CONTINUOUS
  0
LINE
  8
GLIDE_PLANFORM
  6
CONTINUOUS
 10
1470.0
 20
80.860332
 11
1470.0
 21
83.860332
  0
POLYLINE
  8
GLIDE_PLANFORM
  6
CONTINUOUS
 66
     1
  0
VERTEX
  8
GLIDE_PLANFORM
  6
CONTINUOUS
 10
1440.0
 20
66.460366
  0
VERTEX
  8
GLIDE_PLANFORM
  6
CONTINUOUS
 10
1440.720413
 20
66.639237
  0
VERTEX
  8
GLIDE_PLANFORM
  6
CONTINUOUS
 10
1441.52509
 20
66.846693
  0
VERTEX
  8
GLIDE_PLANFORM
  6
CONTINUOUS
 10
1442.407003
 20
67.081624
  0
VERTEX
  8
GLIDE_PLANFORM
  6
CONTINUOUS
 10
1443.359128
 20
67.34292
  0
VERTEX
  8
GLIDE_PLANFORM
  6
CONTINUOUS
 10
1444.374439
 20
67.629473
  0
VERTEX
  8
GLIDE_PLANFORM
  6
CONTINUOUS
 10
1445.44591
 20
67.940173
  0
VERTEX
  8
GLIDE_PLANFORM
  6
CONTINUOUS
 10
1446.566515
 20
68.273911
  0
VERTEX
  8
GLIDE_PLANFORM
  6
CONTINUOUS
 10
1447.729229
 20
68.629579
  0
VERTEX
  8
GLIDE_PLANFORM
  6
CONTINUOUS
 10
1448.927026
 20
69.006066
  0
VERTEX
  8
GLIDE_PLANFORM
  6
CONTINUOUS
 10
1450.696218
 20
69.581514
  0
VERTEX
  8
GLIDE_PLANFORM
  6
CONTINUOUS
 10
1452.502518
 20
70.194398
  0
VERTEX
  8
GLIDE_PLANFORM
  6
CONTINUOUS
 10
1454.325056
 20
70.841421
  0
VERTEX
  8
GLIDE_PLANFORM
  6
CONTINUOUS
 10
1456.142963
 20
71.51929
  0
VERTEX
  8
GLIDE_PLANFORM
  6
CONTINUOUS
 10
1457.935368
 20
72.22471
  0
VERTEX
  8
GLIDE_PLANFORM
  6
CONTINUOUS
 10
1459.681401
 20
72.954385
  0
VERTEX
  8
GLIDE_PLANFORM
  6
CONTINUOUS
 10
1461.360194
 20
73.705021
  0
VERTEX
  8
GLIDE_PLANFORM
  6
CONTINUOUS
 10
1462.950877
 20
74.473323
  0
VERTEX
  8
GLIDE_PLANFORM
  6
CONTINUOUS
 10
1463.706655
 20
74.863069
  0
VERTEX
  8
GLIDE_PLANFORM
  6
CONTINUOUS
 10
1464.388133
 20
75.231353
  0
VERTEX
  8
GLIDE_PLANFORM
  6
CONTINUOUS
 10
1465.041223
 20
75.602093
  0
VERTEX
  8
GLIDE_PLANFORM
  6
CONTINUOUS
 10
1465.663775
 20
75.97495
  0
VERTEX
  8
GLIDE_PLANFORM
  6
CONTINUOUS
 10
1466.25364
 20
76.349585
  0
VERTEX
  8
GLIDE_PLANFORM
  6
CONTINUOUS
 10
1466.808669
 20
76.725658
  0
VERTEX
  8
GLIDE_PLANFORM
  6
CONTINUOUS
 10
1467.326711
 20
77.10283
  0
VERTEX
  8
GLIDE_PLANFORM
  6
CONTINUOUS
 10
1467.805618
 20
77.480761
  0
VERTEX
  8
GLIDE_PLANFORM
  6
CONTINUOUS
 10
1468.243239
 20
77.859113
  0
VERTEX
  8
GLIDE_PLANFORM
  6
CONTINUOUS
 10
1468.637425
 20
78.237546
  0
VERTEX
  8
GLIDE_PLANFORM
  6
CONTINUOUS
 10
1468.945019
 20
78.568474
  0
VERTEX
  8
GLIDE_PLANFORM
  6
CONTINUOUS
 10
1469.216272
 20
78.898977
  0
VERTEX
  8
GLIDE_PLANFORM
  6
CONTINUOUS
 10
1469.449744
 20
79.228827
  0
VERTEX
  8
GLIDE_PLANFORM
  6
CONTINUOUS
 10
1469.643996
 20
79.557797
  0
VERTEX
  8
GLIDE_PLANFORM
  6
CONTINUOUS
 10
1469.797588
 20
79.88566
  0
VERTEX
  8
GLIDE_PLANFORM
  6
CONTINUOUS
 10
1469.909079
 20
80.212188
  0
VERTEX
  8
GLIDE_PLANFORM
  6
CONTINUOUS
 10
1469.97703
 20
80.537155
  0
VERTEX
  8
GLIDE_PLANFORM
  6
CONTINUOUS
 10
1470.0
 20
80.860332
  0
SEQEND
  8
GLIDE_PLANFORM
  6
CONTINUOUS
  0
POLYLINE
  8
GLIDE_PLANFORM
  6
CONTINUOUS
 66
     1
  0
VERTEX
  8
GLIDE_PLANFORM
  6
CONTINUOUS
 10
1470.0
 20
83.860332
  0
VERTEX
  8
GLIDE_PLANFORM
  6
CONTINUOUS
 10
1469.984189
 20
84.732637
  0
VERTEX
  8
GLIDE_PLANFORM
  6
CONTINUOUS
 10
1469.937293
 20
85.600784
  0
VERTEX
  8
GLIDE_PLANFORM
  6
CONTINUOUS
 10
1469.860122
 20
86.464595
  0
VERTEX
  8
GLIDE_PLANFORM
  6
CONTINUOUS
 10
1469.753483
 20
87.323895
  0
VERTEX
  8
GLIDE_PLANFORM
  6
CONTINUOUS
 10
1469.455036
 20
89.028252
  0
VERTEX
  8
GLIDE_PLANFORM
  6
CONTINUOUS
 10
1469.04842
 20
90.712442
  0
VERTEX
  8
GLIDE_PLANFORM
  6
CONTINUOUS
 10
1468.5401
 20
92.375052
  0
VERTEX
  8
GLIDE_PLANFORM
  6
CONTINUOUS
 10
1467.936542
 20
94.014668
  0
VERTEX
  8
GLIDE_PLANFORM
  6
CONTINUOUS
 10
1467.244214
 20
95.629877
  0
VERTEX
  8
GLIDE_PLANFORM
  6
CONTINUOUS
 10
1466.645738
 20
96.873865
  0
VERTEX
  8
GLIDE_PLANFORM
  6
CONTINUOUS
 10
1466.00011
 20
98.10142
  0
VERTEX
  8
GLIDE_PLANFORM
  6
CONTINUOUS
 10
1465.310415
 20
99.311868
  0
VERTEX
  8
GLIDE_PLANFORM
  6
CONTINUOUS
 10
1464.579736
 20
100.504535
  0
VERTEX
  8
GLIDE_PLANFORM
  6
CONTINUOUS
 10
1463.811156
 20
101.678747
  0
VERTEX
  8
GLIDE_PLANFORM
  6
CONTINUOUS
 10
1463.007758
 20
102.833831
  0
VERTEX
  8
GLIDE_PLANFORM
  6
CONTINUOUS
 10
1462.172628
 20
103.969112
  0
VERTEX
  8
GLIDE_PLANFORM
  6
CONTINUOUS
 10
1461.308846
 20
105.083916
  0
VERTEX
  8
GLIDE_PLANFORM
  6
CONTINUOUS
 10
1459.507667
 20
107.249401
  0
VERTEX
  8
GLIDE_PLANFORM
  6
CONTINUOUS
 10
1458.222852
 20
108.686295
  0
VERTEX
  8
GLIDE_PLANFORM
  6
CONTINUOUS
 10
1456.909374
 20
110.078902
  0
VERTEX
  8
GLIDE_PLANFORM
  6
CONTINUOUS
 10
1455.575251
 20
111.425471
  0
VERTEX
  8
GLIDE_PLANFORM
  6
CONTINUOUS
 10
1454.228496
 20
112.724248
  0
VERTEX
  8
GLIDE_PLANFORM
  6
CONTINUOUS
 10
1452.877127
 20
113.973483
  0
VERTEX
  8
GLIDE_PLANFORM
  6
CONTINUOUS
 10
1451.529159
 20
115.171424
  0
VERTEX
  8
GLIDE_PLANFORM
  6
CONTINUOUS
 10
1450.192607
 20
116.316319
  0
VERTEX
  8
GLIDE_PLANFORM
  6
CONTINUOUS
 10
1448.875488
 20
117.406416
  0
VERTEX
  8
GLIDE_PLANFORM
  6
CONTINUOUS
 10
1447.585817
 20
118.439964
  0
VERTEX
  8
GLIDE_PLANFORM
  6
CONTINUOUS
 10
1446.486173
 20
119.296552
  0
VERTEX
  8
GLIDE_PLANFORM
  6
CONTINUOUS
 10
1445.419051
 20
120.10733
  0
VERTEX
  8
GLIDE_PLANFORM
  6
CONTINUOUS
 10
1444.389821
 20
120.871124
  0
VERTEX
  8
GLIDE_PLANFORM
  6
CONTINUOUS
 10
1443.403853
 20
121.58676
  0
VERTEX
  8
GLIDE_PLANFORM
  6
CONTINUOUS
 10
1442.466517
 20
122.253065
  0
VERTEX
  8
GLIDE_PLANFORM
  6
CONTINUOUS
 10
1441.583183
 20
122.868865
  0
VERTEX
  8
GLIDE_PLANFORM
  6
CONTINUOUS
 10
1440.75922
 20
123.432986
  0
VERTEX
  8
GLIDE_PLANFORM
  6
CONTINUOUS
 10
1440.0
 20
123.944256
  0
SEQEND
  8
GLIDE_PLANFORM
  6
CONTINUOUS
  0
LINE
  8
GLIDE_PLANFORM
  6
CONTINUOUS
 10
0.0
 20
0.0
 11
0.0
 21
230.0
  0
LINE
  8
GLIDE_PLANFORM
  6
CONTINUOUS
 10
0.0
 20
64.4
 11
1470.0
 21
82.360332
  0
LINE
  8
GLIDE_PLANFORM
  6
CONTINUOUS
 10
600.0
 20
71.730748
 11
600.0
 21
12.157725
  0
ENDSEC
  0
EOF
