0
SECTION
2
HEADER
0
ENDSEC
0
SECTION
2
TABLES
0
TABLE
2
LTYPE
0
LTYPE
2
ByBlock
70
0
3

72
65
73
0
40
0.000000
0
LTYPE
2
ByLayer
70
0
3

72
65
73
0
40
0.000000
0
LTYPE
2
Continuous
70
0
3

72
65
73
0
40
0.000000
0
ENDTAB
0
TABLE
2
LAYER
0
LAYER
2
0
70
0
62
7
6
ByBlock
0
LAYER
2
Defpoints
70
0
62
7
6
Continuous
0
LAYER
2
GLIDE_PLANFORM
70
0
62
192
6
Continuous
0
ENDTAB
0
TABLE
2
STYLE
0
STYLE
2
Standard
3
txt
70
0
71
0
40
0.000000
41
1.000000
42
0.000000
50
0.000000
0
ENDTAB
0
TABLE
2
DIMSTYLE
0
DIMSTYLE
2
Standard
70
0
3

4

5

6
CLOSEDFILLED
7
CLOSEDFILLED
40
1.000000
41
2.500000
42
0.625000
43
3.750000
44
1.250000
45
0.000000
46
0.000000
47
0.000000
48
0.000000
140
2.500000
141
2.500000
142
0.000000
143
0.039370
144
1.000000
145
0.000000
146
1.000000
147
0.625000
71
0
72
0
73
0
74
1
75
0
76
0
77
1
78
0
170
0
171
3
172
1
173
1
174
0
175
0
176
0
177
0
178
0
271
2
272
2
273
2
274
3
275
0
280
0
281
0
282
0
283
0
288
0
0
ENDTAB
0
ENDSEC
0
SECTION
2
BLOCKS
0
BLOCK
8
0
2
_CLOSEDFILLED
70
0
10
0.000000
20
0.000000
3
_CLOSEDFILLED
0
SOLID
8
0
10
-1.000000
20
0.166667
30
0.000000
11
-1.000000
21
-0.166667
31
0.000000
12
0.000000
22
0.000000
32
0.000000
13
0.000000
23
0.000000
33
0.000000
0
ENDBLK
0
BLOCK
8
0
2
_CLOSEDBLANK
70
0
10
0.000000
20
0.000000
3
_CLOSEDBLANK
0
LINE
8
0
10
-1.000000
20
0.166667
30
0.000000
11
0.000000
21
0.000000
31
0.000000
0
LINE
8
0
10
0.000000
20
0.000000
30
0.000000
11
-1.000000
21
-0.166667
31
0.000000
0
LINE
8
0
10
-1.000000
20
0.166667
30
0.000000
11
-1.000000
21
-0.166667
31
0.000000
0
ENDBLK
0
BLOCK
8
0
2
_CLOSED
70
0
10
0.000000
20
0.000000
3
_CLOSED
0
LINE
8
0
10
-1.000000
20
0.166667
30
0.000000
11
0.000000
21
0.000000
31
0.000000
0
LINE
8
0
10
0.000000
20
0.000000
30
0.000000
11
-1.000000
21
-0.166667
31
0.000000
0
LINE
8
0
10
-1.000000
20
0.166667
30
0.000000
11
-1.000000
21
-0.166667
31
0.000000
0
LINE
8
0
10
0.000000
20
0.000000
30
0.000000
11
-1.000000
21
0.000000
31
0.000000
0
ENDBLK
0
BLOCK
8
0
2
_DOT
70
0
10
0.000000
20
0.000000
3
_DOT
0
POLYLINE
8
0
70
1
66
 1
10
0.0
20
0.0
30
0.000000
0
VERTEX
8
0
10
0.250000
20
0.000000
30
0.000000
42
1.000000
0
VERTEX
8
0
10
-0.250000
20
0.000000
30
0.000000
42
1.000000
0
SEQEND
8
0
0
LINE
8
0
10
-0.500000
20
0.000000
30
0.000000
11
-1.000000
21
0.000000
31
0.000000
0
ENDBLK
0
BLOCK
8
0
2
_ARCHTICK
70
0
10
0.000000
20
0.000000
3
_ARCHTICK
0
POLYLINE
8
0
70
0
66
 1
10
0.0
20
0.0
30
0.000000
0
VERTEX
8
0
10
0.500000
20
0.500000
30
0.000000
0
VERTEX
8
0
10
-0.500000
20
-0.500000
30
0.000000
0
SEQEND
8
0
0
ENDBLK
0
BLOCK
8
0
2
_OBLIQUE
70
0
10
0.000000
20
0.000000
3
_OBLIQUE
0
LINE
8
0
10
-0.500000
20
-0.500000
30
0.000000
11
0.500000
21
0.500000
31
0.000000
0
ENDBLK
0
BLOCK
8
0
2
_OPEN
70
0
10
0.000000
20
0.000000
3
_OPEN
0
LINE
8
0
10
-1.000000
20
0.166667
30
0.000000
11
0.000000
21
0.000000
31
0.000000
0
LINE
8
0
10
-1.000000
20
-0.166667
30
0.000000
11
0.000000
21
0.000000
31
0.000000
0
LINE
8
0
10
0.000000
20
0.000000
30
0.000000
11
-1.000000
21
0.000000
31
0.000000
0
ENDBLK
0
BLOCK
8
0
2
_ORIGIN
70
0
10
0.000000
20
0.000000
3
_ORIGIN
0
CIRCLE
8
0
10
0.000000
20
0.000000
40
0.500000
0
LINE
8
0
10
0.000000
20
0.000000
30
0.000000
11
-1.000000
21
0.000000
31
0.000000
0
ENDBLK
0
BLOCK
8
0
2
_ORIGIN2
70
0
10
0.000000
20
0.000000
3
_ORIGIN2
0
CIRCLE
8
0
10
0.000000
20
0.000000
40
0.500000
0
CIRCLE
8
0
10
0.000000
20
0.000000
40
0.250000
0
LINE
8
0
10
-0.500000
20
0.000000
30
0.000000
11
-1.000000
21
0.000000
31
0.000000
0
ENDBLK
0
BLOCK
8
0
2
_OPEN90
70
0
10
0.000000
20
0.000000
3
_OPEN90
0
LINE
8
0
10
-0.500000
20
0.500000
30
0.000000
11
0.000000
21
0.000000
31
0.000000
0
LINE
8
0
10
0.000000
20
0.000000
30
0.000000
11
-0.500000
21
-0.500000
31
0.000000
0
LINE
8
0
10
0.000000
20
0.000000
30
0.000000
11
-1.000000
21
0.000000
31
0.000000
0
ENDBLK
0
BLOCK
8
0
2
_OPEN30
70
0
10
0.000000
20
0.000000
3
_OPEN30
0
LINE
8
0
10
-1.000000
20
0.267949
30
0.000000
11
0.000000
21
0.000000
31
0.000000
0
LINE
8
0
10
0.000000
20
0.000000
30
0.000000
11
-1.000000
21
-0.267949
31
0.000000
0
LINE
8
0
10
0.000000
20
0.000000
30
0.000000
11
-1.000000
21
0.000000
31
0.000000
0
ENDBLK
0
BLOCK
8
0
2
_DOTSMALL
70
0
10
0.000000
20
0.000000
3
_DOTSMALL
0
POLYLINE
8
0
70
1
66
 1
10
0.0
20
0.0
30
0.000000
0
VERTEX
8
0
10
0.062500
20
0.000000
30
0.000000
42
1.000000
0
VERTEX
8
0
10
-0.062500
20
0.000000
30
0.000000
42
1.000000
0
SEQEND
8
0
0
ENDBLK
0
BLOCK
8
0
2
_DOTBLANK
70
0
10
0.000000
20
0.000000
3
_DOTBLANK
0
CIRCLE
8
0
10
0.000000
20
0.000000
40
0.500000
0
LINE
8
0
10
-0.500000
20
0.000000
30
0.000000
11
-1.000000
21
0.000000
31
0.000000
0
ENDBLK
0
BLOCK
8
0
2
_SMALL
70
0
10
0.000000
20
0.000000
3
_SMALL
0
CIRCLE
8
0
10
0.000000
20
0.000000
40
0.250000
0
ENDBLK
0
BLOCK
8
0
2
_BOXBLANK
70
0
10
0.000000
20
0.000000
3
_BOXBLANK
0
LINE
8
0
10
-0.500000
20
-0.500000
30
0.000000
11
0.500000
21
-0.500000
31
0.000000
0
LINE
8
0
10
0.500000
20
-0.500000
30
0.000000
11
0.500000
21
0.500000
31
0.000000
0
LINE
8
0
10
0.500000
20
0.500000
30
0.000000
11
-0.500000
21
0.500000
31
0.000000
0
LINE
8
0
10
-0.500000
20
0.500000
30
0.000000
11
-0.500000
21
-0.500000
31
0.000000
0
LINE
8
0
10
-0.500000
20
0.000000
30
0.000000
11
-1.000000
21
0.000000
31
0.000000
0
ENDBLK
0
BLOCK
8
0
2
_BOXFILLED
70
0
10
0.000000
20
0.000000
3
_BOXFILLED
0
SOLID
8
0
10
-0.500000
20
0.500000
30
0.000000
11
0.500000
21
0.500000
31
0.000000
12
-0.500000
22
-0.500000
32
0.000000
13
0.500000
23
-0.500000
33
0.000000
0
LINE
8
0
10
-0.500000
20
0.000000
30
0.000000
11
-1.000000
21
0.000000
31
0.000000
0
ENDBLK
0
BLOCK
8
0
2
_DATUMBLANK
70
0
10
0.000000
20
0.000000
3
_DATUMBLANK
0
LINE
8
0
10
0.000000
20
0.577350
30
0.000000
11
-1.000000
21
0.000000
31
0.000000
0
LINE
8
0
10
-1.000000
20
0.000000
30
0.000000
11
0.000000
21
-0.577350
31
0.000000
0
LINE
8
0
10
0.000000
20
-0.577350
30
0.000000
11
0.000000
21
0.577350
31
0.000000
0
ENDBLK
0
BLOCK
8
0
2
_DATUMFILLED
70
0
10
0.000000
20
0.000000
3
_DATUMFILLED
0
SOLID
8
0
10
0.000000
20
0.577350
30
0.000000
11
-1.000000
21
0.000000
31
0.000000
12
0.000000
22
-0.577350
32
0.000000
13
0.000000
23
-0.577350
33
0.000000
0
ENDBLK
0
BLOCK
8
0
2
_INTEGRAL
70
0
10
0.000000
20
0.000000
3
_INTEGRAL
0
ARC
8
0
10
0.444888
20
-0.091335
40
0.454167
50
102.000000
51
168.000000
0
ARC
8
0
10
-0.444888
20
0.091335
40
0.454167
50
282.000000
51
348.000000
0
ENDBLK
0
BLOCK
8
0
2
_NONE
70
0
10
0.000000
20
0.000000
3
_NONE
0
ENDBLK
0
ENDSEC
0
SECTION
2
ENTITIES
0
POLYLINE
8
0
6
Continuous
70
0
66
 1
10
0.0
20
0.0
30
0.000000
0
VERTEX
8
0
10
0.000000
20
230.000000
30
0.000000
0
VERTEX
8
0
10
40.388652
20
230.300387
30
0.000000
0
VERTEX
8
0
10
80.790294
20
230.547891
30
0.000000
0
VERTEX
8
0
10
121.214589
20
230.678412
30
0.000000
0
VERTEX
8
0
10
161.646538
20
230.717249
30
0.000000
0
VERTEX
8
0
10
202.078004
20
230.666994
30
0.000000
0
VERTEX
8
0
10
242.501485
20
230.529876
30
0.000000
0
VERTEX
8
0
10
282.909948
20
230.307693
30
0.000000
0
VERTEX
8
0
10
323.296663
20
230.001768
30
0.000000
0
VERTEX
8
0
10
363.655010
20
229.612889
30
0.000000
0
VERTEX
8
0
10
403.978270
20
229.141241
30
0.000000
0
VERTEX
8
0
10
444.259388
20
228.586349
30
0.000000
0
VERTEX
8
0
10
484.490710
20
227.947009
30
0.000000
0
VERTEX
8
0
10
524.663723
20
227.221284
30
0.000000
0
VERTEX
8
0
10
564.768721
20
226.406418
30
0.000000
0
VERTEX
8
0
10
604.794387
20
225.498738
30
0.000000
0
VERTEX
8
0
10
644.727456
20
224.493709
30
0.000000
0
VERTEX
8
0
10
684.552116
20
223.385775
30
0.000000
0
VERTEX
8
0
10
724.249532
20
222.168412
30
0.000000
0
VERTEX
8
0
10
763.796571
20
220.833650
30
0.000000
0
VERTEX
8
0
10
803.146436
20
219.359786
30
0.000000
0
VERTEX
8
0
10
842.243852
20
217.725756
30
0.000000
0
VERTEX
8
0
10
881.029152
20
215.914388
30
0.000000
0
VERTEX
8
0
10
919.428878
20
213.907128
30
0.000000
0
VERTEX
8
0
10
957.354288
20
211.684731
30
0.000000
0
VERTEX
8
0
10
994.698974
20
209.227538
30
0.000000
0
VERTEX
8
0
10
1031.338086
20
206.516446
30
0.000000
0
VERTEX
8
0
10
1067.128723
20
203.534001
30
0.000000
0
VERTEX
8
0
10
1101.911688
20
200.265520
30
0.000000
0
VERTEX
8
0
10
1135.516296
20
196.700516
30
0.000000
0
VERTEX
8
0
10
1167.767746
20
192.833955
30
0.000000
0
VERTEX
8
0
10
1198.496183
20
188.667080
30
0.000000
0
VERTEX
8
0
10
1227.546977
20
184.207742
30
0.000000
0
VERTEX
8
0
10
1254.791001
20
179.470156
30
0.000000
0
VERTEX
8
0
10
1280.133422
20
174.474047
30
0.000000
0
VERTEX
8
0
10
1303.513853
20
169.242700
30
0.000000
0
VERTEX
8
0
10
1324.911451
20
163.801949
30
0.000000
0
VERTEX
8
0
10
1344.339256
20
158.178238
30
0.000000
0
VERTEX
8
0
10
1361.837697
20
152.397259
30
0.000000
0
VERTEX
8
0
10
1377.470784
20
146.483223
30
0.000000
0
VERTEX
8
0
10
1391.310494
20
140.457722
30
0.000000
0
VERTEX
8
0
10
1403.450182
20
134.340632
30
0.000000
0
VERTEX
8
0
10
1413.971967
20
128.148531
30
0.000000
0
VERTEX
8
0
10
1422.967959
20
121.896174
30
0.000000
0
VERTEX
8
0
10
1430.527299
20
115.596104
30
0.000000
0
VERTEX
8
0
10
1436.736951
20
109.258985
30
0.000000
0
VERTEX
8
0
10
1441.659827
20
102.893470
30
0.000000
0
VERTEX
8
0
10
1445.384890
20
96.507481
30
0.000000
0
VERTEX
8
0
10
1447.928816
20
90.106971
30
0.000000
0
VERTEX
8
0
10
1449.148555
20
83.697012
30
0.000000
0
VERTEX
8
0
10
1450.000000
20
77.284920
30
0.000000
0
VERTEX
8
0
10
1450.000000
20
77.284920
30
0.000000
0
SEQEND
8
0
0
POLYLINE
8
0
6
Continuous
70
0
66
 1
10
0.0
20
0.0
30
0.000000
0
VERTEX
8
0
10
0.000000
20
0.000000
30
0.000000
0
VERTEX
8
0
10
31.681042
20
0.235356
30
0.000000
0
VERTEX
8
0
10
63.360099
20
0.477159
30
0.000000
0
VERTEX
8
0
10
95.026935
20
0.756379
30
0.000000
0
VERTEX
8
0
10
126.682692
20
1.065582
30
0.000000
0
VERTEX
8
0
10
158.325320
20
1.406909
30
0.000000
0
VERTEX
8
0
10
189.952523
20
1.782470
30
0.000000
0
VERTEX
8
0
10
221.561764
20
2.194312
30
0.000000
0
VERTEX
8
0
10
253.150261
20
2.644405
30
0.000000
0
VERTEX
8
0
10
284.714991
20
3.134647
30
0.000000
0
VERTEX
8
0
10
316.252693
20
3.666848
30
0.000000
0
VERTEX
8
0
10
347.759888
20
4.242708
30
0.000000
0
VERTEX
8
0
10
379.232920
20
4.863787
30
0.000000
0
VERTEX
8
0
10
410.667941
20
5.531538
30
0.000000
0
VERTEX
8
0
10
442.060941
20
6.247295
30
0.000000
0
VERTEX
8
0
10
473.407839
20
7.012195
30
0.000000
0
VERTEX
8
0
10
504.704419
20
7.827285
30
0.000000
0
VERTEX
8
0
10
535.946451
20
8.693424
30
0.000000
0
VERTEX
8
0
10
567.129672
20
9.611334
30
0.000000
0
VERTEX
8
0
10
598.249851
20
10.581581
30
0.000000
0
VERTEX
8
0
10
629.302788
20
11.604597
30
0.000000
0
VERTEX
8
0
10
660.284415
20
12.680637
30
0.000000
0
VERTEX
8
0
10
691.190699
20
13.809875
30
0.000000
0
VERTEX
8
0
10
722.017799
20
14.992317
30
0.000000
0
VERTEX
8
0
10
752.762008
20
16.227866
30
0.000000
0
VERTEX
8
0
10
783.417675
20
17.517569
30
0.000000
0
VERTEX
8
0
10
813.977113
20
18.863504
30
0.000000
0
VERTEX
8
0
10
844.435128
20
20.266089
30
0.000000
0
VERTEX
8
0
10
874.786383
20
21.725739
30
0.000000
0
VERTEX
8
0
10
905.025282
20
23.242925
30
0.000000
0
VERTEX
8
0
10
935.145857
20
24.818216
30
0.000000
0
VERTEX
8
0
10
965.141606
20
26.452333
30
0.000000
0
VERTEX
8
0
10
995.005230
20
28.146238
30
0.000000
0
VERTEX
8
0
10
1024.728654
20
29.901085
30
0.000000
0
VERTEX
8
0
10
1054.302198
20
31.718522
30
0.000000
0
VERTEX
8
0
10
1083.714700
20
33.600554
30
0.000000
0
VERTEX
8
0
10
1112.952467
20
35.549876
30
0.000000
0
VERTEX
8
0
10
1141.998598
20
37.569979
30
0.000000
0
VERTEX
8
0
10
1170.831828
20
39.665396
30
0.000000
0
VERTEX
8
0
10
1199.424886
20
41.842015
30
0.000000
0
VERTEX
8
0
10
1227.741997
20
44.107542
30
0.000000
0
VERTEX
8
0
10
1255.734997
20
46.472187
30
0.000000
0
VERTEX
8
0
10
1283.337767
20
48.949481
30
0.000000
0
VERTEX
8
0
10
1310.456397
20
51.557710
30
0.000000
0
VERTEX
8
0
10
1336.952551
20
54.322009
30
0.000000
0
VERTEX
8
0
10
1362.613058
20
57.277627
30
0.000000
0
VERTEX
8
0
10
1387.091084
20
60.474919
30
0.000000
0
VERTEX
8
0
10
1409.783031
20
63.986565
30
0.000000
0
VERTEX
8
0
10
1429.559717
20
67.913333
30
0.000000
0
VERTEX
8
0
10
1444.214434
20
72.361351
30
0.000000
0
VERTEX
8
0
10
1450.000000
20
77.284920
30
0.000000
0
SEQEND
8
0
0
POLYLINE
8
0
6
Continuous
70
0
66
 1
10
0.0
20
0.0
30
0.000000
0
VERTEX
8
0
10
0.000000
20
62.100000
30
0.000000
0
VERTEX
8
0
10
1450.000000
20
77.284920
30
0.000000
0
SEQEND
8
0
0
POLYLINE
8
0
6
Continuous
70
0
66
 1
10
0.0
20
0.0
30
0.000000
0
VERTEX
8
0
10
0.000000
20
230.000000
30
0.000000
0
VERTEX
8
0
10
0.000000
20
0.000000
30
0.000000
0
SEQEND
8
0
0
POLYLINE
8
0
6
Continuous
70
0
66
 1
10
0.0
20
0.0
30
0.000000
0
VERTEX
8
0
10
580.000000
20
226.072394
30
0.000000
0
VERTEX
8
0
10
580.000000
20
10.005983
30
0.000000
0
SEQEND
8
0
0
ENDSEC
0
EOF
