0
SECTION
2
HEADER
0
ENDSEC
0
SECTION
2
TABLES
0
TABLE
2
LTYPE
0
LTYPE
2
CONTINUOUS
70
0
3
Solid line
72
65
73
0
40
0.000000
0
ENDTAB
0
TABLE
2
LAYER
0
LAYER
2
0
70
0
62
7
6
CONTINUOUS
0
LAYER
2
AIRFOILS
70
0
62
8
6
CONTINUOUS
0
LAYER
2
RUDDER
70
0
62
7
6
CONTINUOUS
0
LAYER
2
REGION
70
0
62
7
6
CONTINUOUS
0
ENDTAB
0
TABLE
2
STYLE
0
STYLE
2
STANDARD
3
Arial
70
0
71
0
40
7.500000
41
1.000000
42
7.500000
50
0.000000
0
ENDTAB
0
TABLE
2
DIMSTYLE
0
DIMSTYLE
2
Standard
70
0
3

4

5

6
CLOSEDFILLED
7
CLOSEDFILLED
40
1.000000
41
2.000000
42
1.000000
43
5.000000
44
2.000000
45
0.000000
46
0.000000
47
0.000000
48
0.000000
140
5.000000
141
2.000000
142
0.000000
143
25.400000
144
1.000000
145
0.000000
146
1.000000
147
2.000000
71
0
72
0
73
0
74
1
75
0
76
0
77
0
78
0
170
0
171
4
172
0
173
1
174
0
175
0
176
0
177
-2
178
-2
271
4
272
4
273
1
274
4
275
0
280
0
281
0
282
0
283
1
288
0
0
ENDTAB
0
ENDSEC
0
SECTION
2
BLOCKS
0
BLOCK
8
0
2
*R20
70
1
10
725.000000
20
115.000000
3
*R20
0
POLYLINE
8
REGION
62
8
6
CONTINUOUS
70
0
66
 1
10
0.0
20
0.0
30
0.000000
0
VERTEX
8
REGION
10
1350.000009
20
55.150803
30
0.000000
42
0.007299
0
VERTEX
8
REGION
10
1400.000000
20
61.331765
30
0.000000
42
0.012681
0
VERTEX
8
REGION
10
1429.778352
20
66.157889
30
0.000000
0
VERTEX
8
REGION
10
1429.999984
20
66.201603
30
0.000000
42
0.015401
0
VERTEX
8
REGION
10
1440.317116
20
68.485979
30
0.000000
42
0.052567
0
VERTEX
8
REGION
10
1446.379718
20
70.732701
30
0.000000
42
0.092017
0
VERTEX
8
REGION
10
1449.011230
20
72.701356
30
0.000000
42
0.184198
0
VERTEX
8
REGION
10
1450.000000
20
75.194873
30
0.000000
0
VERTEX
8
REGION
10
1450.000000
20
76.853996
30
0.000000
0
VERTEX
8
REGION
10
1450.000000
20
80.119133
30
0.000000
42
0.060462
0
VERTEX
8
REGION
10
1449.011694
20
87.418112
30
0.000000
42
0.048320
0
VERTEX
8
REGION
10
1445.529750
20
97.025140
30
0.000000
42
0.077689
0
VERTEX
8
REGION
10
1433.525239
20
114.906807
30
0.000000
42
0.030084
0
VERTEX
8
REGION
10
1427.113832
20
120.716058
30
0.000000
42
0.036561
0
VERTEX
8
REGION
10
1412.466786
20
130.892936
30
0.000000
42
0.020964
0
VERTEX
8
REGION
10
1400.006354
20
137.663030
30
0.000000
0
VERTEX
8
REGION
10
1400.006355
20
137.678867
30
0.000000
42
0.024472
0
VERTEX
8
REGION
10
1376.501881
20
147.874050
30
0.000000
42
0.017318
0
VERTEX
8
REGION
10
1350.001622
20
156.889158
30
0.000000
42
0.016413
0
VERTEX
8
REGION
10
1310.294653
20
167.506380
30
0.000000
42
0.015174
0
VERTEX
8
REGION
10
1246.352020
20
180.317687
30
0.000000
42
0.011241
0
VERTEX
8
REGION
10
1166.451662
20
192.017828
30
0.000000
42
0.001743
0
VERTEX
8
REGION
10
1150.000000
20
194.022487
30
0.000000
42
0.008357
0
VERTEX
8
REGION
10
1044.437956
20
204.598637
30
0.000000
42
0.007061
0
VERTEX
8
REGION
10
899.411380
20
214.621648
30
0.000000
42
0.005867
0
VERTEX
8
REGION
10
708.146560
20
222.891835
30
0.000000
0
VERTEX
8
REGION
10
700.820278
20
223.124166
30
0.000000
0
VERTEX
8
REGION
10
693.447487
20
223.357972
30
0.000000
0
VERTEX
8
REGION
10
686.027721
20
223.582926
30
0.000000
0
VERTEX
8
REGION
10
678.561153
20
223.809300
30
0.000000
0
VERTEX
8
REGION
10
671.047333
20
224.026823
30
0.000000
0
VERTEX
8
REGION
10
663.486419
20
224.245709
30
0.000000
0
VERTEX
8
REGION
10
655.877977
20
224.455746
30
0.000000
0
VERTEX
8
REGION
10
648.222148
20
224.667092
30
0.000000
0
VERTEX
8
REGION
10
640.236910
20
224.876800
30
0.000000
0
VERTEX
8
REGION
10
632.200450
20
225.087854
30
0.000000
0
VERTEX
8
REGION
10
624.112267
20
225.286885
30
0.000000
0
VERTEX
8
REGION
10
615.972532
20
225.486931
30
0.000000
0
VERTEX
8
REGION
10
607.781087
20
225.688248
30
0.000000
0
VERTEX
8
REGION
10
599.537396
20
225.874946
30
0.000000
0
VERTEX
8
REGION
10
591.241667
20
226.062573
30
0.000000
0
VERTEX
8
REGION
10
582.893741
20
226.251379
30
0.000000
0
VERTEX
8
REGION
10
574.493113
20
226.425416
30
0.000000
0
VERTEX
8
REGION
10
565.730958
20
226.606688
30
0.000000
0
VERTEX
8
REGION
10
556.912204
20
226.789131
30
0.000000
0
VERTEX
8
REGION
10
548.036344
20
226.956053
30
0.000000
0
VERTEX
8
REGION
10
539.103522
20
227.123781
30
0.000000
0
VERTEX
8
REGION
10
530.113561
20
227.292582
30
0.000000
0
VERTEX
8
REGION
10
521.065985
20
227.445809
30
0.000000
0
VERTEX
8
REGION
10
511.960907
20
227.599748
30
0.000000
0
VERTEX
8
REGION
10
502.798151
20
227.754661
30
0.000000
0
VERTEX
8
REGION
10
493.577269
20
227.893840
30
0.000000
0
VERTEX
8
REGION
10
483.959149
20
228.038749
30
0.000000
0
VERTEX
8
REGION
10
474.278484
20
228.184600
30
0.000000
0
VERTEX
8
REGION
10
464.534825
20
228.313906
30
0.000000
0
VERTEX
8
REGION
10
454.728219
20
228.443770
30
0.000000
0
VERTEX
8
REGION
10
444.858466
20
228.574470
30
0.000000
0
VERTEX
8
REGION
10
434.925152
20
228.688569
30
0.000000
0
VERTEX
8
REGION
10
424.928290
20
228.803122
30
0.000000
0
VERTEX
8
REGION
10
414.867682
20
228.918405
30
0.000000
0
VERTEX
8
REGION
10
404.742944
20
229.016915
30
0.000000
0
VERTEX
8
REGION
10
394.181589
20
229.119393
30
0.000000
0
VERTEX
8
REGION
10
383.551107
20
229.222542
30
0.000000
0
VERTEX
8
REGION
10
372.851102
20
229.306699
30
0.000000
0
VERTEX
8
REGION
10
362.081511
20
229.389473
30
0.000000
0
VERTEX
8
REGION
10
351.242120
20
229.471815
30
0.000000
0
VERTEX
8
REGION
10
340.332709
20
229.554689
30
0.000000
0
VERTEX
8
REGION
10
329.352916
20
229.616260
30
0.000000
0
VERTEX
8
REGION
10
318.302652
20
229.676263
30
0.000000
0
VERTEX
8
REGION
10
307.181701
20
229.735646
30
0.000000
0
VERTEX
8
REGION
10
295.580700
20
229.797593
30
0.000000
0
VERTEX
8
REGION
10
283.903187
20
229.837133
30
0.000000
0
VERTEX
8
REGION
10
272.149007
20
229.874905
30
0.000000
0
VERTEX
8
REGION
10
260.317918
20
229.911907
30
0.000000
0
VERTEX
8
REGION
10
248.409672
20
229.949150
30
0.000000
0
VERTEX
8
REGION
10
236.423974
20
229.963738
30
0.000000
0
VERTEX
8
REGION
10
224.360629
20
229.977418
30
0.000000
0
VERTEX
8
REGION
10
212.219388
20
229.991187
30
0.000000
0
VERTEX
8
REGION
10
199.999997
20
229.991694
30
0.000000
0
VERTEX
8
REGION
10
0.000000
20
230.000000
30
0.000000
0
VERTEX
8
REGION
10
0.000000
20
61.669077
30
0.000000
0
VERTEX
8
REGION
10
0.000000
20
0.000000
30
0.000000
0
VERTEX
8
REGION
10
20.701318
20
0.101283
30
0.000000
0
VERTEX
8
REGION
10
41.283789
20
0.201986
30
0.000000
0
VERTEX
8
REGION
10
51.530154
20
0.268816
30
0.000000
0
VERTEX
8
REGION
10
61.746540
20
0.337908
30
0.000000
0
VERTEX
8
REGION
10
71.932857
20
0.409983
30
0.000000
0
VERTEX
8
REGION
10
82.089018
20
0.485510
30
0.000000
0
VERTEX
8
REGION
10
92.214944
20
0.563678
30
0.000000
0
VERTEX
8
REGION
10
102.310564
20
0.643043
30
0.000000
0
VERTEX
8
REGION
10
112.375808
20
0.722170
30
0.000000
0
VERTEX
8
REGION
10
131.555974
20
0.908273
30
0.000000
0
VERTEX
8
REGION
10
150.623950
20
1.093288
30
0.000000
0
VERTEX
8
REGION
10
169.578813
20
1.309039
30
0.000000
0
VERTEX
8
REGION
10
188.420313
20
1.523500
30
0.000000
0
VERTEX
8
REGION
10
207.147479
20
1.768051
30
0.000000
0
VERTEX
8
REGION
10
225.760109
20
2.011107
30
0.000000
0
VERTEX
8
REGION
10
244.257184
20
2.283611
30
0.000000
0
VERTEX
8
REGION
10
262.638550
20
2.554410
30
0.000000
0
VERTEX
8
REGION
10
280.903150
20
2.853485
30
0.000000
0
VERTEX
8
REGION
10
297.778687
20
3.129814
30
0.000000
0
VERTEX
8
REGION
10
314.552269
20
3.431012
30
0.000000
0
VERTEX
8
REGION
10
331.223882
20
3.730379
30
0.000000
0
VERTEX
8
REGION
10
347.792569
20
4.053610
30
0.000000
0
VERTEX
8
REGION
10
364.258342
20
4.374832
30
0.000000
0
VERTEX
8
REGION
10
380.620211
20
4.719415
30
0.000000
0
VERTEX
8
REGION
10
396.878219
20
5.061809
30
0.000000
0
VERTEX
8
REGION
10
413.031346
20
5.427062
30
0.000000
0
VERTEX
8
REGION
10
429.079668
20
5.789944
30
0.000000
0
VERTEX
8
REGION
10
443.904646
20
6.147376
30
0.000000
0
VERTEX
8
REGION
10
458.638249
20
6.502605
30
0.000000
0
VERTEX
8
REGION
10
473.279571
20
6.876761
30
0.000000
0
VERTEX
8
REGION
10
487.828758
20
7.248563
30
0.000000
0
VERTEX
8
REGION
10
502.284878
20
7.638896
30
0.000000
0
VERTEX
8
REGION
10
516.648103
20
8.026720
30
0.000000
0
VERTEX
8
REGION
10
530.917476
20
8.432682
30
0.000000
0
VERTEX
8
REGION
10
545.093192
20
8.835980
30
0.000000
0
VERTEX
8
REGION
10
559.174284
20
9.256667
30
0.000000
0
VERTEX
8
REGION
10
572.180613
20
9.645244
30
0.000000
0
VERTEX
8
REGION
10
579.999903
20
9.890093
30
0.000000
0
VERTEX
8
REGION
10
585.104411
20
10.051460
30
0.000000
0
VERTEX
8
REGION
10
597.945891
20
10.458172
30
0.000000
0
VERTEX
8
REGION
10
610.704846
20
10.862271
30
0.000000
0
VERTEX
8
REGION
10
623.380302
20
11.284233
30
0.000000
0
VERTEX
8
REGION
10
635.972621
20
11.703427
30
0.000000
0
VERTEX
8
REGION
10
648.480915
20
12.136865
30
0.000000
0
VERTEX
8
REGION
10
660.905460
20
12.567400
30
0.000000
0
VERTEX
8
REGION
10
673.245230
20
13.015222
30
0.000000
0
VERTEX
8
REGION
10
684.641678
20
13.429184
30
0.000000
0
VERTEX
8
REGION
10
695.964965
20
13.840488
30
0.000000
0
VERTEX
8
REGION
10
707.214041
20
14.270590
30
0.000000
0
VERTEX
8
REGION
10
718.389449
20
14.698210
30
0.000000
0
VERTEX
8
REGION
10
729.490958
20
15.123003
30
0.000000
0
VERTEX
8
REGION
10
740.517496
20
15.565884
30
0.000000
0
VERTEX
8
REGION
10
751.469629
20
16.006108
30
0.000000
0
VERTEX
8
REGION
10
762.347122
20
16.443332
30
0.000000
0
VERTEX
8
REGION
10
773.148899
20
16.897710
30
0.000000
0
VERTEX
8
REGION
10
783.123775
20
17.317615
30
0.000000
0
VERTEX
8
REGION
10
793.033515
20
17.734778
30
0.000000
0
VERTEX
8
REGION
10
802.877153
20
18.167045
30
0.000000
0
VERTEX
8
REGION
10
812.655247
20
18.596713
30
0.000000
0
VERTEX
8
REGION
10
822.367613
20
19.023493
30
0.000000
0
VERTEX
8
REGION
10
832.013267
20
19.464819
30
0.000000
0
VERTEX
8
REGION
10
841.592785
20
19.903395
30
0.000000
0
VERTEX
8
REGION
10
851.105980
20
20.338934
30
0.000000
0
VERTEX
8
REGION
10
860.551866
20
20.788272
30
0.000000
0
VERTEX
8
REGION
10
869.273735
20
21.203428
30
0.000000
0
VERTEX
8
REGION
10
877.937779
20
21.615832
30
0.000000
0
VERTEX
8
REGION
10
886.543113
20
22.040422
30
0.000000
0
VERTEX
8
REGION
10
895.090293
20
22.462376
30
0.000000
0
VERTEX
8
REGION
10
903.579172
20
22.881452
30
0.000000
0
VERTEX
8
REGION
10
912.008854
20
23.312275
30
0.000000
0
VERTEX
8
REGION
10
920.379905
20
23.740334
30
0.000000
0
VERTEX
8
REGION
10
928.692177
20
24.165386
30
0.000000
0
VERTEX
8
REGION
10
936.944723
20
24.602560
30
0.000000
0
VERTEX
8
REGION
10
944.563932
20
25.007572
30
0.000000
0
VERTEX
8
REGION
10
952.131899
20
25.410551
30
0.000000
0
VERTEX
8
REGION
10
959.648534
20
25.810796
30
0.000000
0
VERTEX
8
REGION
10
967.112894
20
26.223247
30
0.000000
0
VERTEX
8
REGION
10
974.525594
20
26.634160
30
0.000000
0
VERTEX
8
REGION
10
981.886542
20
27.042859
30
0.000000
0
VERTEX
8
REGION
10
989.195647
20
27.448681
30
0.000000
0
VERTEX
8
REGION
10
996.451958
20
27.866130
30
0.000000
0
VERTEX
8
REGION
10
1003.656102
20
28.281783
30
0.000000
0
VERTEX
8
REGION
10
1010.306825
20
28.666107
30
0.000000
0
VERTEX
8
REGION
10
1016.912307
20
29.047816
30
0.000000
0
VERTEX
8
REGION
10
1023.471686
20
29.439752
30
0.000000
0
VERTEX
8
REGION
10
1029.985552
20
29.830091
30
0.000000
0
VERTEX
8
REGION
10
1036.453834
20
30.218256
30
0.000000
0
VERTEX
8
REGION
10
1042.876465
20
30.603682
30
0.000000
0
VERTEX
8
REGION
10
1049.252577
20
30.998854
30
0.000000
0
VERTEX
8
REGION
10
1055.582769
20
31.392232
30
0.000000
0
VERTEX
8
REGION
10
1061.866969
20
31.783257
30
0.000000
0
VERTEX
8
REGION
10
1067.667997
20
32.144217
30
0.000000
0
VERTEX
8
REGION
10
1073.428427
20
32.513814
30
0.000000
0
VERTEX
8
REGION
10
1079.148820
20
32.881802
30
0.000000
0
VERTEX
8
REGION
10
1084.829124
20
33.247689
30
0.000000
0
VERTEX
8
REGION
10
1090.469287
20
33.610991
30
0.000000
0
VERTEX
8
REGION
10
1096.068664
20
33.980339
30
0.000000
0
VERTEX
8
REGION
10
1101.627737
20
34.347029
30
0.000000
42
0.001293
0
VERTEX
8
REGION
10
1149.999959
20
37.686803
30
0.000000
0
VERTEX
8
REGION
10
1150.000000
20
37.686232
30
0.000000
0
VERTEX
8
REGION
10
1150.000000
20
37.686806
30
0.000000
42
0.004815
0
VERTEX
8
REGION
10
1282.556597
20
48.385251
30
0.000000
42
0.004716
0
VERTEX
8
REGION
10
1350.000009
20
55.150803
30
0.000000
0
SEQEND
8
0
0
ENDBLK
0
BLOCK
8
0
2
_ARCHTICK
70
0
10
0.000000
20
0.000000
3
_ARCHTICK
0
POLYLINE
8
0
6
CONTINUOUS
70
0
66
 1
10
0.0
20
0.0
30
0.000000
0
VERTEX
8
0
10
0.500000
20
0.500000
30
0.000000
0
VERTEX
8
0
10
-0.500000
20
-0.500000
30
0.000000
0
SEQEND
8
0
0
ENDBLK
0
BLOCK
8
0
2
_BOXBLANK
70
0
10
0.000000
20
0.000000
3
_BOXBLANK
0
LINE
8
0
6
CONTINUOUS
10
-0.500000
20
-0.500000
30
0.000000
11
0.500000
21
-0.500000
31
0.000000
0
LINE
8
0
6
CONTINUOUS
10
0.500000
20
-0.500000
30
0.000000
11
0.500000
21
0.500000
31
0.000000
0
LINE
8
0
6
CONTINUOUS
10
0.500000
20
0.500000
30
0.000000
11
-0.500000
21
0.500000
31
0.000000
0
LINE
8
0
6
CONTINUOUS
10
-0.500000
20
0.500000
30
0.000000
11
-0.500000
21
-0.500000
31
0.000000
0
LINE
8
0
6
CONTINUOUS
10
-0.500000
20
0.000000
30
0.000000
11
-1.000000
21
0.000000
31
0.000000
0
ENDBLK
0
BLOCK
8
0
2
_BOXFILLED
70
0
10
0.000000
20
0.000000
3
_BOXFILLED
0
INSERT
8
0
6
CONTINUOUS
2
*R
10
0.000000
20
0.000000
41
1.000000
42
1.000000
50
0.000000
0
LINE
8
0
6
CONTINUOUS
10
-0.500000
20
0.000000
30
0.000000
11
-1.000000
21
0.000000
31
0.000000
0
ENDBLK
0
BLOCK
8
0
2
*R
70
1
10
0.000000
20
0.000000
3
*R
0
POLYLINE
8
0
6
CONTINUOUS
70
0
66
 1
10
0.0
20
0.0
30
0.000000
0
VERTEX
8
0
10
-0.500000
20
0.500000
30
0.000000
0
VERTEX
8
0
10
0.500000
20
0.500000
30
0.000000
0
VERTEX
8
0
10
0.500000
20
-0.500000
30
0.000000
0
VERTEX
8
0
10
-0.500000
20
-0.500000
30
0.000000
0
VERTEX
8
0
10
-0.500000
20
0.500000
30
0.000000
0
SEQEND
8
0
0
ENDBLK
0
BLOCK
8
0
2
_CLOSED
70
0
10
0.000000
20
0.000000
3
_CLOSED
0
LINE
8
0
6
CONTINUOUS
10
-1.000000
20
0.166667
30
0.000000
11
0.000000
21
0.000000
31
0.000000
0
LINE
8
0
6
CONTINUOUS
10
0.000000
20
0.000000
30
0.000000
11
-1.000000
21
-0.166667
31
0.000000
0
LINE
8
0
6
CONTINUOUS
10
-1.000000
20
0.166667
30
0.000000
11
-1.000000
21
-0.166667
31
0.000000
0
LINE
8
0
6
CONTINUOUS
10
0.000000
20
0.000000
30
0.000000
11
-1.000000
21
0.000000
31
0.000000
0
ENDBLK
0
BLOCK
8
0
2
_CLOSEDBLANK
70
0
10
0.000000
20
0.000000
3
_CLOSEDBLANK
0
LINE
8
0
6
CONTINUOUS
10
-1.000000
20
0.166667
30
0.000000
11
0.000000
21
0.000000
31
0.000000
0
LINE
8
0
6
CONTINUOUS
10
0.000000
20
0.000000
30
0.000000
11
-1.000000
21
-0.166667
31
0.000000
0
LINE
8
0
6
CONTINUOUS
10
-1.000000
20
0.166667
30
0.000000
11
-1.000000
21
-0.166667
31
0.000000
0
ENDBLK
0
BLOCK
8
0
2
_CLOSEDFILLED
70
0
10
0.000000
20
0.000000
3
_CLOSEDFILLED
0
INSERT
8
0
6
CONTINUOUS
2
*R1
10
-0.500000
20
0.000000
41
1.000000
42
1.000000
50
0.000000
0
ENDBLK
0
BLOCK
8
0
2
*R1
70
1
10
-0.500000
20
0.000000
3
*R1
0
POLYLINE
8
0
6
CONTINUOUS
70
0
66
 1
10
0.0
20
0.0
30
0.000000
0
VERTEX
8
0
10
-1.000000
20
0.166667
30
0.000000
0
VERTEX
8
0
10
-1.000000
20
-0.166667
30
0.000000
0
VERTEX
8
0
10
0.000000
20
0.000000
30
0.000000
0
VERTEX
8
0
10
-1.000000
20
0.166667
30
0.000000
0
SEQEND
8
0
0
ENDBLK
0
BLOCK
8
0
2
_DATUMBLANK
70
0
10
0.000000
20
0.000000
3
_DATUMBLANK
0
LINE
8
0
6
CONTINUOUS
10
0.000000
20
0.577350
30
0.000000
11
-1.000000
21
0.000000
31
0.000000
0
LINE
8
0
6
CONTINUOUS
10
-1.000000
20
0.000000
30
0.000000
11
0.000000
21
-0.577350
31
0.000000
0
LINE
8
0
6
CONTINUOUS
10
0.000000
20
-0.577350
30
0.000000
11
0.000000
21
0.577350
31
0.000000
0
ENDBLK
0
BLOCK
8
0
2
_DATUMFILLED
70
0
10
0.000000
20
0.000000
3
_DATUMFILLED
0
INSERT
8
0
6
CONTINUOUS
2
*R2
10
-0.500000
20
0.000000
41
1.000000
42
1.000000
50
0.000000
0
ENDBLK
0
BLOCK
8
0
2
*R2
70
1
10
-0.500000
20
0.000000
3
*R2
0
POLYLINE
8
0
6
CONTINUOUS
70
0
66
 1
10
0.0
20
0.0
30
0.000000
0
VERTEX
8
0
10
0.000000
20
0.577350
30
0.000000
0
VERTEX
8
0
10
-1.000000
20
0.000000
30
0.000000
0
VERTEX
8
0
10
0.000000
20
-0.577350
30
0.000000
0
VERTEX
8
0
10
0.000000
20
0.577350
30
0.000000
0
SEQEND
8
0
0
ENDBLK
0
BLOCK
8
0
2
_DOT
70
0
10
0.000000
20
0.000000
3
_DOT
0
POLYLINE
8
0
6
CONTINUOUS
70
0
66
 1
10
0.0
20
0.0
30
0.000000
0
VERTEX
8
0
10
0.250000
20
0.000000
30
0.000000
42
1.000000
0
VERTEX
8
0
10
-0.250000
20
0.000000
30
0.000000
42
1.000000
0
VERTEX
8
0
10
0.250000
20
0.000000
30
0.000000
0
SEQEND
8
0
0
LINE
8
0
6
CONTINUOUS
10
-0.500000
20
0.000000
30
0.000000
11
-1.000000
21
0.000000
31
0.000000
0
ENDBLK
0
BLOCK
8
0
2
_DOTBLANK
70
0
10
0.000000
20
0.000000
3
_DOTBLANK
0
CIRCLE
8
0
6
CONTINUOUS
10
0.000000
20
0.000000
40
0.500000
0
LINE
8
0
6
CONTINUOUS
10
-0.500000
20
0.000000
30
0.000000
11
-1.000000
21
0.000000
31
0.000000
0
ENDBLK
0
BLOCK
8
0
2
_DOTSMALL
70
0
10
0.000000
20
0.000000
3
_DOTSMALL
0
POLYLINE
8
0
6
CONTINUOUS
70
0
66
 1
10
0.0
20
0.0
30
0.000000
0
VERTEX
8
0
10
0.062500
20
0.000000
30
0.000000
42
1.000000
0
VERTEX
8
0
10
-0.062500
20
0.000000
30
0.000000
42
1.000000
0
VERTEX
8
0
10
0.062500
20
0.000000
30
0.000000
0
SEQEND
8
0
0
ENDBLK
0
BLOCK
8
0
2
_INTEGRAL
70
0
10
0.000000
20
0.000000
3
_INTEGRAL
0
POLYLINE
8
0
6
CONTINUOUS
70
0
66
 1
10
0.0
20
0.0
30
0.000000
0
VERTEX
8
0
10
0.350461
20
0.352907
30
0.000000
42
0.296213
0
VERTEX
8
0
10
0.000646
20
0.003092
30
0.000000
0
SEQEND
8
0
0
POLYLINE
8
0
6
CONTINUOUS
70
0
66
 1
10
0.0
20
0.0
30
0.000000
0
VERTEX
8
0
10
-0.350461
20
-0.352907
30
0.000000
42
0.296213
0
VERTEX
8
0
10
-0.000646
20
-0.003092
30
0.000000
0
SEQEND
8
0
0
ENDBLK
0
BLOCK
8
0
2
_OBLIQUE
70
0
10
0.000000
20
0.000000
3
_OBLIQUE
0
LINE
8
0
6
CONTINUOUS
10
-0.500000
20
-0.500000
30
0.000000
11
0.500000
21
0.500000
31
0.000000
0
ENDBLK
0
BLOCK
8
0
2
_OPEN
70
0
10
0.000000
20
0.000000
3
_OPEN
0
LINE
8
0
6
CONTINUOUS
10
-1.000000
20
0.166667
30
0.000000
11
0.000000
21
0.000000
31
0.000000
0
LINE
8
0
6
CONTINUOUS
10
-1.000000
20
-0.166667
30
0.000000
11
0.000000
21
0.000000
31
0.000000
0
LINE
8
0
6
CONTINUOUS
10
0.000000
20
0.000000
30
0.000000
11
-1.000000
21
0.000000
31
0.000000
0
ENDBLK
0
BLOCK
8
0
2
_OPEN30
70
0
10
0.000000
20
0.000000
3
_OPEN30
0
LINE
8
0
6
CONTINUOUS
10
-1.000000
20
0.267949
30
0.000000
11
0.000000
21
0.000000
31
0.000000
0
LINE
8
0
6
CONTINUOUS
10
0.000000
20
0.000000
30
0.000000
11
-1.000000
21
-0.267949
31
0.000000
0
LINE
8
0
6
CONTINUOUS
10
0.000000
20
0.000000
30
0.000000
11
-1.000000
21
0.000000
31
0.000000
0
ENDBLK
0
BLOCK
8
0
2
_OPEN90
70
0
10
0.000000
20
0.000000
3
_OPEN90
0
LINE
8
0
6
CONTINUOUS
10
-0.500000
20
0.500000
30
0.000000
11
0.000000
21
0.000000
31
0.000000
0
LINE
8
0
6
CONTINUOUS
10
0.000000
20
0.000000
30
0.000000
11
-0.500000
21
-0.500000
31
0.000000
0
LINE
8
0
6
CONTINUOUS
10
0.000000
20
0.000000
30
0.000000
11
-1.000000
21
0.000000
31
0.000000
0
ENDBLK
0
BLOCK
8
0
2
_ORIGIN
70
0
10
0.000000
20
0.000000
3
_ORIGIN
0
CIRCLE
8
0
6
CONTINUOUS
10
0.000000
20
0.000000
40
0.500000
0
LINE
8
0
6
CONTINUOUS
10
0.000000
20
0.000000
30
0.000000
11
-1.000000
21
0.000000
31
0.000000
0
ENDBLK
0
BLOCK
8
0
2
_ORIGIN2
70
0
10
0.000000
20
0.000000
3
_ORIGIN2
0
CIRCLE
8
0
6
CONTINUOUS
10
0.000000
20
0.000000
40
0.500000
0
CIRCLE
8
0
6
CONTINUOUS
10
0.000000
20
0.000000
40
0.250000
0
LINE
8
0
6
CONTINUOUS
10
-0.500000
20
0.000000
30
0.000000
11
-1.000000
21
0.000000
31
0.000000
0
ENDBLK
0
BLOCK
8
0
2
_SMALL
70
0
10
0.000000
20
0.000000
3
_SMALL
0
CIRCLE
8
0
6
CONTINUOUS
10
0.000000
20
0.000000
40
0.250000
0
ENDBLK
0
BLOCK
8
0
2
_NONE
70
0
10
0.000000
20
0.000000
3
_NONE
0
ENDBLK
0
ENDSEC
0
SECTION
2
ENTITIES
0
LINE
8
RUDDER
62
8
6
CONTINUOUS
10
-0.000000
20
61.000000
30
0.000000
11
1450.000000
21
78.950756
31
0.000000
0
POLYLINE
8
REGION
62
8
6
CONTINUOUS
70
0
66
 1
10
0.0
20
0.0
30
0.000000
0
VERTEX
8
REGION
10
1350.000009
20
55.150803
30
0.000000
0
VERTEX
8
REGION
10
1357.153603
20
55.944384
30
0.000000
0
VERTEX
8
REGION
10
1364.303824
20
56.767795
30
0.000000
0
VERTEX
8
REGION
10
1371.450549
20
57.621020
30
0.000000
0
VERTEX
8
REGION
10
1378.593654
20
58.504046
30
0.000000
0
VERTEX
8
REGION
10
1385.733013
20
59.416856
30
0.000000
0
VERTEX
8
REGION
10
1392.868503
20
60.359434
30
0.000000
0
VERTEX
8
REGION
10
1400.000000
20
61.331765
30
0.000000
0
SEQEND
8
0
0
POLYLINE
8
REGION
62
8
6
CONTINUOUS
70
0
66
 1
10
0.0
20
0.0
30
0.000000
0
VERTEX
8
REGION
10
1400.000000
20
61.331765
30
0.000000
0
VERTEX
8
REGION
10
1404.268479
20
61.928645
30
0.000000
0
VERTEX
8
REGION
10
1408.532522
20
62.556438
30
0.000000
0
VERTEX
8
REGION
10
1412.791903
20
63.215111
30
0.000000
0
VERTEX
8
REGION
10
1417.046400
20
63.904630
30
0.000000
0
VERTEX
8
REGION
10
1421.295789
20
64.624958
30
0.000000
0
VERTEX
8
REGION
10
1425.539847
20
65.376058
30
0.000000
0
VERTEX
8
REGION
10
1429.778352
20
66.157889
30
0.000000
0
SEQEND
8
0
0
LINE
8
REGION
62
8
6
CONTINUOUS
10
1429.778352
20
66.157889
30
0.000000
11
1429.999984
21
66.201603
31
0.000000
0
POLYLINE
8
REGION
62
8
6
CONTINUOUS
70
0
66
 1
10
0.0
20
0.0
30
0.000000
0
VERTEX
8
REGION
10
1429.999984
20
66.201603
30
0.000000
0
VERTEX
8
REGION
10
1432.074355
20
66.607564
30
0.000000
0
VERTEX
8
REGION
10
1434.143567
20
67.039050
30
0.000000
0
VERTEX
8
REGION
10
1436.207307
20
67.495994
30
0.000000
0
VERTEX
8
REGION
10
1438.265261
20
67.978328
30
0.000000
0
VERTEX
8
REGION
10
1440.317116
20
68.485979
30
0.000000
0
SEQEND
8
0
0
POLYLINE
8
REGION
62
8
6
CONTINUOUS
70
0
66
 1
10
0.0
20
0.0
30
0.000000
0
VERTEX
8
REGION
10
1440.317116
20
68.485979
30
0.000000
0
VERTEX
8
REGION
10
1441.358276
20
68.771177
30
0.000000
0
VERTEX
8
REGION
10
1442.388815
20
69.092647
30
0.000000
0
VERTEX
8
REGION
10
1443.407469
20
69.449994
30
0.000000
0
VERTEX
8
REGION
10
1444.412989
20
69.842780
30
0.000000
0
VERTEX
8
REGION
10
1445.404144
20
70.270524
30
0.000000
0
VERTEX
8
REGION
10
1446.379718
20
70.732701
30
0.000000
0
SEQEND
8
0
0
POLYLINE
8
REGION
62
8
6
CONTINUOUS
70
0
66
 1
10
0.0
20
0.0
30
0.000000
0
VERTEX
8
REGION
10
1446.379718
20
70.732701
30
0.000000
0
VERTEX
8
REGION
10
1446.865816
20
70.991579
30
0.000000
0
VERTEX
8
REGION
10
1447.335178
20
71.279690
30
0.000000
0
VERTEX
8
REGION
10
1447.786049
20
71.595957
30
0.000000
0
VERTEX
8
REGION
10
1448.216742
20
71.939195
30
0.000000
0
VERTEX
8
REGION
10
1448.625645
20
72.308122
30
0.000000
0
VERTEX
8
REGION
10
1449.011230
20
72.701356
30
0.000000
0
SEQEND
8
0
0
POLYLINE
8
REGION
62
8
6
CONTINUOUS
70
0
66
 1
10
0.0
20
0.0
30
0.000000
0
VERTEX
8
REGION
10
1449.011230
20
72.701356
30
0.000000
0
VERTEX
8
REGION
10
1449.231040
20
72.964297
30
0.000000
0
VERTEX
8
REGION
10
1449.426023
20
73.246140
30
0.000000
0
VERTEX
8
REGION
10
1449.594564
20
73.544548
30
0.000000
0
VERTEX
8
REGION
10
1449.735265
20
73.857050
30
0.000000
0
VERTEX
8
REGION
10
1449.846961
20
74.181053
30
0.000000
0
VERTEX
8
REGION
10
1449.928725
20
74.513872
30
0.000000
0
VERTEX
8
REGION
10
1449.979879
20
74.852749
30
0.000000
0
VERTEX
8
REGION
10
1450.000000
20
75.194873
30
0.000000
0
SEQEND
8
0
0
LINE
8
REGION
62
8
6
CONTINUOUS
10
1450.000000
20
75.194873
30
0.000000
11
1450.000000
21
80.119133
31
0.000000
0
POLYLINE
8
REGION
62
8
6
CONTINUOUS
70
0
66
 1
10
0.0
20
0.0
30
0.000000
0
VERTEX
8
REGION
10
1450.000000
20
80.119133
30
0.000000
0
VERTEX
8
REGION
10
1449.967243
20
81.173361
30
0.000000
0
VERTEX
8
REGION
10
1449.898134
20
82.225831
30
0.000000
0
VERTEX
8
REGION
10
1449.792756
20
83.275290
30
0.000000
0
VERTEX
8
REGION
10
1449.651232
20
84.320489
30
0.000000
0
VERTEX
8
REGION
10
1449.473733
20
85.360183
30
0.000000
0
VERTEX
8
REGION
10
1449.260469
20
86.393134
30
0.000000
0
VERTEX
8
REGION
10
1449.011694
20
87.418112
30
0.000000
0
SEQEND
8
0
0
POLYLINE
8
REGION
62
8
6
CONTINUOUS
70
0
66
 1
10
0.0
20
0.0
30
0.000000
0
VERTEX
8
REGION
10
1449.011694
20
87.418112
30
0.000000
0
VERTEX
8
REGION
10
1448.678841
20
88.653327
30
0.000000
0
VERTEX
8
REGION
10
1448.316269
20
89.880147
30
0.000000
0
VERTEX
8
REGION
10
1447.924188
20
91.097858
30
0.000000
0
VERTEX
8
REGION
10
1447.502828
20
92.305750
30
0.000000
0
VERTEX
8
REGION
10
1447.052433
20
93.503118
30
0.000000
0
VERTEX
8
REGION
10
1446.573266
20
94.689266
30
0.000000
0
VERTEX
8
REGION
10
1446.065606
20
95.863501
30
0.000000
0
VERTEX
8
REGION
10
1445.529750
20
97.025140
30
0.000000
0
SEQEND
8
0
0
POLYLINE
8
REGION
62
8
6
CONTINUOUS
70
0
66
 1
10
0.0
20
0.0
30
0.000000
0
VERTEX
8
REGION
10
1445.529750
20
97.025140
30
0.000000
0
VERTEX
8
REGION
10
1444.809119
20
98.524278
30
0.000000
0
VERTEX
8
REGION
10
1444.052933
20
100.005798
30
0.000000
0
VERTEX
8
REGION
10
1443.261621
20
101.468860
30
0.000000
0
VERTEX
8
REGION
10
1442.435635
20
102.912628
30
0.000000
0
VERTEX
8
REGION
10
1441.575444
20
104.336283
30
0.000000
0
VERTEX
8
REGION
10
1440.681537
20
105.739014
30
0.000000
0
VERTEX
8
REGION
10
1439.754424
20
107.120022
30
0.000000
0
VERTEX
8
REGION
10
1438.794632
20
108.478522
30
0.000000
0
VERTEX
8
REGION
10
1437.802707
20
109.813740
30
0.000000
0
VERTEX
8
REGION
10
1436.779214
20
111.124917
30
0.000000
0
VERTEX
8
REGION
10
1435.724736
20
112.411306
30
0.000000
0
VERTEX
8
REGION
10
1434.639872
20
113.672175
30
0.000000
0
VERTEX
8
REGION
10
1433.525239
20
114.906807
30
0.000000
0
SEQEND
8
0
0
POLYLINE
8
REGION
62
8
6
CONTINUOUS
70
0
66
 1
10
0.0
20
0.0
30
0.000000
0
VERTEX
8
REGION
10
1433.525239
20
114.906807
30
0.000000
0
VERTEX
8
REGION
10
1432.505927
20
115.927937
30
0.000000
0
VERTEX
8
REGION
10
1431.466347
20
116.928427
30
0.000000
0
VERTEX
8
REGION
10
1430.406918
20
117.907873
30
0.000000
0
VERTEX
8
REGION
10
1429.328066
20
118.865882
30
0.000000
0
VERTEX
8
REGION
10
1428.230223
20
119.802069
30
0.000000
0
VERTEX
8
REGION
10
1427.113832
20
120.716058
30
0.000000
0
SEQEND
8
0
0
POLYLINE
8
REGION
62
8
6
CONTINUOUS
70
0
66
 1
10
0.0
20
0.0
30
0.000000
0
VERTEX
8
REGION
10
1427.113832
20
120.716058
30
0.000000
0
VERTEX
8
REGION
10
1425.561864
20
121.951181
30
0.000000
0
VERTEX
8
REGION
10
1423.990040
20
123.160935
30
0.000000
0
VERTEX
8
REGION
10
1422.398776
20
124.345000
30
0.000000
0
VERTEX
8
REGION
10
1420.788490
20
125.503066
30
0.000000
0
VERTEX
8
REGION
10
1419.159609
20
126.634825
30
0.000000
0
VERTEX
8
REGION
10
1417.512561
20
127.739979
30
0.000000
0
VERTEX
8
REGION
10
1415.847781
20
128.818238
30
0.000000
0
VERTEX
8
REGION
10
1414.165708
20
129.869316
30
0.000000
0
VERTEX
8
REGION
10
1412.466786
20
130.892936
30
0.000000
0
SEQEND
8
0
0
POLYLINE
8
REGION
62
8
6
CONTINUOUS
70
0
66
 1
10
0.0
20
0.0
30
0.000000
0
VERTEX
8
REGION
10
1412.466786
20
130.892936
30
0.000000
0
VERTEX
8
REGION
10
1410.430145
20
132.093474
30
0.000000
0
VERTEX
8
REGION
10
1408.376928
20
133.265436
30
0.000000
0
VERTEX
8
REGION
10
1406.307534
20
134.408593
30
0.000000
0
VERTEX
8
REGION
10
1404.222369
20
135.522722
30
0.000000
0
VERTEX
8
REGION
10
1402.121839
20
136.607605
30
0.000000
0
VERTEX
8
REGION
10
1400.006354
20
137.663030
30
0.000000
0
SEQEND
8
0
0
LINE
8
REGION
62
8
6
CONTINUOUS
10
1400.006354
20
137.663030
30
0.000000
11
1400.006355
21
137.678867
31
0.000000
0
POLYLINE
8
REGION
62
8
6
CONTINUOUS
70
0
66
 1
10
0.0
20
0.0
30
0.000000
0
VERTEX
8
REGION
10
1400.006355
20
137.678867
30
0.000000
0
VERTEX
8
REGION
10
1397.124406
20
139.078408
30
0.000000
0
VERTEX
8
REGION
10
1394.225552
20
140.442589
30
0.000000
0
VERTEX
8
REGION
10
1391.310227
20
141.771206
30
0.000000
0
VERTEX
8
REGION
10
1388.378866
20
143.064059
30
0.000000
0
VERTEX
8
REGION
10
1385.431909
20
144.320956
30
0.000000
0
VERTEX
8
REGION
10
1382.469797
20
145.541707
30
0.000000
0
VERTEX
8
REGION
10
1379.492972
20
146.726131
30
0.000000
0
VERTEX
8
REGION
10
1376.501881
20
147.874050
30
0.000000
0
SEQEND
8
0
0
POLYLINE
8
REGION
62
8
6
CONTINUOUS
70
0
66
 1
10
0.0
20
0.0
30
0.000000
0
VERTEX
8
REGION
10
1376.501881
20
147.874050
30
0.000000
0
VERTEX
8
REGION
10
1372.755289
20
149.273993
30
0.000000
0
VERTEX
8
REGION
10
1368.995028
20
150.636795
30
0.000000
0
VERTEX
8
REGION
10
1365.221466
20
151.962324
30
0.000000
0
VERTEX
8
REGION
10
1361.434974
20
153.250449
30
0.000000
0
VERTEX
8
REGION
10
1357.635921
20
154.501044
30
0.000000
0
VERTEX
8
REGION
10
1353.824679
20
155.713986
30
0.000000
0
VERTEX
8
REGION
10
1350.001622
20
156.889158
30
0.000000
0
SEQEND
8
0
0
POLYLINE
8
REGION
62
8
6
CONTINUOUS
70
0
66
 1
10
0.0
20
0.0
30
0.000000
0
VERTEX
8
REGION
10
1350.001622
20
156.889158
30
0.000000
0
VERTEX
8
REGION
10
1345.625252
20
158.197282
30
0.000000
0
VERTEX
8
REGION
10
1341.239457
20
159.473451
30
0.000000
0
VERTEX
8
REGION
10
1336.844470
20
160.717596
30
0.000000
0
VERTEX
8
REGION
10
1332.440526
20
161.929651
30
0.000000
0
VERTEX
8
REGION
10
1328.027858
20
163.109551
30
0.000000
0
VERTEX
8
REGION
10
1323.606701
20
164.257235
30
0.000000
0
VERTEX
8
REGION
10
1319.177291
20
165.372640
30
0.000000
0
VERTEX
8
REGION
10
1314.739863
20
166.455708
30
0.000000
0
VERTEX
8
REGION
10
1310.294653
20
167.506380
30
0.000000
0
SEQEND
8
0
0
POLYLINE
8
REGION
62
8
6
CONTINUOUS
70
0
66
 1
10
0.0
20
0.0
30
0.000000
0
VERTEX
8
REGION
10
1310.294653
20
167.506380
30
0.000000
0
VERTEX
8
REGION
10
1303.936793
20
168.961867
30
0.000000
0
VERTEX
8
REGION
10
1297.570217
20
170.378740
30
0.000000
0
VERTEX
8
REGION
10
1291.195158
20
171.756948
30
0.000000
0
VERTEX
8
REGION
10
1284.811853
20
173.096440
30
0.000000
0
VERTEX
8
REGION
10
1278.420536
20
174.397166
30
0.000000
0
VERTEX
8
REGION
10
1272.021442
20
175.659079
30
0.000000
0
VERTEX
8
REGION
10
1265.614808
20
176.882132
30
0.000000
0
VERTEX
8
REGION
10
1259.200868
20
178.066280
30
0.000000
0
VERTEX
8
REGION
10
1252.779860
20
179.211479
30
0.000000
0
VERTEX
8
REGION
10
1246.352020
20
180.317687
30
0.000000
0
SEQEND
8
0
0
POLYLINE
8
REGION
62
8
6
CONTINUOUS
70
0
66
 1
10
0.0
20
0.0
30
0.000000
0
VERTEX
8
REGION
10
1246.352020
20
180.317687
30
0.000000
0
VERTEX
8
REGION
10
1238.386627
20
181.649224
30
0.000000
0
VERTEX
8
REGION
10
1230.415327
20
182.944933
30
0.000000
0
VERTEX
8
REGION
10
1222.438282
20
184.204788
30
0.000000
0
VERTEX
8
REGION
10
1214.455653
20
185.428765
30
0.000000
0
VERTEX
8
REGION
10
1206.467602
20
186.616837
30
0.000000
0
VERTEX
8
REGION
10
1198.474289
20
187.768982
30
0.000000
0
VERTEX
8
REGION
10
1190.475877
20
188.885176
30
0.000000
0
VERTEX
8
REGION
10
1182.472528
20
189.965396
30
0.000000
0
VERTEX
8
REGION
10
1174.464402
20
191.009620
30
0.000000
0
VERTEX
8
REGION
10
1166.451662
20
192.017828
30
0.000000
0
SEQEND
8
0
0
POLYLINE
8
REGION
62
8
6
CONTINUOUS
70
0
66
 1
10
0.0
20
0.0
30
0.000000
0
VERTEX
8
REGION
10
1166.451662
20
192.017828
30
0.000000
0
VERTEX
8
REGION
10
1158.227578
20
193.034495
30
0.000000
0
VERTEX
8
REGION
10
1150.000000
20
194.022487
30
0.000000
0
SEQEND
8
0
0
POLYLINE
8
REGION
62
8
6
CONTINUOUS
70
0
66
 1
10
0.0
20
0.0
30
0.000000
0
VERTEX
8
REGION
10
1150.000000
20
194.022487
30
0.000000
0
VERTEX
8
REGION
10
1139.460412
20
195.238821
30
0.000000
0
VERTEX
8
REGION
10
1128.916818
20
196.419918
30
0.000000
0
VERTEX
8
REGION
10
1118.369334
20
197.565764
30
0.000000
0
VERTEX
8
REGION
10
1107.818079
20
198.676347
30
0.000000
0
VERTEX
8
REGION
10
1097.263170
20
199.751653
30
0.000000
0
VERTEX
8
REGION
10
1086.704726
20
200.791671
30
0.000000
0
VERTEX
8
REGION
10
1076.142865
20
201.796390
30
0.000000
0
VERTEX
8
REGION
10
1065.577704
20
202.765797
30
0.000000
0
VERTEX
8
REGION
10
1055.009362
20
203.699883
30
0.000000
0
VERTEX
8
REGION
10
1044.437956
20
204.598637
30
0.000000
0
SEQEND
8
0
0
POLYLINE
8
REGION
62
8
6
CONTINUOUS
70
0
66
 1
10
0.0
20
0.0
30
0.000000
0
VERTEX
8
REGION
10
1044.437956
20
204.598637
30
0.000000
0
VERTEX
8
REGION
10
1031.266072
20
205.679034
30
0.000000
0
VERTEX
8
REGION
10
1018.091456
20
206.725608
30
0.000000
0
VERTEX
8
REGION
10
1004.914198
20
207.738352
30
0.000000
0
VERTEX
8
REGION
10
991.734382
20
208.717258
30
0.000000
0
VERTEX
8
REGION
10
978.552096
20
209.662321
30
0.000000
0
VERTEX
8
REGION
10
965.367427
20
210.573534
30
0.000000
0
VERTEX
8
REGION
10
952.180462
20
211.450891
30
0.000000
0
VERTEX
8
REGION
10
938.991288
20
212.294386
30
0.000000
0
VERTEX
8
REGION
10
925.799992
20
213.104014
30
0.000000
0
VERTEX
8
REGION
10
912.606660
20
213.879770
30
0.000000
0
VERTEX
8
REGION
10
899.411380
20
214.621648
30
0.000000
0
SEQEND
8
0
0
POLYLINE
8
REGION
62
8
6
CONTINUOUS
70
0
66
 1
10
0.0
20
0.0
30
0.000000
0
VERTEX
8
REGION
10
899.411380
20
214.621648
30
0.000000
0
VERTEX
8
REGION
10
882.032283
20
215.558936
30
0.000000
0
VERTEX
8
REGION
10
864.651225
20
216.459144
30
0.000000
0
VERTEX
8
REGION
10
847.268287
20
217.322269
30
0.000000
0
VERTEX
8
REGION
10
829.883546
20
218.148307
30
0.000000
0
VERTEX
8
REGION
10
812.497083
20
218.937254
30
0.000000
0
VERTEX
8
REGION
10
795.108977
20
219.689106
30
0.000000
0
VERTEX
8
REGION
10
777.719306
20
220.403860
30
0.000000
0
VERTEX
8
REGION
10
760.328149
20
221.081513
30
0.000000
0
VERTEX
8
REGION
10
742.935587
20
221.722062
30
0.000000
0
VERTEX
8
REGION
10
725.541697
20
222.325504
30
0.000000
0
VERTEX
8
REGION
10
708.146560
20
222.891835
30
0.000000
0
SEQEND
8
0
0
LINE
8
REGION
62
8
6
CONTINUOUS
10
708.146560
20
222.891835
30
0.000000
11
700.820278
21
223.124166
31
0.000000
0
LINE
8
REGION
62
8
6
CONTINUOUS
10
700.820278
20
223.124166
30
0.000000
11
693.447487
21
223.357972
31
0.000000
0
LINE
8
REGION
62
8
6
CONTINUOUS
10
693.447487
20
223.357972
30
0.000000
11
686.027721
21
223.582926
31
0.000000
0
LINE
8
REGION
62
8
6
CONTINUOUS
10
686.027721
20
223.582926
30
0.000000
11
678.561153
21
223.809300
31
0.000000
0
LINE
8
REGION
62
8
6
CONTINUOUS
10
678.561153
20
223.809300
30
0.000000
11
671.047333
21
224.026823
31
0.000000
0
LINE
8
REGION
62
8
6
CONTINUOUS
10
671.047333
20
224.026823
30
0.000000
11
663.486419
21
224.245709
31
0.000000
0
LINE
8
REGION
62
8
6
CONTINUOUS
10
663.486419
20
224.245709
30
0.000000
11
655.877977
21
224.455746
31
0.000000
0
LINE
8
REGION
62
8
6
CONTINUOUS
10
655.877977
20
224.455746
30
0.000000
11
648.222148
21
224.667092
31
0.000000
0
LINE
8
REGION
62
8
6
CONTINUOUS
10
648.222148
20
224.667092
30
0.000000
11
640.236910
21
224.876800
31
0.000000
0
LINE
8
REGION
62
8
6
CONTINUOUS
10
640.236910
20
224.876800
30
0.000000
11
632.200450
21
225.087854
31
0.000000
0
LINE
8
REGION
62
8
6
CONTINUOUS
10
632.200450
20
225.087854
30
0.000000
11
624.112267
21
225.286885
31
0.000000
0
LINE
8
REGION
62
8
6
CONTINUOUS
10
624.112267
20
225.286885
30
0.000000
11
615.972532
21
225.486931
31
0.000000
0
LINE
8
REGION
62
8
6
CONTINUOUS
10
615.972532
20
225.486931
30
0.000000
11
607.781087
21
225.688248
31
0.000000
0
LINE
8
REGION
62
8
6
CONTINUOUS
10
607.781087
20
225.688248
30
0.000000
11
599.537396
21
225.874946
31
0.000000
0
LINE
8
REGION
62
8
6
CONTINUOUS
10
599.537396
20
225.874946
30
0.000000
11
591.241667
21
226.062573
31
0.000000
0
LINE
8
REGION
62
8
6
CONTINUOUS
10
591.241667
20
226.062573
30
0.000000
11
582.893741
21
226.251379
31
0.000000
0
LINE
8
REGION
62
8
6
CONTINUOUS
10
582.893741
20
226.251379
30
0.000000
11
574.493113
21
226.425416
31
0.000000
0
LINE
8
REGION
62
8
6
CONTINUOUS
10
574.493113
20
226.425416
30
0.000000
11
565.730958
21
226.606688
31
0.000000
0
LINE
8
REGION
62
8
6
CONTINUOUS
10
565.730958
20
226.606688
30
0.000000
11
556.912204
21
226.789131
31
0.000000
0
LINE
8
REGION
62
8
6
CONTINUOUS
10
556.912204
20
226.789131
30
0.000000
11
548.036344
21
226.956053
31
0.000000
0
LINE
8
REGION
62
8
6
CONTINUOUS
10
548.036344
20
226.956053
30
0.000000
11
539.103522
21
227.123781
31
0.000000
0
LINE
8
REGION
62
8
6
CONTINUOUS
10
539.103522
20
227.123781
30
0.000000
11
530.113561
21
227.292582
31
0.000000
0
LINE
8
REGION
62
8
6
CONTINUOUS
10
530.113561
20
227.292582
30
0.000000
11
521.065985
21
227.445809
31
0.000000
0
LINE
8
REGION
62
8
6
CONTINUOUS
10
521.065985
20
227.445809
30
0.000000
11
511.960907
21
227.599748
31
0.000000
0
LINE
8
REGION
62
8
6
CONTINUOUS
10
511.960907
20
227.599748
30
0.000000
11
502.798151
21
227.754661
31
0.000000
0
LINE
8
REGION
62
8
6
CONTINUOUS
10
502.798151
20
227.754661
30
0.000000
11
493.577269
21
227.893840
31
0.000000
0
LINE
8
REGION
62
8
6
CONTINUOUS
10
493.577269
20
227.893840
30
0.000000
11
483.959149
21
228.038749
31
0.000000
0
LINE
8
REGION
62
8
6
CONTINUOUS
10
483.959149
20
228.038749
30
0.000000
11
474.278484
21
228.184600
31
0.000000
0
LINE
8
REGION
62
8
6
CONTINUOUS
10
474.278484
20
228.184600
30
0.000000
11
464.534825
21
228.313906
31
0.000000
0
LINE
8
REGION
62
8
6
CONTINUOUS
10
464.534825
20
228.313906
30
0.000000
11
454.728219
21
228.443770
31
0.000000
0
LINE
8
REGION
62
8
6
CONTINUOUS
10
454.728219
20
228.443770
30
0.000000
11
444.858466
21
228.574470
31
0.000000
0
LINE
8
REGION
62
8
6
CONTINUOUS
10
444.858466
20
228.574470
30
0.000000
11
434.925152
21
228.688569
31
0.000000
0
LINE
8
REGION
62
8
6
CONTINUOUS
10
434.925152
20
228.688569
30
0.000000
11
424.928290
21
228.803122
31
0.000000
0
LINE
8
REGION
62
8
6
CONTINUOUS
10
424.928290
20
228.803122
30
0.000000
11
414.867682
21
228.918405
31
0.000000
0
LINE
8
REGION
62
8
6
CONTINUOUS
10
414.867682
20
228.918405
30
0.000000
11
404.742944
21
229.016915
31
0.000000
0
LINE
8
REGION
62
8
6
CONTINUOUS
10
404.742944
20
229.016915
30
0.000000
11
394.181589
21
229.119393
31
0.000000
0
LINE
8
REGION
62
8
6
CONTINUOUS
10
394.181589
20
229.119393
30
0.000000
11
383.551107
21
229.222542
31
0.000000
0
LINE
8
REGION
62
8
6
CONTINUOUS
10
383.551107
20
229.222542
30
0.000000
11
372.851102
21
229.306699
31
0.000000
0
LINE
8
REGION
62
8
6
CONTINUOUS
10
372.851102
20
229.306699
30
0.000000
11
362.081511
21
229.389473
31
0.000000
0
LINE
8
REGION
62
8
6
CONTINUOUS
10
362.081511
20
229.389473
30
0.000000
11
351.242120
21
229.471815
31
0.000000
0
LINE
8
REGION
62
8
6
CONTINUOUS
10
351.242120
20
229.471815
30
0.000000
11
340.332709
21
229.554689
31
0.000000
0
LINE
8
REGION
62
8
6
CONTINUOUS
10
340.332709
20
229.554689
30
0.000000
11
329.352916
21
229.616260
31
0.000000
0
LINE
8
REGION
62
8
6
CONTINUOUS
10
329.352916
20
229.616260
30
0.000000
11
318.302652
21
229.676263
31
0.000000
0
LINE
8
REGION
62
8
6
CONTINUOUS
10
318.302652
20
229.676263
30
0.000000
11
307.181701
21
229.735646
31
0.000000
0
LINE
8
REGION
62
8
6
CONTINUOUS
10
307.181701
20
229.735646
30
0.000000
11
295.580700
21
229.797593
31
0.000000
0
LINE
8
REGION
62
8
6
CONTINUOUS
10
295.580700
20
229.797593
30
0.000000
11
283.903187
21
229.837133
31
0.000000
0
LINE
8
REGION
62
8
6
CONTINUOUS
10
283.903187
20
229.837133
30
0.000000
11
272.149007
21
229.874905
31
0.000000
0
LINE
8
REGION
62
8
6
CONTINUOUS
10
272.149007
20
229.874905
30
0.000000
11
260.317918
21
229.911907
31
0.000000
0
LINE
8
REGION
62
8
6
CONTINUOUS
10
260.317918
20
229.911907
30
0.000000
11
248.409672
21
229.949150
31
0.000000
0
LINE
8
REGION
62
8
6
CONTINUOUS
10
248.409672
20
229.949150
30
0.000000
11
236.423974
21
229.963738
31
0.000000
0
LINE
8
REGION
62
8
6
CONTINUOUS
10
236.423974
20
229.963738
30
0.000000
11
224.360629
21
229.977418
31
0.000000
0
LINE
8
REGION
62
8
6
CONTINUOUS
10
224.360629
20
229.977418
30
0.000000
11
212.219388
21
229.991187
31
0.000000
0
LINE
8
REGION
62
8
6
CONTINUOUS
10
212.219388
20
229.991187
30
0.000000
11
199.999997
21
229.991694
31
0.000000
0
LINE
8
REGION
62
8
6
CONTINUOUS
10
199.999997
20
229.991694
30
0.000000
11
0.000000
21
230.000000
31
0.000000
0
LINE
8
REGION
62
8
6
CONTINUOUS
10
0.000000
20
0.000000
30
0.000000
11
20.701318
21
0.101283
31
0.000000
0
LINE
8
REGION
62
8
6
CONTINUOUS
10
20.701318
20
0.101283
30
0.000000
11
41.283789
21
0.201986
31
0.000000
0
LINE
8
REGION
62
8
6
CONTINUOUS
10
41.283789
20
0.201986
30
0.000000
11
51.530154
21
0.268816
31
0.000000
0
LINE
8
REGION
62
8
6
CONTINUOUS
10
51.530154
20
0.268816
30
0.000000
11
61.746540
21
0.337908
31
0.000000
0
LINE
8
REGION
62
8
6
CONTINUOUS
10
61.746540
20
0.337908
30
0.000000
11
71.932857
21
0.409983
31
0.000000
0
LINE
8
REGION
62
8
6
CONTINUOUS
10
71.932857
20
0.409983
30
0.000000
11
82.089018
21
0.485510
31
0.000000
0
LINE
8
REGION
62
8
6
CONTINUOUS
10
82.089018
20
0.485510
30
0.000000
11
92.214944
21
0.563678
31
0.000000
0
LINE
8
REGION
62
8
6
CONTINUOUS
10
92.214944
20
0.563678
30
0.000000
11
102.310564
21
0.643043
31
0.000000
0
LINE
8
REGION
62
8
6
CONTINUOUS
10
102.310564
20
0.643043
30
0.000000
11
112.375808
21
0.722170
31
0.000000
0
LINE
8
REGION
62
8
6
CONTINUOUS
10
112.375808
20
0.722170
30
0.000000
11
131.555974
21
0.908273
31
0.000000
0
LINE
8
REGION
62
8
6
CONTINUOUS
10
131.555974
20
0.908273
30
0.000000
11
150.623950
21
1.093288
31
0.000000
0
LINE
8
REGION
62
8
6
CONTINUOUS
10
150.623950
20
1.093288
30
0.000000
11
169.578813
21
1.309039
31
0.000000
0
LINE
8
REGION
62
8
6
CONTINUOUS
10
169.578813
20
1.309039
30
0.000000
11
188.420313
21
1.523500
31
0.000000
0
LINE
8
REGION
62
8
6
CONTINUOUS
10
188.420313
20
1.523500
30
0.000000
11
207.147479
21
1.768051
31
0.000000
0
LINE
8
REGION
62
8
6
CONTINUOUS
10
207.147479
20
1.768051
30
0.000000
11
225.760109
21
2.011107
31
0.000000
0
LINE
8
REGION
62
8
6
CONTINUOUS
10
225.760109
20
2.011107
30
0.000000
11
244.257184
21
2.283611
31
0.000000
0
LINE
8
REGION
62
8
6
CONTINUOUS
10
244.257184
20
2.283611
30
0.000000
11
262.638550
21
2.554410
31
0.000000
0
LINE
8
REGION
62
8
6
CONTINUOUS
10
262.638550
20
2.554410
30
0.000000
11
280.903150
21
2.853485
31
0.000000
0
LINE
8
REGION
62
8
6
CONTINUOUS
10
280.903150
20
2.853485
30
0.000000
11
297.778687
21
3.129814
31
0.000000
0
LINE
8
REGION
62
8
6
CONTINUOUS
10
297.778687
20
3.129814
30
0.000000
11
314.552269
21
3.431012
31
0.000000
0
LINE
8
REGION
62
8
6
CONTINUOUS
10
314.552269
20
3.431012
30
0.000000
11
331.223882
21
3.730379
31
0.000000
0
LINE
8
REGION
62
8
6
CONTINUOUS
10
331.223882
20
3.730379
30
0.000000
11
347.792569
21
4.053610
31
0.000000
0
LINE
8
REGION
62
8
6
CONTINUOUS
10
347.792569
20
4.053610
30
0.000000
11
364.258342
21
4.374832
31
0.000000
0
LINE
8
REGION
62
8
6
CONTINUOUS
10
364.258342
20
4.374832
30
0.000000
11
380.620211
21
4.719415
31
0.000000
0
LINE
8
REGION
62
8
6
CONTINUOUS
10
380.620211
20
4.719415
30
0.000000
11
396.878219
21
5.061809
31
0.000000
0
LINE
8
REGION
62
8
6
CONTINUOUS
10
396.878219
20
5.061809
30
0.000000
11
413.031346
21
5.427062
31
0.000000
0
LINE
8
REGION
62
8
6
CONTINUOUS
10
413.031346
20
5.427062
30
0.000000
11
429.079668
21
5.789944
31
0.000000
0
LINE
8
REGION
62
8
6
CONTINUOUS
10
429.079668
20
5.789944
30
0.000000
11
443.904646
21
6.147376
31
0.000000
0
LINE
8
REGION
62
8
6
CONTINUOUS
10
443.904646
20
6.147376
30
0.000000
11
458.638249
21
6.502605
31
0.000000
0
LINE
8
REGION
62
8
6
CONTINUOUS
10
458.638249
20
6.502605
30
0.000000
11
473.279571
21
6.876761
31
0.000000
0
LINE
8
REGION
62
8
6
CONTINUOUS
10
473.279571
20
6.876761
30
0.000000
11
487.828758
21
7.248563
31
0.000000
0
LINE
8
REGION
62
8
6
CONTINUOUS
10
487.828758
20
7.248563
30
0.000000
11
502.284878
21
7.638896
31
0.000000
0
LINE
8
REGION
62
8
6
CONTINUOUS
10
502.284878
20
7.638896
30
0.000000
11
516.648103
21
8.026720
31
0.000000
0
LINE
8
REGION
62
8
6
CONTINUOUS
10
516.648103
20
8.026720
30
0.000000
11
530.917476
21
8.432682
31
0.000000
0
LINE
8
REGION
62
8
6
CONTINUOUS
10
530.917476
20
8.432682
30
0.000000
11
545.093192
21
8.835980
31
0.000000
0
LINE
8
REGION
62
8
6
CONTINUOUS
10
545.093192
20
8.835980
30
0.000000
11
559.174284
21
9.256667
31
0.000000
0
LINE
8
REGION
62
8
6
CONTINUOUS
10
559.174284
20
9.256667
30
0.000000
11
572.180613
21
9.645244
31
0.000000
0
LINE
8
REGION
62
8
6
CONTINUOUS
10
572.180613
20
9.645244
30
0.000000
11
579.999903
21
9.890093
31
0.000000
0
LINE
8
REGION
62
8
6
CONTINUOUS
10
579.999903
20
9.890093
30
0.000000
11
585.104411
21
10.051460
31
0.000000
0
LINE
8
REGION
62
8
6
CONTINUOUS
10
585.104411
20
10.051460
30
0.000000
11
597.945891
21
10.458172
31
0.000000
0
LINE
8
REGION
62
8
6
CONTINUOUS
10
597.945891
20
10.458172
30
0.000000
11
610.704846
21
10.862271
31
0.000000
0
LINE
8
REGION
62
8
6
CONTINUOUS
10
610.704846
20
10.862271
30
0.000000
11
623.380302
21
11.284233
31
0.000000
0
LINE
8
REGION
62
8
6
CONTINUOUS
10
623.380302
20
11.284233
30
0.000000
11
635.972621
21
11.703427
31
0.000000
0
LINE
8
REGION
62
8
6
CONTINUOUS
10
635.972621
20
11.703427
30
0.000000
11
648.480915
21
12.136865
31
0.000000
0
LINE
8
REGION
62
8
6
CONTINUOUS
10
648.480915
20
12.136865
30
0.000000
11
660.905460
21
12.567400
31
0.000000
0
LINE
8
REGION
62
8
6
CONTINUOUS
10
660.905460
20
12.567400
30
0.000000
11
673.245230
21
13.015222
31
0.000000
0
LINE
8
REGION
62
8
6
CONTINUOUS
10
673.245230
20
13.015222
30
0.000000
11
684.641678
21
13.429184
31
0.000000
0
LINE
8
REGION
62
8
6
CONTINUOUS
10
684.641678
20
13.429184
30
0.000000
11
695.964965
21
13.840488
31
0.000000
0
LINE
8
REGION
62
8
6
CONTINUOUS
10
695.964965
20
13.840488
30
0.000000
11
707.214041
21
14.270590
31
0.000000
0
LINE
8
REGION
62
8
6
CONTINUOUS
10
707.214041
20
14.270590
30
0.000000
11
718.389449
21
14.698210
31
0.000000
0
LINE
8
REGION
62
8
6
CONTINUOUS
10
718.389449
20
14.698210
30
0.000000
11
729.490958
21
15.123003
31
0.000000
0
LINE
8
REGION
62
8
6
CONTINUOUS
10
729.490958
20
15.123003
30
0.000000
11
740.517496
21
15.565884
31
0.000000
0
LINE
8
REGION
62
8
6
CONTINUOUS
10
740.517496
20
15.565884
30
0.000000
11
751.469629
21
16.006108
31
0.000000
0
LINE
8
REGION
62
8
6
CONTINUOUS
10
751.469629
20
16.006108
30
0.000000
11
762.347122
21
16.443332
31
0.000000
0
LINE
8
REGION
62
8
6
CONTINUOUS
10
762.347122
20
16.443332
30
0.000000
11
773.148899
21
16.897710
31
0.000000
0
LINE
8
REGION
62
8
6
CONTINUOUS
10
773.148899
20
16.897710
30
0.000000
11
783.123775
21
17.317615
31
0.000000
0
LINE
8
REGION
62
8
6
CONTINUOUS
10
783.123775
20
17.317615
30
0.000000
11
793.033515
21
17.734778
31
0.000000
0
LINE
8
REGION
62
8
6
CONTINUOUS
10
793.033515
20
17.734778
30
0.000000
11
802.877153
21
18.167045
31
0.000000
0
LINE
8
REGION
62
8
6
CONTINUOUS
10
802.877153
20
18.167045
30
0.000000
11
812.655247
21
18.596713
31
0.000000
0
LINE
8
REGION
62
8
6
CONTINUOUS
10
812.655247
20
18.596713
30
0.000000
11
822.367613
21
19.023493
31
0.000000
0
LINE
8
REGION
62
8
6
CONTINUOUS
10
822.367613
20
19.023493
30
0.000000
11
832.013267
21
19.464819
31
0.000000
0
LINE
8
REGION
62
8
6
CONTINUOUS
10
832.013267
20
19.464819
30
0.000000
11
841.592785
21
19.903395
31
0.000000
0
LINE
8
REGION
62
8
6
CONTINUOUS
10
841.592785
20
19.903395
30
0.000000
11
851.105980
21
20.338934
31
0.000000
0
LINE
8
REGION
62
8
6
CONTINUOUS
10
851.105980
20
20.338934
30
0.000000
11
860.551866
21
20.788272
31
0.000000
0
LINE
8
REGION
62
8
6
CONTINUOUS
10
860.551866
20
20.788272
30
0.000000
11
869.273735
21
21.203428
31
0.000000
0
LINE
8
REGION
62
8
6
CONTINUOUS
10
869.273735
20
21.203428
30
0.000000
11
877.937779
21
21.615832
31
0.000000
0
LINE
8
REGION
62
8
6
CONTINUOUS
10
877.937779
20
21.615832
30
0.000000
11
886.543113
21
22.040422
31
0.000000
0
LINE
8
REGION
62
8
6
CONTINUOUS
10
886.543113
20
22.040422
30
0.000000
11
895.090293
21
22.462376
31
0.000000
0
LINE
8
REGION
62
8
6
CONTINUOUS
10
895.090293
20
22.462376
30
0.000000
11
903.579172
21
22.881452
31
0.000000
0
LINE
8
REGION
62
8
6
CONTINUOUS
10
903.579172
20
22.881452
30
0.000000
11
912.008854
21
23.312275
31
0.000000
0
LINE
8
REGION
62
8
6
CONTINUOUS
10
912.008854
20
23.312275
30
0.000000
11
920.379905
21
23.740334
31
0.000000
0
LINE
8
REGION
62
8
6
CONTINUOUS
10
920.379905
20
23.740334
30
0.000000
11
928.692177
21
24.165386
31
0.000000
0
LINE
8
REGION
62
8
6
CONTINUOUS
10
928.692177
20
24.165386
30
0.000000
11
936.944723
21
24.602560
31
0.000000
0
LINE
8
REGION
62
8
6
CONTINUOUS
10
936.944723
20
24.602560
30
0.000000
11
944.563932
21
25.007572
31
0.000000
0
LINE
8
REGION
62
8
6
CONTINUOUS
10
944.563932
20
25.007572
30
0.000000
11
952.131899
21
25.410551
31
0.000000
0
LINE
8
REGION
62
8
6
CONTINUOUS
10
952.131899
20
25.410551
30
0.000000
11
959.648534
21
25.810796
31
0.000000
0
LINE
8
REGION
62
8
6
CONTINUOUS
10
959.648534
20
25.810796
30
0.000000
11
967.112894
21
26.223247
31
0.000000
0
LINE
8
REGION
62
8
6
CONTINUOUS
10
967.112894
20
26.223247
30
0.000000
11
974.525594
21
26.634160
31
0.000000
0
LINE
8
REGION
62
8
6
CONTINUOUS
10
974.525594
20
26.634160
30
0.000000
11
981.886542
21
27.042859
31
0.000000
0
LINE
8
REGION
62
8
6
CONTINUOUS
10
981.886542
20
27.042859
30
0.000000
11
989.195647
21
27.448681
31
0.000000
0
LINE
8
REGION
62
8
6
CONTINUOUS
10
989.195647
20
27.448681
30
0.000000
11
996.451958
21
27.866130
31
0.000000
0
LINE
8
REGION
62
8
6
CONTINUOUS
10
996.451958
20
27.866130
30
0.000000
11
1003.656102
21
28.281783
31
0.000000
0
LINE
8
REGION
62
8
6
CONTINUOUS
10
1003.656102
20
28.281783
30
0.000000
11
1010.306825
21
28.666107
31
0.000000
0
LINE
8
REGION
62
8
6
CONTINUOUS
10
1010.306825
20
28.666107
30
0.000000
11
1016.912307
21
29.047816
31
0.000000
0
LINE
8
REGION
62
8
6
CONTINUOUS
10
1016.912307
20
29.047816
30
0.000000
11
1023.471686
21
29.439752
31
0.000000
0
LINE
8
REGION
62
8
6
CONTINUOUS
10
1023.471686
20
29.439752
30
0.000000
11
1029.985552
21
29.830091
31
0.000000
0
LINE
8
REGION
62
8
6
CONTINUOUS
10
1029.985552
20
29.830091
30
0.000000
11
1036.453834
21
30.218256
31
0.000000
0
LINE
8
REGION
62
8
6
CONTINUOUS
10
1036.453834
20
30.218256
30
0.000000
11
1042.876465
21
30.603682
31
0.000000
0
LINE
8
REGION
62
8
6
CONTINUOUS
10
1042.876465
20
30.603682
30
0.000000
11
1049.252577
21
30.998854
31
0.000000
0
LINE
8
REGION
62
8
6
CONTINUOUS
10
1049.252577
20
30.998854
30
0.000000
11
1055.582769
21
31.392232
31
0.000000
0
LINE
8
REGION
62
8
6
CONTINUOUS
10
1055.582769
20
31.392232
30
0.000000
11
1061.866969
21
31.783257
31
0.000000
0
LINE
8
REGION
62
8
6
CONTINUOUS
10
1061.866969
20
31.783257
30
0.000000
11
1067.667997
21
32.144217
31
0.000000
0
LINE
8
REGION
62
8
6
CONTINUOUS
10
1067.667997
20
32.144217
30
0.000000
11
1073.428427
21
32.513814
31
0.000000
0
LINE
8
REGION
62
8
6
CONTINUOUS
10
1073.428427
20
32.513814
30
0.000000
11
1079.148820
21
32.881802
31
0.000000
0
LINE
8
REGION
62
8
6
CONTINUOUS
10
1079.148820
20
32.881802
30
0.000000
11
1084.829124
21
33.247689
31
0.000000
0
LINE
8
REGION
62
8
6
CONTINUOUS
10
1084.829124
20
33.247689
30
0.000000
11
1090.469287
21
33.610991
31
0.000000
0
LINE
8
REGION
62
8
6
CONTINUOUS
10
1090.469287
20
33.610991
30
0.000000
11
1096.068664
21
33.980339
31
0.000000
0
LINE
8
REGION
62
8
6
CONTINUOUS
10
1096.068664
20
33.980339
30
0.000000
11
1101.627737
21
34.347029
31
0.000000
0
POLYLINE
8
REGION
62
8
6
CONTINUOUS
70
0
66
 1
10
0.0
20
0.0
30
0.000000
0
VERTEX
8
REGION
10
1101.627737
20
34.347029
30
0.000000
0
VERTEX
8
REGION
10
1117.753722
20
35.432489
30
0.000000
0
VERTEX
8
REGION
10
1133.877812
20
36.545748
30
0.000000
0
VERTEX
8
REGION
10
1149.999959
20
37.686803
30
0.000000
0
SEQEND
8
0
0
LINE
8
REGION
62
8
6
CONTINUOUS
10
1149.999959
20
37.686803
30
0.000000
11
1150.000000
21
37.686232
31
0.000000
0
LINE
8
REGION
62
8
6
CONTINUOUS
10
1150.000000
20
37.686232
30
0.000000
11
1150.000000
21
37.686806
31
0.000000
0
POLYLINE
8
REGION
62
8
6
CONTINUOUS
70
0
66
 1
10
0.0
20
0.0
30
0.000000
0
VERTEX
8
REGION
10
1150.000000
20
37.686806
30
0.000000
0
VERTEX
8
REGION
10
1164.738371
20
38.749421
30
0.000000
0
VERTEX
8
REGION
10
1179.474435
20
39.843574
30
0.000000
0
VERTEX
8
REGION
10
1194.208123
20
40.969259
30
0.000000
0
VERTEX
8
REGION
10
1208.939369
20
42.126471
30
0.000000
0
VERTEX
8
REGION
10
1223.668105
20
43.315206
30
0.000000
0
VERTEX
8
REGION
10
1238.394263
20
44.535456
30
0.000000
0
VERTEX
8
REGION
10
1253.117776
20
45.787218
30
0.000000
0
VERTEX
8
REGION
10
1267.838576
20
47.070485
30
0.000000
0
VERTEX
8
REGION
10
1282.556597
20
48.385251
30
0.000000
0
SEQEND
8
0
0
POLYLINE
8
REGION
62
8
6
CONTINUOUS
70
0
66
 1
10
0.0
20
0.0
30
0.000000
0
VERTEX
8
REGION
10
1282.556597
20
48.385251
30
0.000000
0
VERTEX
8
REGION
10
1293.805843
20
49.424474
30
0.000000
0
VERTEX
8
REGION
10
1305.051767
20
50.499059
30
0.000000
0
VERTEX
8
REGION
10
1316.294256
20
51.608995
30
0.000000
0
VERTEX
8
REGION
10
1327.533200
20
52.754273
30
0.000000
0
VERTEX
8
REGION
10
1338.768488
20
53.934879
30
0.000000
0
VERTEX
8
REGION
10
1350.000009
20
55.150803
30
0.000000
0
SEQEND
8
0
0
LINE
8
0
6
CONTINUOUS
10
0.000000
20
230.000000
30
0.000000
11
0.000000
21
0.000000
31
0.000000
0
ENDSEC
0
EOF
