0
SECTION
2
HEADER
0
ENDSEC
0
SECTION
2
TABLES
0
TABLE
2
LTYPE
0
LTYPE
2
Continuous
70
0
3
Solid line
72
65
73
0
40
0.000000
0
ENDTAB
0
TABLE
2
LAYER
0
LAYER
2
0
70
0
62
7
6
Continuous
0
LAYER
2
Airfoils
70
0
62
7
6
Continuous
0
LAYER
2
Background
70
0
62
7
6
Continuous
0
LAYER
2
Rudder
70
0
62
7
6
Continuous
0
LAYER
2
Title_Text
70
0
62
7
6
Continuous
0
ENDTAB
0
TABLE
2
STYLE
0
STYLE
2
Standard
3
Arial
70
0
71
0
40
7.500000
41
1.000000
42
7.500000
50
0.000000
0
ENDTAB
0
TABLE
2
DIMSTYLE
0
DIMSTYLE
2
Standard
70
0
3

4

5

6
CLOSEDFILLED
7
CLOSEDFILLED
40
1.000000
41
2.000000
42
1.000000
43
5.000000
44
2.000000
45
0.000000
46
0.000000
47
0.000000
48
0.000000
140
5.000000
141
2.000000
142
0.000000
143
25.400000
144
1.000000
145
0.000000
146
1.000000
147
2.000000
71
0
72
0
73
0
74
1
75
0
76
0
77
0
78
0
170
0
171
4
172
0
173
1
174
0
175
0
176
0
177
-2
178
-2
271
4
272
4
273
1
274
4
275
0
280
0
281
0
282
0
283
1
288
0
0
ENDTAB
0
ENDSEC
0
SECTION
2
BLOCKS
0
BLOCK
8
0
2
*B
70
1
10
1134.489634
20
103.070982
3
*B
0
LINE
8
Airfoils
62
7
6
Continuous
10
1134.486651
20
93.458776
30
0.000000
11
1134.486651
21
64.302526
31
0.000000
0
LINE
8
Airfoils
62
7
6
Continuous
10
1134.486651
20
113.130651
30
0.000000
11
1134.486651
21
142.302526
31
0.000000
0
LINE
8
Airfoils
6
Continuous
10
1148.997016
20
64.298776
30
0.000000
11
1132.489204
21
64.298776
31
0.000000
0
LINE
8
Airfoils
6
Continuous
10
1148.997016
20
142.298776
30
0.000000
11
1132.489204
21
142.298776
31
0.000000
0
POINT
8
Airfoils
6
Continuous
10
1150.000000
20
64.294982
0
POINT
8
Airfoils
6
Continuous
10
1150.000000
20
142.294982
0
ENDBLK
0
BLOCK
8
0
2
*B1
70
1
10
0.000000
20
0.000000
3
*B1
0
TEXT
8
Airfoils
62
7
6
Continuous
7
Standard
10
1134.489634
20
103.294982
72
4
73
0
11
1134.489634
21
103.294982
40
7.466667
41
1.000000
50
0.000000
1
78
0
ENDBLK
0
BLOCK
8
0
2
*B10
70
1
10
-150.832379
20
68.610092
3
*B10
0
LINE
8
0
62
7
6
Continuous
10
-167.460016
20
55.162389
30
0.000000
11
-162.131891
21
68.693639
31
0.000000
0
LINE
8
0
62
7
6
Continuous
10
-162.131891
20
68.693639
30
0.000000
11
-158.131891
21
68.693639
31
0.000000
0
LINE
8
0
6
Continuous
10
-170.375605
20
52.835610
30
0.000000
11
-166.375605
21
52.835610
31
0.000000
0
LINE
8
0
6
Continuous
10
-168.375605
20
50.835610
30
0.000000
11
-168.375605
21
54.835610
31
0.000000
0
POINT
8
0
6
Continuous
10
-167.457032
20
55.158595
0
ENDBLK
0
BLOCK
8
0
2
*B11
70
1
10
0.000000
20
0.000000
3
*B11
0
TEXT
8
0
62
7
6
Continuous
7
Standard
10
-150.832379
20
68.690092
72
4
73
0
11
-150.832379
21
68.690092
40
2.666666
41
1.000000
50
0.000000
1
R2.5
0
ENDBLK
0
BLOCK
8
0
2
*B12
70
1
10
-239.523346
20
75.480620
3
*B12
0
LINE
8
0
62
7
6
Continuous
10
-257.334794
20
60.490427
30
0.000000
11
-250.823346
21
75.560620
31
0.000000
0
LINE
8
0
62
7
6
Continuous
10
-250.823346
20
75.560620
30
0.000000
11
-246.823346
21
75.560620
31
0.000000
0
LINE
8
0
6
Continuous
10
-261.317967
20
55.900543
30
0.000000
11
-257.317967
21
55.900543
31
0.000000
0
LINE
8
0
6
Continuous
10
-259.317967
20
53.900543
30
0.000000
11
-259.317967
21
57.900543
31
0.000000
0
POINT
8
0
6
Continuous
10
-257.334794
20
60.490427
0
ENDBLK
0
BLOCK
8
0
2
*B13
70
1
10
0.000000
20
0.000000
3
*B13
0
TEXT
8
0
62
7
6
Continuous
7
Standard
10
-239.523346
20
75.560620
72
4
73
0
11
-239.523346
21
75.560620
40
2.666666
41
1.000000
50
0.000000
1
R5.0
0
ENDBLK
0
BLOCK
8
0
2
*B14
70
1
10
-299.028398
20
68.523730
3
*B14
0
LINE
8
0
62
7
6
Continuous
10
-314.565263
20
55.184540
30
0.000000
11
-310.328398
21
68.603730
31
0.000000
0
LINE
8
0
62
7
6
Continuous
10
-310.328398
20
68.603730
30
0.000000
11
-306.328398
21
68.603730
31
0.000000
0
LINE
8
0
6
Continuous
10
-317.317967
20
52.800543
30
0.000000
11
-313.317967
21
52.800543
31
0.000000
0
LINE
8
0
6
Continuous
10
-315.317967
20
50.800543
30
0.000000
11
-315.317967
21
54.800543
31
0.000000
0
POINT
8
0
6
Continuous
10
-314.565263
20
55.184540
0
ENDBLK
0
BLOCK
8
0
2
*B15
70
1
10
0.000000
20
0.000000
3
*B15
0
TEXT
8
0
62
7
6
Continuous
7
Standard
10
-299.028398
20
68.603730
72
4
73
0
11
-299.028398
21
68.603730
40
2.666666
41
1.000000
50
0.000000
1
R2.5
0
ENDBLK
0
BLOCK
8
0
2
*B16
70
1
10
-206.653711
20
25.417285
3
*B16
0
LINE
8
Airfoils
62
7
6
Continuous
10
-231.450008
20
50.856586
30
0.000000
11
-225.379695
21
25.997211
31
0.000000
0
POLYLINE
8
Airfoils
6
Continuous
70
0
66
 1
10
0.0
20
0.0
30
0.000000
0
VERTEX
8
Airfoils
10
-231.447024
20
50.852792
30
0.000000
0
VERTEX
8
Airfoils
10
-225.378711
20
25.992285
30
0.000000
0
SEQEND
8
0
0
ENDBLK
0
BLOCK
8
0
2
*B17
70
1
10
0.000000
20
0.000000
3
*B17
0
TEXT
8
Airfoils
62
7
6
Continuous
7
Standard
10
-223.378711
20
25.992285
72
0
73
2
11
-223.378711
21
25.992285
40
2.666666
41
1.000000
50
0.000000
1
Multiplex plug
0
ENDBLK
0
BLOCK
8
0
2
*B18
70
1
10
-249.810172
20
23.491797
3
*B18
0
LINE
8
Airfoils
62
7
6
Continuous
10
-274.521317
20
50.885926
30
0.000000
11
-270.013505
21
27.167176
31
0.000000
0
POLYLINE
8
Airfoils
6
Continuous
70
0
66
 1
10
0.0
20
0.0
30
0.000000
0
VERTEX
8
Airfoils
10
-274.518334
20
50.882132
30
0.000000
0
VERTEX
8
Airfoils
10
-270.010172
20
27.166797
30
0.000000
0
SEQEND
8
0
0
ENDBLK
0
BLOCK
8
0
2
*B19
70
1
10
0.000000
20
0.000000
3
*B19
0
TEXT
8
Airfoils
62
7
6
Continuous
7
Standard
10
-268.010172
20
27.166797
72
0
73
2
11
-268.010172
21
27.166797
40
2.666666
41
1.000000
50
0.000000
1
Double wing
0
ENDBLK
0
BLOCK
8
0
2
*B2
70
1
10
950.000000
20
129.472166
3
*B2
0
LINE
8
Airfoils
62
7
6
Continuous
10
949.997016
20
139.539960
30
0.000000
11
949.997016
21
206.274335
31
0.000000
0
LINE
8
Airfoils
62
7
6
Continuous
10
949.997016
20
119.852460
30
0.000000
11
949.997016
21
53.118085
31
0.000000
0
LINE
8
Airfoils
6
Continuous
10
950.997016
20
206.282880
30
0.000000
11
951.997016
21
206.282880
31
0.000000
0
LINE
8
Airfoils
6
Continuous
10
950.997016
20
53.111005
30
0.000000
11
951.997016
21
53.111005
31
0.000000
0
POINT
8
Airfoils
6
Continuous
10
950.000000
20
206.279086
0
POINT
8
Airfoils
6
Continuous
10
950.000000
20
53.113246
0
ENDBLK
0
BLOCK
8
0
2
*B20
70
1
10
0.000000
20
0.000000
3
*B20
0
TEXT
8
Airfoils
62
7
6
Continuous
7
Standard
10
-268.010172
20
20.966797
72
0
73
2
11
-268.010172
21
20.966797
40
2.666666
41
1.000000
50
0.000000
1
connector rods
0
ENDBLK
0
BLOCK
8
0
2
*B21
70
1
10
-148.091825
20
26.004541
3
*B21
0
LINE
8
Airfoils
62
7
6
Continuous
10
-168.375605
20
50.335610
30
0.000000
11
-163.719355
21
26.585610
31
0.000000
0
POLYLINE
8
Airfoils
6
Continuous
70
0
66
 1
10
0.0
20
0.0
30
0.000000
0
VERTEX
8
Airfoils
10
-168.372622
20
50.331815
30
0.000000
0
VERTEX
8
Airfoils
10
-163.716825
20
26.579541
30
0.000000
0
SEQEND
8
0
0
ENDBLK
0
BLOCK
8
0
2
*B22
70
1
10
0.000000
20
0.000000
3
*B22
0
TEXT
8
Airfoils
62
7
6
Continuous
7
Standard
10
-161.716825
20
26.579541
72
0
73
2
11
-161.716825
21
26.579541
40
2.666666
41
1.000000
50
0.000000
1
Torsion pin
0
ENDBLK
0
BLOCK
8
0
2
*B23
70
1
10
-319.339647
20
23.855648
3
*B23
0
LINE
8
Airfoils
62
7
6
Continuous
10
-289.311618
20
49.342760
30
0.000000
11
-297.788181
21
27.530260
31
0.000000
0
POLYLINE
8
Airfoils
6
Continuous
70
0
66
 1
10
0.0
20
0.0
30
0.000000
0
VERTEX
8
Airfoils
10
-289.308635
20
49.338966
30
0.000000
0
VERTEX
8
Airfoils
10
-297.789647
20
27.530648
30
0.000000
0
SEQEND
8
0
0
ENDBLK
0
BLOCK
8
0
2
*B24
70
1
10
0.000000
20
0.000000
3
*B24
0
TEXT
8
Airfoils
62
7
6
Continuous
7
Standard
10
-299.789647
20
27.530648
72
2
73
2
11
-299.789647
21
27.530648
40
2.666666
41
1.000000
50
0.000000
1
Ballast
0
ENDBLK
0
BLOCK
8
0
2
*B25
70
1
10
0.000000
20
0.000000
3
*B25
0
TEXT
8
Airfoils
62
7
6
Continuous
7
Standard
10
-299.789647
20
21.330648
72
2
73
2
11
-299.789647
21
21.330648
40
2.666666
41
1.000000
50
0.000000
1
10x10mm brass
0
ENDBLK
0
BLOCK
8
0
2
*B26
70
1
10
-276.176127
20
81.923873
3
*B26
0
LINE
8
Airfoils
62
5
6
Continuous
10
-282.320950
20
56.604338
30
0.000000
11
-282.297513
21
82.494963
31
0.000000
0
POLYLINE
8
Airfoils
62
5
6
Continuous
70
0
66
 1
10
0.0
20
0.0
30
0.000000
0
VERTEX
8
Airfoils
10
-282.317967
20
56.600543
30
0.000000
0
VERTEX
8
Airfoils
10
-282.301127
20
82.498873
30
0.000000
0
SEQEND
8
0
0
ENDBLK
0
BLOCK
8
0
2
*B27
70
1
10
0.000000
20
0.000000
3
*B27
0
TEXT
8
Airfoils
62
5
6
Continuous
7
Standard
10
-280.301127
20
82.498873
72
0
73
2
11
-280.301127
21
82.498873
40
2.666666
41
1.000000
50
0.000000
1
CG
0
ENDBLK
0
BLOCK
8
0
2
*B3
70
1
10
0.000000
20
0.000000
3
*B3
0
TEXT
8
Airfoils
62
7
6
Continuous
7
Standard
10
950.000000
20
129.696166
72
4
73
0
11
950.000000
21
129.696166
40
7.466667
41
1.000000
50
0.000000
1
153
0
ENDBLK
0
BLOCK
8
0
2
*B4
70
1
10
475.000000
20
-24.006062
3
*B4
0
LINE
8
Airfoils
62
7
6
Continuous
10
461.237016
20
-23.778268
30
0.000000
11
0.002641
21
-23.778268
31
0.000000
0
LINE
8
Airfoils
62
7
6
Continuous
10
488.760454
20
-23.778268
30
0.000000
11
950.002641
21
-23.778268
31
0.000000
0
LINE
8
Airfoils
6
Continuous
10
-0.002984
20
-0.996206
30
0.000000
11
-0.002984
21
-25.777456
31
0.000000
0
LINE
8
Airfoils
6
Continuous
10
949.997016
20
0.113169
30
0.000000
11
949.997016
21
-25.777456
31
0.000000
0
POINT
8
Airfoils
6
Continuous
10
0.000000
20
0.000000
0
POINT
8
Airfoils
6
Continuous
10
950.000000
20
1.113246
0
ENDBLK
0
BLOCK
8
0
2
*B5
70
1
10
0.000000
20
0.000000
3
*B5
0
TEXT
8
Airfoils
62
7
6
Continuous
7
Standard
10
475.000000
20
-23.782062
72
4
73
0
11
475.000000
21
-23.782062
40
7.466667
41
1.000000
50
0.000000
1
950
0
ENDBLK
0
BLOCK
8
0
2
*B6
70
1
10
33.188067
20
117.276000
3
*B6
0
LINE
8
Airfoils
62
7
6
Continuous
10
33.185084
20
127.343794
30
0.000000
11
33.185084
21
235.000044
31
0.000000
0
LINE
8
Airfoils
62
7
6
Continuous
10
33.185084
20
107.656294
30
0.000000
11
33.185084
21
0.000044
31
0.000000
0
LINE
8
Airfoils
6
Continuous
10
0.997016
20
235.003794
30
0.000000
11
35.184516
21
235.003794
31
0.000000
0
LINE
8
Airfoils
6
Continuous
10
0.997016
20
0.003794
30
0.000000
11
35.184516
21
0.003794
31
0.000000
0
POINT
8
Airfoils
6
Continuous
10
0.000000
20
235.000000
0
POINT
8
Airfoils
6
Continuous
10
0.000000
20
0.000000
0
ENDBLK
0
BLOCK
8
0
2
*B7
70
1
10
0.000000
20
0.000000
3
*B7
0
TEXT
8
Airfoils
62
7
6
Continuous
7
Standard
10
33.188067
20
117.500000
72
4
73
0
11
33.188067
21
117.500000
40
7.466667
41
1.000000
50
0.000000
1
235
0
ENDBLK
0
BLOCK
8
0
2
*B8
70
1
10
575.000000
20
-44.531156
3
*B8
0
LINE
8
Airfoils
62
7
6
Continuous
10
557.317016
20
-44.303362
30
0.000000
11
-0.003296
21
-44.303362
31
0.000000
0
LINE
8
Airfoils
62
7
6
Continuous
10
592.676391
20
-44.303362
30
0.000000
11
1149.996704
21
-44.303362
31
0.000000
0
LINE
8
Airfoils
6
Continuous
10
-0.002984
20
-0.996206
30
0.000000
11
-0.002984
21
-46.308706
31
0.000000
0
LINE
8
Airfoils
6
Continuous
10
1149.997016
20
63.300669
30
0.000000
11
1149.997016
21
-46.308706
31
0.000000
0
POINT
8
Airfoils
6
Continuous
10
0.000000
20
0.000000
0
POINT
8
Airfoils
6
Continuous
10
1150.000000
20
64.294982
0
ENDBLK
0
BLOCK
8
0
2
*B9
70
1
10
0.000000
20
0.000000
3
*B9
0
TEXT
8
Airfoils
62
7
6
Continuous
7
Standard
10
575.000000
20
-44.307156
72
4
73
0
11
575.000000
21
-44.307156
40
7.466667
41
1.000000
50
0.000000
1
1150
0
ENDBLK
0
BLOCK
8
0
2
*R
70
1
10
200.000000
20
78.895819
3
*R
0
POLYLINE
8
Rudder
6
Continuous
70
0
66
 1
10
0.0
20
0.0
30
0.000000
0
VERTEX
8
Rudder
10
0.000000
20
53.865584
30
0.000000
0
VERTEX
8
Rudder
10
400.000000
20
69.312131
30
0.000000
0
VERTEX
8
Rudder
10
400.000000
20
103.926054
30
0.000000
0
VERTEX
8
Rudder
10
0.000000
20
103.926054
30
0.000000
0
VERTEX
8
Rudder
10
0.000000
20
53.865584
30
0.000000
0
SEQEND
8
0
0
ENDBLK
0
BLOCK
8
0
2
*R1
70
1
10
200.000000
20
33.703475
3
*R1
0
POLYLINE
8
Rudder
6
Continuous
70
0
66
 1
10
0.0
20
0.0
30
0.000000
0
VERTEX
8
Rudder
10
0.000000
20
0.000000
30
0.000000
0
VERTEX
8
Rudder
10
400.000000
20
22.363472
30
0.000000
0
VERTEX
8
Rudder
10
400.000000
20
67.406950
30
0.000000
0
VERTEX
8
Rudder
10
0.000000
20
52.000000
30
0.000000
0
VERTEX
8
Rudder
10
0.000000
20
0.000000
30
0.000000
0
SEQEND
8
0
0
ENDBLK
0
BLOCK
8
0
2
*R10
70
1
10
-288.317967
20
54.600543
3
*R10
0
POLYLINE
8
Airfoils
6
Continuous
70
0
66
 1
10
0.0
20
0.0
30
0.000000
0
VERTEX
8
Airfoils
10
-293.317967
20
59.600543
30
0.000000
0
VERTEX
8
Airfoils
10
-283.317967
20
59.600543
30
0.000000
0
VERTEX
8
Airfoils
10
-283.317967
20
49.600543
30
0.000000
0
VERTEX
8
Airfoils
10
-293.317967
20
49.600543
30
0.000000
0
VERTEX
8
Airfoils
10
-293.317967
20
59.600543
30
0.000000
0
SEQEND
8
0
0
ENDBLK
0
BLOCK
8
0
2
*R11
70
1
10
-213.818471
20
54.872407
3
*R11
0
POLYLINE
8
0
6
Continuous
70
0
66
 1
10
0.0
20
0.0
30
0.000000
0
VERTEX
8
0
10
-96.317967
20
51.300918
30
0.000000
42
-0.006476
0
VERTEX
8
0
10
-153.084661
20
48.587843
30
0.000000
42
-0.004245
0
VERTEX
8
0
10
-249.463072
20
45.835335
30
0.000000
42
-0.008350
0
VERTEX
8
0
10
-290.990698
20
45.690199
30
0.000000
42
-0.014240
0
VERTEX
8
0
10
-311.401082
20
46.544753
30
0.000000
42
-0.026230
0
VERTEX
8
0
10
-323.355250
20
48.015195
30
0.000000
42
-0.037504
0
VERTEX
8
0
10
-328.265834
20
49.306614
30
0.000000
42
-0.056111
0
VERTEX
8
0
10
-330.334985
20
50.310652
30
0.000000
42
-0.108138
0
VERTEX
8
0
10
-331.203028
20
51.172538
30
0.000000
42
-0.220280
0
VERTEX
8
0
10
-331.243213
20
52.032708
30
0.000000
42
-0.112236
0
VERTEX
8
0
10
-330.260349
20
53.590688
30
0.000000
42
-0.044837
0
VERTEX
8
0
10
-328.962209
20
54.744890
30
0.000000
42
-0.039760
0
VERTEX
8
0
10
-326.546715
20
56.252768
30
0.000000
42
-0.030327
0
VERTEX
8
0
10
-322.946491
20
57.860074
30
0.000000
42
-0.035623
0
VERTEX
8
0
10
-314.096579
20
60.429846
30
0.000000
42
-0.031039
0
VERTEX
8
0
10
-297.015910
20
62.994918
30
0.000000
42
-0.023554
0
VERTEX
8
0
10
-269.098709
20
64.158638
30
0.000000
42
-0.016421
0
VERTEX
8
0
10
-225.281525
20
62.533566
30
0.000000
42
-0.010434
0
VERTEX
8
0
10
-160.477949
20
56.634149
30
0.000000
42
-0.000271
0
VERTEX
8
0
10
-152.683304
20
55.778209
30
0.000000
0
VERTEX
8
0
10
-150.086296
20
55.492308
30
0.000000
42
0.006157
0
VERTEX
8
0
10
-121.592452
20
52.600210
30
0.000000
42
0.023955
0
VERTEX
8
0
10
-101.079043
20
51.760367
30
0.000000
42
0.007745
0
VERTEX
8
0
10
-96.317967
20
51.900168
30
0.000000
0
VERTEX
8
0
10
-96.317967
20
51.300918
30
0.000000
0
SEQEND
8
0
0
ENDBLK
0
BLOCK
8
0
2
*R2
70
1
10
575.000000
20
119.850555
3
*R2
0
POLYLINE
8
0
6
Continuous
70
0
66
 1
10
0.0
20
0.0
30
0.000000
0
VERTEX
8
0
10
1150.000000
20
64.294982
30
0.000000
0
VERTEX
8
0
10
0.000000
20
0.000000
30
0.000000
0
VERTEX
8
0
10
0.000000
20
235.000000
30
0.000000
0
VERTEX
8
0
10
7.697714
20
235.126259
30
0.000000
0
VERTEX
8
0
10
15.511728
20
235.257645
30
0.000000
0
VERTEX
8
0
10
23.439756
20
235.393718
30
0.000000
0
VERTEX
8
0
10
31.479512
20
235.534037
30
0.000000
0
VERTEX
8
0
10
39.628708
20
235.678160
30
0.000000
0
VERTEX
8
0
10
47.885059
20
235.825647
30
0.000000
0
VERTEX
8
0
10
56.246277
20
235.976056
30
0.000000
0
VERTEX
8
0
10
64.710076
20
236.128947
30
0.000000
0
VERTEX
8
0
10
73.274169
20
236.283879
30
0.000000
0
VERTEX
8
0
10
81.324061
20
236.429361
30
0.000000
0
VERTEX
8
0
10
89.456826
20
236.575871
30
0.000000
0
VERTEX
8
0
10
97.670625
20
236.723056
30
0.000000
0
VERTEX
8
0
10
105.963622
20
236.870560
30
0.000000
0
VERTEX
8
0
10
114.333979
20
237.018029
30
0.000000
0
VERTEX
8
0
10
122.779859
20
237.165108
30
0.000000
0
VERTEX
8
0
10
131.299425
20
237.311445
30
0.000000
0
VERTEX
8
0
10
139.890838
20
237.456683
30
0.000000
0
VERTEX
8
0
10
148.552262
20
237.600469
30
0.000000
0
VERTEX
8
0
10
156.665870
20
237.732533
30
0.000000
0
VERTEX
8
0
10
164.836925
20
237.862750
30
0.000000
0
VERTEX
8
0
10
173.063950
20
237.990836
30
0.000000
0
VERTEX
8
0
10
181.345469
20
238.116506
30
0.000000
0
VERTEX
8
0
10
189.680006
20
238.239476
30
0.000000
0
VERTEX
8
0
10
198.066084
20
238.359461
30
0.000000
0
VERTEX
8
0
10
206.502227
20
238.476176
30
0.000000
0
VERTEX
8
0
10
214.986958
20
238.589336
30
0.000000
0
VERTEX
8
0
10
223.518800
20
238.698657
30
0.000000
0
VERTEX
8
0
10
231.491714
20
238.796597
30
0.000000
0
VERTEX
8
0
10
239.502885
20
238.890745
30
0.000000
0
VERTEX
8
0
10
247.551126
20
238.980870
30
0.000000
0
VERTEX
8
0
10
255.635252
20
239.066744
30
0.000000
0
VERTEX
8
0
10
263.754076
20
239.148139
30
0.000000
0
VERTEX
8
0
10
271.906411
20
239.224825
30
0.000000
0
VERTEX
8
0
10
280.091072
20
239.296573
30
0.000000
0
VERTEX
8
0
10
288.306871
20
239.363156
30
0.000000
0
VERTEX
8
0
10
304.827140
20
239.479907
30
0.000000
0
VERTEX
8
0
10
320.154710
20
239.566841
30
0.000000
0
VERTEX
8
0
10
335.568598
20
239.632445
30
0.000000
42
-0.004896
0
VERTEX
8
0
10
499.763249
20
238.689172
30
0.000000
42
-0.004699
0
VERTEX
8
0
10
608.516511
20
235.923736
30
0.000000
42
-0.006988
0
VERTEX
8
0
10
725.467590
20
230.257096
30
0.000000
42
-0.009921
0
VERTEX
8
0
10
838.858762
20
220.980387
30
0.000000
42
-0.012456
0
VERTEX
8
0
10
932.017379
20
209.166701
30
0.000000
42
-0.013283
0
VERTEX
8
0
10
997.543106
20
197.343326
30
0.000000
42
-0.016453
0
VERTEX
8
0
10
1049.502852
20
184.726401
30
0.000000
42
-0.020883
0
VERTEX
8
0
10
1091.542690
20
171.169547
30
0.000000
42
-0.026054
0
VERTEX
8
0
10
1124.688532
20
156.941311
30
0.000000
42
-0.033285
0
VERTEX
8
0
10
1150.000000
20
142.294982
30
0.000000
0
VERTEX
8
0
10
1150.000000
20
64.294982
30
0.000000
0
SEQEND
8
0
0
ENDBLK
0
BLOCK
8
0
2
*R3
70
1
10
1170.000000
20
103.294982
3
*R3
0
POLYLINE
8
0
6
Continuous
70
0
66
 1
10
0.0
20
0.0
30
0.000000
0
VERTEX
8
0
10
1150.000000
20
142.294982
30
0.000000
0
VERTEX
8
0
10
1150.000000
20
64.294982
30
0.000000
42
0.036907
0
VERTEX
8
0
10
1166.860218
20
66.366178
30
0.000000
42
0.046264
0
VERTEX
8
0
10
1177.744700
20
69.585506
30
0.000000
42
0.062132
0
VERTEX
8
0
10
1184.935524
20
73.548080
30
0.000000
42
0.074875
0
VERTEX
8
0
10
1188.399154
20
77.015393
30
0.000000
42
0.135858
0
VERTEX
8
0
10
1189.989329
20
81.091333
30
0.000000
0
VERTEX
8
0
10
1190.000000
20
81.631086
30
0.000000
0
VERTEX
8
0
10
1190.000000
20
89.672337
30
0.000000
42
0.080572
0
VERTEX
8
0
10
1188.381940
20
98.918168
30
0.000000
42
0.052413
0
VERTEX
8
0
10
1184.317453
20
107.665765
30
0.000000
42
0.040301
0
VERTEX
8
0
10
1177.400057
20
117.383872
30
0.000000
42
0.028507
0
VERTEX
8
0
10
1168.221891
20
127.163220
30
0.000000
42
0.032613
0
VERTEX
8
0
10
1150.000000
20
142.294982
30
0.000000
0
SEQEND
8
0
0
ENDBLK
0
BLOCK
8
0
2
*R4
70
1
10
775.000000
20
59.329227
3
*R4
0
POLYLINE
8
Rudder
6
Continuous
70
0
66
 1
10
0.0
20
0.0
30
0.000000
0
VERTEX
8
Rudder
10
400.000000
20
22.363472
30
0.000000
0
VERTEX
8
Rudder
10
1150.000000
20
64.294982
30
0.000000
0
VERTEX
8
Rudder
10
1150.000000
20
96.294982
30
0.000000
0
VERTEX
8
Rudder
10
400.000000
20
67.406950
30
0.000000
0
VERTEX
8
Rudder
10
400.000000
20
22.363472
30
0.000000
0
SEQEND
8
0
0
ENDBLK
0
BLOCK
8
0
2
*R5
70
1
10
-315.317967
20
52.800543
3
*R5
0
POLYLINE
8
0
6
Continuous
70
0
66
 1
10
0.0
20
0.0
30
0.000000
0
VERTEX
8
0
10
-312.817967
20
52.800543
30
0.000000
42
0.956109
0
VERTEX
8
0
10
-317.807908
20
53.024582
30
0.000000
42
1.045905
0
VERTEX
8
0
10
-312.817967
20
52.800543
30
0.000000
0
SEQEND
8
0
0
ENDBLK
0
BLOCK
8
0
2
*R6
70
1
10
-274.517967
20
55.900543
3
*R6
0
POLYLINE
8
0
6
Continuous
70
0
66
 1
10
0.0
20
0.0
30
0.000000
0
VERTEX
8
0
10
-269.517967
20
55.900543
30
0.000000
42
1.000000
0
VERTEX
8
0
10
-279.517967
20
55.900543
30
0.000000
42
1.000000
0
VERTEX
8
0
10
-269.517967
20
55.900543
30
0.000000
0
SEQEND
8
0
0
ENDBLK
0
BLOCK
8
0
2
*R7
70
1
10
-259.317967
20
55.900543
3
*R7
0
POLYLINE
8
0
6
Continuous
70
0
66
 1
10
0.0
20
0.0
30
0.000000
0
VERTEX
8
0
10
-254.317967
20
55.900543
30
0.000000
42
1.000000
0
VERTEX
8
0
10
-264.317967
20
55.900543
30
0.000000
42
1.000000
0
VERTEX
8
0
10
-254.317967
20
55.900543
30
0.000000
0
SEQEND
8
0
0
ENDBLK
0
BLOCK
8
0
2
*R8
70
1
10
-231.317967
20
54.600543
3
*R8
0
POLYLINE
8
0
6
Continuous
70
0
66
 1
10
0.0
20
0.0
30
0.000000
0
VERTEX
8
0
10
-239.317967
20
51.100543
30
0.000000
0
VERTEX
8
0
10
-223.317967
20
51.100543
30
0.000000
0
VERTEX
8
0
10
-223.317967
20
58.100543
30
0.000000
0
VERTEX
8
0
10
-239.317967
20
58.100543
30
0.000000
0
VERTEX
8
0
10
-239.317967
20
51.100543
30
0.000000
0
SEQEND
8
0
0
ENDBLK
0
BLOCK
8
0
2
*R9
70
1
10
-168.317967
20
52.800543
3
*R9
0
POLYLINE
8
0
6
Continuous
70
0
66
 1
10
0.0
20
0.0
30
0.000000
0
VERTEX
8
0
10
-165.817967
20
52.800543
30
0.000000
42
1.000000
0
VERTEX
8
0
10
-170.817967
20
52.800543
30
0.000000
42
1.000000
0
VERTEX
8
0
10
-165.817967
20
52.800543
30
0.000000
0
SEQEND
8
0
0
ENDBLK
0
BLOCK
8
0
2
_ARCHTICK
70
0
10
0.000000
20
0.000000
3
_ARCHTICK
0
POLYLINE
8
0
6
Continuous
70
0
66
 1
10
0.0
20
0.0
30
0.000000
0
VERTEX
8
0
10
0.500000
20
0.500000
30
0.000000
0
VERTEX
8
0
10
-0.500000
20
-0.500000
30
0.000000
0
SEQEND
8
0
0
ENDBLK
0
BLOCK
8
0
2
_BOXBLANK
70
0
10
0.000000
20
0.000000
3
_BOXBLANK
0
LINE
8
0
6
Continuous
10
-0.500000
20
-0.500000
30
0.000000
11
0.500000
21
-0.500000
31
0.000000
0
LINE
8
0
6
Continuous
10
0.500000
20
-0.500000
30
0.000000
11
0.500000
21
0.500000
31
0.000000
0
LINE
8
0
6
Continuous
10
0.500000
20
0.500000
30
0.000000
11
-0.500000
21
0.500000
31
0.000000
0
LINE
8
0
6
Continuous
10
-0.500000
20
0.500000
30
0.000000
11
-0.500000
21
-0.500000
31
0.000000
0
LINE
8
0
6
Continuous
10
-0.500000
20
0.000000
30
0.000000
11
-1.000000
21
0.000000
31
0.000000
0
ENDBLK
0
BLOCK
8
0
2
_BOXFILLED
70
0
10
0.000000
20
0.000000
3
_BOXFILLED
0
INSERT
8
0
6
Continuous
2
*R12
10
0.000000
20
0.000000
41
1.000000
42
1.000000
50
0.000000
0
LINE
8
0
6
Continuous
10
-0.500000
20
0.000000
30
0.000000
11
-1.000000
21
0.000000
31
0.000000
0
ENDBLK
0
BLOCK
8
0
2
*R12
70
1
10
0.000000
20
0.000000
3
*R12
0
POLYLINE
8
0
6
Continuous
70
0
66
 1
10
0.0
20
0.0
30
0.000000
0
VERTEX
8
0
10
-0.500000
20
0.500000
30
0.000000
0
VERTEX
8
0
10
0.500000
20
0.500000
30
0.000000
0
VERTEX
8
0
10
0.500000
20
-0.500000
30
0.000000
0
VERTEX
8
0
10
-0.500000
20
-0.500000
30
0.000000
0
VERTEX
8
0
10
-0.500000
20
0.500000
30
0.000000
0
SEQEND
8
0
0
ENDBLK
0
BLOCK
8
0
2
_CLOSED
70
0
10
0.000000
20
0.000000
3
_CLOSED
0
LINE
8
0
6
Continuous
10
-1.000000
20
0.166667
30
0.000000
11
0.000000
21
0.000000
31
0.000000
0
LINE
8
0
6
Continuous
10
0.000000
20
0.000000
30
0.000000
11
-1.000000
21
-0.166667
31
0.000000
0
LINE
8
0
6
Continuous
10
-1.000000
20
0.166667
30
0.000000
11
-1.000000
21
-0.166667
31
0.000000
0
LINE
8
0
6
Continuous
10
0.000000
20
0.000000
30
0.000000
11
-1.000000
21
0.000000
31
0.000000
0
ENDBLK
0
BLOCK
8
0
2
_CLOSEDBLANK
70
0
10
0.000000
20
0.000000
3
_CLOSEDBLANK
0
LINE
8
0
6
Continuous
10
-1.000000
20
0.166667
30
0.000000
11
0.000000
21
0.000000
31
0.000000
0
LINE
8
0
6
Continuous
10
0.000000
20
0.000000
30
0.000000
11
-1.000000
21
-0.166667
31
0.000000
0
LINE
8
0
6
Continuous
10
-1.000000
20
0.166667
30
0.000000
11
-1.000000
21
-0.166667
31
0.000000
0
ENDBLK
0
BLOCK
8
0
2
_CLOSEDFILLED
70
0
10
0.000000
20
0.000000
3
_CLOSEDFILLED
0
INSERT
8
0
6
Continuous
2
*R13
10
-0.500000
20
0.000000
41
1.000000
42
1.000000
50
0.000000
0
ENDBLK
0
BLOCK
8
0
2
*R13
70
1
10
-0.500000
20
0.000000
3
*R13
0
POLYLINE
8
0
6
Continuous
70
0
66
 1
10
0.0
20
0.0
30
0.000000
0
VERTEX
8
0
10
-1.000000
20
0.166667
30
0.000000
0
VERTEX
8
0
10
-1.000000
20
-0.166667
30
0.000000
0
VERTEX
8
0
10
0.000000
20
0.000000
30
0.000000
0
VERTEX
8
0
10
-1.000000
20
0.166667
30
0.000000
0
SEQEND
8
0
0
ENDBLK
0
BLOCK
8
0
2
_DATUMBLANK
70
0
10
0.000000
20
0.000000
3
_DATUMBLANK
0
LINE
8
0
6
Continuous
10
0.000000
20
0.577350
30
0.000000
11
-1.000000
21
0.000000
31
0.000000
0
LINE
8
0
6
Continuous
10
-1.000000
20
0.000000
30
0.000000
11
0.000000
21
-0.577350
31
0.000000
0
LINE
8
0
6
Continuous
10
0.000000
20
-0.577350
30
0.000000
11
0.000000
21
0.577350
31
0.000000
0
ENDBLK
0
BLOCK
8
0
2
_DATUMFILLED
70
0
10
0.000000
20
0.000000
3
_DATUMFILLED
0
INSERT
8
0
6
Continuous
2
*R14
10
-0.500000
20
0.000000
41
1.000000
42
1.000000
50
0.000000
0
ENDBLK
0
BLOCK
8
0
2
*R14
70
1
10
-0.500000
20
0.000000
3
*R14
0
POLYLINE
8
0
6
Continuous
70
0
66
 1
10
0.0
20
0.0
30
0.000000
0
VERTEX
8
0
10
0.000000
20
0.577350
30
0.000000
0
VERTEX
8
0
10
-1.000000
20
0.000000
30
0.000000
0
VERTEX
8
0
10
0.000000
20
-0.577350
30
0.000000
0
VERTEX
8
0
10
0.000000
20
0.577350
30
0.000000
0
SEQEND
8
0
0
ENDBLK
0
BLOCK
8
0
2
_DOT
70
0
10
0.000000
20
0.000000
3
_DOT
0
POLYLINE
8
0
6
Continuous
70
0
66
 1
10
0.0
20
0.0
30
0.000000
0
VERTEX
8
0
10
0.250000
20
0.000000
30
0.000000
42
1.000000
0
VERTEX
8
0
10
-0.250000
20
0.000000
30
0.000000
42
1.000000
0
VERTEX
8
0
10
0.250000
20
0.000000
30
0.000000
0
SEQEND
8
0
0
LINE
8
0
6
Continuous
10
-0.500000
20
0.000000
30
0.000000
11
-1.000000
21
0.000000
31
0.000000
0
ENDBLK
0
BLOCK
8
0
2
_DOTBLANK
70
0
10
0.000000
20
0.000000
3
_DOTBLANK
0
CIRCLE
8
0
6
Continuous
10
0.000000
20
0.000000
40
0.500000
0
LINE
8
0
6
Continuous
10
-0.500000
20
0.000000
30
0.000000
11
-1.000000
21
0.000000
31
0.000000
0
ENDBLK
0
BLOCK
8
0
2
_DOTSMALL
70
0
10
0.000000
20
0.000000
3
_DOTSMALL
0
POLYLINE
8
0
6
Continuous
70
0
66
 1
10
0.0
20
0.0
30
0.000000
0
VERTEX
8
0
10
0.062500
20
0.000000
30
0.000000
42
1.000000
0
VERTEX
8
0
10
-0.062500
20
0.000000
30
0.000000
42
1.000000
0
VERTEX
8
0
10
0.062500
20
0.000000
30
0.000000
0
SEQEND
8
0
0
ENDBLK
0
BLOCK
8
0
2
_INTEGRAL
70
0
10
0.000000
20
0.000000
3
_INTEGRAL
0
POLYLINE
8
0
6
Continuous
70
0
66
 1
10
0.0
20
0.0
30
0.000000
0
VERTEX
8
0
10
0.350461
20
0.352907
30
0.000000
42
0.296213
0
VERTEX
8
0
10
0.000646
20
0.003092
30
0.000000
0
SEQEND
8
0
0
POLYLINE
8
0
6
Continuous
70
0
66
 1
10
0.0
20
0.0
30
0.000000
0
VERTEX
8
0
10
-0.350461
20
-0.352907
30
0.000000
42
0.296213
0
VERTEX
8
0
10
-0.000646
20
-0.003092
30
0.000000
0
SEQEND
8
0
0
ENDBLK
0
BLOCK
8
0
2
_OBLIQUE
70
0
10
0.000000
20
0.000000
3
_OBLIQUE
0
LINE
8
0
6
Continuous
10
-0.500000
20
-0.500000
30
0.000000
11
0.500000
21
0.500000
31
0.000000
0
ENDBLK
0
BLOCK
8
0
2
_OPEN
70
0
10
0.000000
20
0.000000
3
_OPEN
0
LINE
8
0
6
Continuous
10
-1.000000
20
0.166667
30
0.000000
11
0.000000
21
0.000000
31
0.000000
0
LINE
8
0
6
Continuous
10
-1.000000
20
-0.166667
30
0.000000
11
0.000000
21
0.000000
31
0.000000
0
LINE
8
0
6
Continuous
10
0.000000
20
0.000000
30
0.000000
11
-1.000000
21
0.000000
31
0.000000
0
ENDBLK
0
BLOCK
8
0
2
_OPEN30
70
0
10
0.000000
20
0.000000
3
_OPEN30
0
LINE
8
0
6
Continuous
10
-1.000000
20
0.267949
30
0.000000
11
0.000000
21
0.000000
31
0.000000
0
LINE
8
0
6
Continuous
10
0.000000
20
0.000000
30
0.000000
11
-1.000000
21
-0.267949
31
0.000000
0
LINE
8
0
6
Continuous
10
0.000000
20
0.000000
30
0.000000
11
-1.000000
21
0.000000
31
0.000000
0
ENDBLK
0
BLOCK
8
0
2
_OPEN90
70
0
10
0.000000
20
0.000000
3
_OPEN90
0
LINE
8
0
6
Continuous
10
-0.500000
20
0.500000
30
0.000000
11
0.000000
21
0.000000
31
0.000000
0
LINE
8
0
6
Continuous
10
0.000000
20
0.000000
30
0.000000
11
-0.500000
21
-0.500000
31
0.000000
0
LINE
8
0
6
Continuous
10
0.000000
20
0.000000
30
0.000000
11
-1.000000
21
0.000000
31
0.000000
0
ENDBLK
0
BLOCK
8
0
2
_ORIGIN
70
0
10
0.000000
20
0.000000
3
_ORIGIN
0
CIRCLE
8
0
6
Continuous
10
0.000000
20
0.000000
40
0.500000
0
LINE
8
0
6
Continuous
10
0.000000
20
0.000000
30
0.000000
11
-1.000000
21
0.000000
31
0.000000
0
ENDBLK
0
BLOCK
8
0
2
_ORIGIN2
70
0
10
0.000000
20
0.000000
3
_ORIGIN2
0
CIRCLE
8
0
6
Continuous
10
0.000000
20
0.000000
40
0.500000
0
CIRCLE
8
0
6
Continuous
10
0.000000
20
0.000000
40
0.250000
0
LINE
8
0
6
Continuous
10
-0.500000
20
0.000000
30
0.000000
11
-1.000000
21
0.000000
31
0.000000
0
ENDBLK
0
BLOCK
8
0
2
_SMALL
70
0
10
0.000000
20
0.000000
3
_SMALL
0
CIRCLE
8
0
6
Continuous
10
0.000000
20
0.000000
40
0.250000
0
ENDBLK
0
BLOCK
8
0
2
_NONE
70
0
10
0.000000
20
0.000000
3
_NONE
0
ENDBLK
0
BLOCK
8
Airfoils
2
*B28
70
1
10
1134.489634
20
103.214982
3
*B28
0
LINE
8
Airfoils
6
Continuous
10
1134.489634
20
98.494982
30
0.000000
11
1134.489634
21
64.294981
31
0.000000
0
LINE
8
Airfoils
6
Continuous
10
1134.489634
20
108.094982
30
0.000000
11
1134.489634
21
142.294981
31
0.000000
0
LINE
8
Airfoils
6
Continuous
10
1149.000000
20
64.294982
30
0.000000
11
1132.489634
21
64.294982
31
0.000000
0
LINE
8
Airfoils
6
Continuous
10
1149.000000
20
142.294982
30
0.000000
11
1132.489634
21
142.294982
31
0.000000
0
INSERT
8
Airfoils
6
Continuous
2
*B29
10
0.000000
20
0.000000
41
1.000000
42
1.000000
50
0.000000
0
INSERT
8
Airfoils
6
Continuous
2
_CLOSEDFILLED
10
1134.489634
20
64.294982
41
2.000000
42
2.000000
50
-90.000000
0
INSERT
8
Airfoils
6
Continuous
2
_CLOSEDFILLED
10
1134.489634
20
142.294982
41
2.000000
42
2.000000
50
90.000000
0
POINT
8
Airfoils
6
Continuous
10
1150.000000
20
64.294982
0
POINT
8
Airfoils
6
Continuous
10
1150.000000
20
142.294982
0
ENDBLK
0
BLOCK
8
Airfoils
2
*B29
70
1
10
0.000000
20
0.000000
3
*B29
0
TEXT
8
Airfoils
6
Continuous
7
Standard
10
1134.489634
20
103.294982
72
4
73
0
11
1134.489634
21
103.294982
40
3.333333
41
1.000000
50
0.000000
1
78.0000
0
ENDBLK
0
BLOCK
8
Airfoils
2
*D1
70
1
10
0.000000
20
0.000000
3
*D1
0
ENDBLK
0
BLOCK
8
Airfoils
2
*B30
70
1
10
950.000000
20
129.616166
3
*B30
0
LINE
8
Airfoils
6
Continuous
10
950.000000
20
134.496166
30
0.000000
11
950.000000
21
206.279087
31
0.000000
0
LINE
8
Airfoils
6
Continuous
10
950.000000
20
124.896166
30
0.000000
11
950.000000
21
53.113247
31
0.000000
0
LINE
8
Airfoils
6
Continuous
10
950.000000
20
205.279086
30
0.000000
11
950.000000
21
204.279086
31
0.000000
0
LINE
8
Airfoils
6
Continuous
10
950.000000
20
52.113253
30
0.000000
11
950.000000
21
51.113253
31
0.000000
0
INSERT
8
Airfoils
6
Continuous
2
*B31
10
0.000000
20
0.000000
41
1.000000
42
1.000000
50
0.000000
0
INSERT
8
Airfoils
6
Continuous
2
_CLOSEDFILLED
10
950.000000
20
206.279086
41
2.000000
42
2.000000
50
90.000000
0
INSERT
8
Airfoils
6
Continuous
2
_CLOSEDFILLED
10
950.000000
20
53.113246
41
2.000000
42
2.000000
50
-90.000000
0
POINT
8
Airfoils
6
Continuous
10
950.000000
20
206.279086
0
POINT
8
Airfoils
6
Continuous
10
950.000000
20
53.113246
0
ENDBLK
0
BLOCK
8
Airfoils
2
*B31
70
1
10
0.000000
20
0.000000
3
*B31
0
TEXT
8
Airfoils
6
Continuous
7
Standard
10
950.000000
20
129.696166
72
4
73
0
11
950.000000
21
129.696166
40
3.333333
41
1.000000
50
0.000000
1
153.1658
0
ENDBLK
0
BLOCK
8
Airfoils
2
*D2
70
1
10
0.000000
20
0.000000
3
*D2
0
ENDBLK
0
BLOCK
8
Airfoils
2
*B32
70
1
10
475.000000
20
-23.862062
3
*B32
0
LINE
8
Airfoils
6
Continuous
10
462.500000
20
-23.782062
30
0.000000
11
-0.000000
21
-23.782062
31
0.000000
0
LINE
8
Airfoils
6
Continuous
10
487.500000
20
-23.782062
30
0.000000
11
950.000000
21
-23.782062
31
0.000000
0
LINE
8
Airfoils
6
Continuous
10
-0.000000
20
-1.000000
30
0.000000
11
-0.000000
21
-25.782063
31
0.000000
0
LINE
8
Airfoils
6
Continuous
10
950.000000
20
0.113246
30
0.000000
11
950.000000
21
-25.782063
31
0.000000
0
INSERT
8
Airfoils
6
Continuous
2
*B33
10
0.000000
20
0.000000
41
1.000000
42
1.000000
50
0.000000
0
INSERT
8
Airfoils
6
Continuous
2
_CLOSEDFILLED
10
-0.000000
20
-23.782062
41
2.000000
42
2.000000
50
180.000000
0
INSERT
8
Airfoils
6
Continuous
2
_CLOSEDFILLED
10
950.000000
20
-23.782062
41
2.000000
42
2.000000
50
0.000000
0
POINT
8
Airfoils
6
Continuous
10
0.000000
20
0.000000
0
POINT
8
Airfoils
6
Continuous
10
950.000000
20
1.113246
0
ENDBLK
0
BLOCK
8
Airfoils
2
*B33
70
1
10
0.000000
20
0.000000
3
*B33
0
TEXT
8
Airfoils
6
Continuous
7
Standard
10
475.000000
20
-23.782062
72
4
73
0
11
475.000000
21
-23.782062
40
3.333333
41
1.000000
50
0.000000
1
950.0000
0
ENDBLK
0
BLOCK
8
Airfoils
2
*D3
70
1
10
0.000000
20
0.000000
3
*D3
0
ENDBLK
0
BLOCK
8
Airfoils
2
*B34
70
1
10
33.188067
20
117.420000
3
*B34
0
LINE
8
Airfoils
6
Continuous
10
33.188067
20
122.300000
30
0.000000
11
33.188067
21
234.999997
31
0.000000
0
LINE
8
Airfoils
6
Continuous
10
33.188067
20
112.700000
30
0.000000
11
33.188067
21
-0.000003
31
0.000000
0
LINE
8
Airfoils
6
Continuous
10
1.000000
20
235.000000
30
0.000000
11
35.188068
21
235.000000
31
0.000000
0
LINE
8
Airfoils
6
Continuous
10
1.000000
20
0.000000
30
0.000000
11
35.188068
21
0.000000
31
0.000000
0
INSERT
8
Airfoils
6
Continuous
2
*B35
10
0.000000
20
0.000000
41
1.000000
42
1.000000
50
0.000000
0
INSERT
8
Airfoils
6
Continuous
2
_CLOSEDFILLED
10
33.188067
20
235.000000
41
2.000000
42
2.000000
50
90.000000
0
INSERT
8
Airfoils
6
Continuous
2
_CLOSEDFILLED
10
33.188067
20
0.000000
41
2.000000
42
2.000000
50
-90.000000
0
POINT
8
Airfoils
6
Continuous
10
0.000000
20
235.000000
0
POINT
8
Airfoils
6
Continuous
10
0.000000
20
0.000000
0
ENDBLK
0
BLOCK
8
Airfoils
2
*B35
70
1
10
0.000000
20
0.000000
3
*B35
0
TEXT
8
Airfoils
6
Continuous
7
Standard
10
33.188067
20
117.500000
72
4
73
0
11
33.188067
21
117.500000
40
3.333333
41
1.000000
50
0.000000
1
235.0000
0
ENDBLK
0
BLOCK
8
Airfoils
2
*D4
70
1
10
0.000000
20
0.000000
3
*D4
0
ENDBLK
0
BLOCK
8
Airfoils
2
*B36
70
1
10
575.000000
20
-44.387156
3
*B36
0
LINE
8
Airfoils
6
Continuous
10
561.100000
20
-44.307156
30
0.000000
11
0.000024
21
-44.307156
31
0.000000
0
LINE
8
Airfoils
6
Continuous
10
588.899999
20
-44.307156
30
0.000000
11
1150.000024
21
-44.307156
31
0.000000
0
LINE
8
Airfoils
6
Continuous
10
0.000000
20
-1.000000
30
0.000000
11
0.000000
21
-46.307156
31
0.000000
0
LINE
8
Airfoils
6
Continuous
10
1150.000000
20
63.294983
30
0.000000
11
1150.000000
21
-46.307156
31
0.000000
0
INSERT
8
Airfoils
6
Continuous
2
*B37
10
0.000000
20
0.000000
41
1.000000
42
1.000000
50
0.000000
0
INSERT
8
Airfoils
6
Continuous
2
_CLOSEDFILLED
10
0.000000
20
-44.307156
41
2.000000
42
2.000000
50
180.000000
0
INSERT
8
Airfoils
6
Continuous
2
_CLOSEDFILLED
10
1150.000000
20
-44.307156
41
2.000000
42
2.000000
50
0.000000
0
POINT
8
Airfoils
6
Continuous
10
0.000000
20
0.000000
0
POINT
8
Airfoils
6
Continuous
10
1150.000000
20
64.294982
0
ENDBLK
0
BLOCK
8
Airfoils
2
*B37
70
1
10
0.000000
20
0.000000
3
*B37
0
TEXT
8
Airfoils
6
Continuous
7
Standard
10
575.000000
20
-44.307156
72
4
73
0
11
575.000000
21
-44.307156
40
3.333333
41
1.000000
50
0.000000
1
1150.0000
0
ENDBLK
0
BLOCK
8
Airfoils
2
*D5
70
1
10
0.000000
20
0.000000
3
*D5
0
ENDBLK
0
ENDSEC
0
SECTION
2
ENTITIES
0
POLYLINE
8
0
6
Continuous
70
0
66
 1
10
0.0
20
0.0
30
0.000000
0
VERTEX
8
0
10
1150.000000
20
142.294982
30
0.000000
0
VERTEX
8
0
10
1151.274556
20
141.356881
30
0.000000
0
VERTEX
8
0
10
1152.621145
20
140.348985
30
0.000000
0
VERTEX
8
0
10
1154.032407
20
139.273717
30
0.000000
0
VERTEX
8
0
10
1155.500979
20
138.133499
30
0.000000
0
VERTEX
8
0
10
1157.019499
20
136.930754
30
0.000000
0
VERTEX
8
0
10
1158.580606
20
135.667903
30
0.000000
0
VERTEX
8
0
10
1160.176938
20
134.347368
30
0.000000
0
VERTEX
8
0
10
1161.801133
20
132.971574
30
0.000000
0
VERTEX
8
0
10
1163.445829
20
131.542940
30
0.000000
0
VERTEX
8
0
10
1165.831219
20
129.401572
30
0.000000
0
VERTEX
8
0
10
1168.221891
20
127.163220
30
0.000000
0
VERTEX
8
0
10
1170.595979
20
124.835078
30
0.000000
0
VERTEX
8
0
10
1172.931615
20
122.424343
30
0.000000
0
VERTEX
8
0
10
1175.206930
20
119.938209
30
0.000000
0
VERTEX
8
0
10
1177.400057
20
117.383872
30
0.000000
0
VERTEX
8
0
10
1178.458965
20
116.083376
30
0.000000
0
VERTEX
8
0
10
1179.489127
20
114.768528
30
0.000000
0
VERTEX
8
0
10
1180.487807
20
113.440226
30
0.000000
0
VERTEX
8
0
10
1181.511353
20
112.015172
30
0.000000
0
VERTEX
8
0
10
1182.492995
20
110.577024
30
0.000000
0
VERTEX
8
0
10
1183.429455
20
109.126862
30
0.000000
0
VERTEX
8
0
10
1184.317453
20
107.665765
30
0.000000
0
VERTEX
8
0
10
1185.153712
20
106.194811
30
0.000000
0
VERTEX
8
0
10
1185.934952
20
104.715080
30
0.000000
0
VERTEX
8
0
10
1186.657894
20
103.227650
30
0.000000
0
VERTEX
8
0
10
1187.319260
20
101.733599
30
0.000000
0
VERTEX
8
0
10
1187.915772
20
100.234008
30
0.000000
0
VERTEX
8
0
10
1188.381940
20
98.918168
30
0.000000
0
VERTEX
8
0
10
1188.793747
20
97.599635
30
0.000000
0
VERTEX
8
0
10
1189.148997
20
96.279130
30
0.000000
0
VERTEX
8
0
10
1189.445492
20
94.957377
30
0.000000
0
VERTEX
8
0
10
1189.681036
20
93.635099
30
0.000000
0
VERTEX
8
0
10
1189.853433
20
92.313017
30
0.000000
0
VERTEX
8
0
10
1189.960487
20
90.991856
30
0.000000
0
VERTEX
8
0
10
1190.000000
20
89.672337
30
0.000000
0
SEQEND
8
0
0
POLYLINE
8
0
6
Continuous
70
0
66
 1
10
0.0
20
0.0
30
0.000000
0
VERTEX
8
0
10
1150.000000
20
64.294982
30
0.000000
0
VERTEX
8
0
10
1152.737039
20
64.469667
30
0.000000
0
VERTEX
8
0
10
1155.361890
20
64.688095
30
0.000000
0
VERTEX
8
0
10
1157.876180
20
64.948262
30
0.000000
0
VERTEX
8
0
10
1160.281533
20
65.248159
30
0.000000
0
VERTEX
8
0
10
1162.579574
20
65.585782
30
0.000000
0
VERTEX
8
0
10
1164.771927
20
65.959124
30
0.000000
0
VERTEX
8
0
10
1166.860218
20
66.366178
30
0.000000
0
VERTEX
8
0
10
1168.846072
20
66.804939
30
0.000000
0
VERTEX
8
0
10
1170.731113
20
67.273401
30
0.000000
0
VERTEX
8
0
10
1172.024626
20
67.627330
30
0.000000
0
VERTEX
8
0
10
1173.267502
20
67.994821
30
0.000000
0
VERTEX
8
0
10
1174.460344
20
68.375129
30
0.000000
0
VERTEX
8
0
10
1175.603756
20
68.767509
30
0.000000
0
VERTEX
8
0
10
1176.698340
20
69.171216
30
0.000000
0
VERTEX
8
0
10
1177.744700
20
69.585506
30
0.000000
0
VERTEX
8
0
10
1178.743440
20
70.009633
30
0.000000
0
VERTEX
8
0
10
1179.695163
20
70.442852
30
0.000000
0
VERTEX
8
0
10
1180.600472
20
70.884419
30
0.000000
0
VERTEX
8
0
10
1181.821749
20
71.532301
30
0.000000
0
VERTEX
8
0
10
1182.950156
20
72.193680
30
0.000000
0
VERTEX
8
0
10
1183.987483
20
72.866344
30
0.000000
0
VERTEX
8
0
10
1184.935524
20
73.548080
30
0.000000
0
VERTEX
8
0
10
1185.796071
20
74.236675
30
0.000000
0
VERTEX
8
0
10
1186.570915
20
74.929916
30
0.000000
0
VERTEX
8
0
10
1187.261848
20
75.625592
30
0.000000
0
VERTEX
8
0
10
1187.870664
20
76.321488
30
0.000000
0
VERTEX
8
0
10
1188.399154
20
77.015393
30
0.000000
0
VERTEX
8
0
10
1188.797099
20
77.619186
30
0.000000
0
VERTEX
8
0
10
1189.136117
20
78.218277
30
0.000000
0
VERTEX
8
0
10
1189.417410
20
78.811185
30
0.000000
0
VERTEX
8
0
10
1189.642176
20
79.396427
30
0.000000
0
VERTEX
8
0
10
1189.811618
20
79.972521
30
0.000000
0
VERTEX
8
0
10
1189.926935
20
80.537983
30
0.000000
0
VERTEX
8
0
10
1189.989329
20
81.091333
30
0.000000
0
VERTEX
8
0
10
1190.000000
20
81.631086
30
0.000000
0
SEQEND
8
0
0
LINE
8
0
6
Continuous
10
1190.000000
20
89.672337
30
0.000000
11
1190.000000
21
81.631086
31
0.000000
0
LINE
8
Airfoils
6
Continuous
10
1150.000000
20
259.425037
30
0.000000
11
1150.000000
21
157.256087
31
0.000000
0
DIMENSION
8
Airfoils
6
Continuous
3
Standard
2
*B28
10
1134.489634
20
142.294982
30
0.000000
11
1134.489634
21
103.294982
31
0.000000
70
0
13
1150.000000
23
64.294982
33
0.000000
14
1150.000000
24
142.294982
34
0.000000
50
90.000000
1001
ACAD
1000
DTSYLE
1002
{
1070
5
1000
CLOSEDFILLED
1070
6
1000
CLOSEDFILLED
1070
7
1000
CLOSEDFILLED
1070
176
1070
0.000000
1070
371
1070
0.000000
1070
372
1070
0.000000
1002
}
0
DIMENSION
8
Airfoils
6
Continuous
3
Standard
2
*B30
10
950.000000
20
53.113246
30
0.000000
11
950.000000
21
129.696166
31
0.000000
70
0
13
950.000000
23
206.279086
33
0.000000
14
950.000000
24
53.113246
34
0.000000
50
90.000000
1001
ACAD
1000
DTSYLE
1002
{
1070
5
1000
CLOSEDFILLED
1070
6
1000
CLOSEDFILLED
1070
7
1000
CLOSEDFILLED
1070
176
1070
0.000000
1070
371
1070
0.000000
1070
372
1070
0.000000
1002
}
0
TEXT
8
Airfoils
62
7
6
Continuous
7
Standard
10
936.067582
20
268.472173
72
76
73
208
11
936.067582
21
268.472173
40
7.466667
41
1.000000
50
0.000000
1
JX-RS
0
TEXT
8
Airfoils
62
7
6
Continuous
7
Standard
10
1126.167554
20
267.300801
72
222
73
144
11
1126.167554
21
267.300801
40
7.466667
41
1.000000
50
0.000000
1
JX-RS-Tip
0
TEXT
8
Airfoils
62
7
6
Continuous
7
Standard
10
-21.415658
20
269.209564
72
170
73
153
11
-21.415658
21
269.209564
40
7.466667
41
1.000000
50
0.000000
1
JX-RS-Root
0
DIMENSION
8
Airfoils
6
Continuous
3
Standard
2
*B32
10
950.000000
20
-23.782062
30
0.000000
11
475.000000
21
-23.782062
31
0.000000
70
0
13
0.000000
23
0.000000
33
0.000000
14
950.000000
24
1.113246
34
0.000000
50
0.000000
1001
ACAD
1000
DTSYLE
1002
{
1070
5
1000
CLOSEDFILLED
1070
6
1000
CLOSEDFILLED
1070
7
1000
CLOSEDFILLED
1070
176
1070
0.000000
1070
371
1070
0.000000
1070
372
1070
0.000000
1002
}
0
LINE
8
Airfoils
6
Continuous
10
950.000000
20
258.889829
30
0.000000
11
950.000000
21
216.351648
31
0.000000
0
LINE
8
Airfoils
6
Continuous
10
-0.462735
20
261.054676
30
0.000000
11
-0.462735
21
239.785585
31
0.000000
0
DIMENSION
8
Airfoils
6
Continuous
3
Standard
2
*B34
10
33.188067
20
0.000000
30
0.000000
11
33.188067
21
117.500000
31
0.000000
70
0
13
0.000000
23
235.000000
33
0.000000
14
0.000000
24
0.000000
34
0.000000
50
90.000000
1001
ACAD
1000
DTSYLE
1002
{
1070
5
1000
CLOSEDFILLED
1070
6
1000
CLOSEDFILLED
1070
7
1000
CLOSEDFILLED
1070
176
1070
0.000000
1070
371
1070
0.000000
1070
372
1070
0.000000
1002
}
0
DIMENSION
8
Airfoils
6
Continuous
3
Standard
2
*B36
10
1150.000000
20
-44.307156
30
0.000000
11
575.000000
21
-44.307156
31
0.000000
70
0
13
0.000000
23
0.000000
33
0.000000
14
1150.000000
24
64.294982
34
0.000000
50
0.000000
1001
ACAD
1000
DTSYLE
1002
{
1070
5
1000
CLOSEDFILLED
1070
6
1000
CLOSEDFILLED
1070
7
1000
CLOSEDFILLED
1070
176
1070
0.000000
1070
371
1070
0.000000
1070
372
1070
0.000000
1002
}
0
TEXT
8
Airfoils
62
8
6
Continuous
7
Standard
10
248.953806
20
126.041681
72
76
73
208
11
248.953806
21
126.041681
40
9.600000
41
1.000000
50
0.000000
1
Airfoil sections and corresponding Re number
0
INSERT
8
Airfoils
6
Continuous
2
*B16
10
-206.653711
20
25.417285
41
1.000000
42
1.000000
50
0.000000
0
INSERT
8
Airfoils
6
Continuous
2
*B18
10
-249.810172
20
23.491797
41
1.000000
42
1.000000
50
0.000000
0
INSERT
8
Airfoils
6
Continuous
2
*B21
10
-148.091825
20
26.004541
41
1.000000
42
1.000000
50
0.000000
0
INSERT
8
Airfoils
6
Continuous
2
*R10
10
-288.317967
20
54.600543
41
1.000000
42
1.000000
50
0.000000
0
INSERT
8
Airfoils
6
Continuous
2
*B23
10
-319.339647
20
23.855648
41
1.000000
42
1.000000
50
0.000000
0
INSERT
8
Airfoils
62
5
6
Continuous
2
*B26
10
-276.176127
20
81.923873
41
1.000000
42
1.000000
50
0.000000
0
TEXT
8
Airfoils
62
8
6
Continuous
7
Standard
10
248.248589
20
149.473528
40
9.600000
41
1.000000
50
0.000000
1
Wing outline with
0
TEXT
8
Title_Text
62
7
6
Continuous
7
Standard
10
-331.123271
20
219.442897
72
176
73
55
11
-331.123271
21
219.442897
40
7.466667
41
1.000000
50
0.000000
1
wing span
0
TEXT
8
Title_Text
62
7
6
Continuous
7
Standard
10
-241.123271
20
219.442897
72
227
73
79
11
-241.123271
21
219.442897
40
7.466667
41
1.000000
50
0.000000
1
238 cm
0
TEXT
8
Title_Text
62
7
6
Continuous
7
Standard
10
-331.123271
20
199.442897
72
227
73
79
11
-331.123271
21
199.442897
40
7.466667
41
1.000000
50
0.000000
1
wing area
0
TEXT
8
Title_Text
62
7
6
Continuous
7
Standard
10
-241.123271
20
199.442897
72
227
73
79
11
-241.123271
21
199.442897
40
7.466667
41
1.000000
50
0.000000
1
44.6 dm²
0
TEXT
8
Title_Text
62
7
6
Continuous
7
Standard
10
-331.123271
20
179.442897
72
227
73
79
11
-331.123271
21
179.442897
40
7.466667
41
1.000000
50
0.000000
1
aspect ratio
0
TEXT
8
Title_Text
62
7
6
Continuous
7
Standard
10
-241.123271
20
179.442897
72
227
73
79
11
-241.123271
21
179.442897
40
7.466667
41
1.000000
50
0.000000
1
13
0
TEXT
8
Title_Text
62
7
6
Continuous
7
Standard
10
-331.123271
20
159.442897
72
227
73
79
11
-331.123271
21
159.442897
40
7.466667
41
1.000000
50
0.000000
1
dihedral
0
TEXT
8
Title_Text
62
7
6
Continuous
7
Standard
10
-241.123271
20
159.442897
72
227
73
79
11
-241.123271
21
159.442897
40
7.466667
41
1.000000
50
0.000000
1
1.5°
0
TEXT
8
Title_Text
62
7
6
Continuous
7
Standard
10
-151.317967
20
218.002897
72
227
73
79
11
-151.317967
21
218.002897
40
4.266666
41
1.000000
50
0.000000
1
without fuselage
0
LINE
8
0
6
Continuous
10
1150.000000
20
64.294982
30
0.000000
11
0.000000
21
0.000000
31
0.000000
0
LINE
8
0
6
Continuous
10
0.000000
20
0.000000
30
0.000000
11
0.000000
21
235.000000
31
0.000000
0
LINE
8
0
6
Continuous
10
0.000000
20
235.000000
30
0.000000
11
7.697714
21
235.126259
31
0.000000
0
LINE
8
0
6
Continuous
10
7.697714
20
235.126259
30
0.000000
11
15.511728
21
235.257645
31
0.000000
0
LINE
8
0
6
Continuous
10
15.511728
20
235.257645
30
0.000000
11
23.439756
21
235.393718
31
0.000000
0
LINE
8
0
6
Continuous
10
23.439756
20
235.393718
30
0.000000
11
31.479512
21
235.534037
31
0.000000
0
LINE
8
0
6
Continuous
10
31.479512
20
235.534037
30
0.000000
11
39.628708
21
235.678160
31
0.000000
0
LINE
8
0
6
Continuous
10
39.628708
20
235.678160
30
0.000000
11
47.885059
21
235.825647
31
0.000000
0
LINE
8
0
6
Continuous
10
47.885059
20
235.825647
30
0.000000
11
56.246277
21
235.976056
31
0.000000
0
LINE
8
0
6
Continuous
10
56.246277
20
235.976056
30
0.000000
11
64.710076
21
236.128947
31
0.000000
0
LINE
8
0
6
Continuous
10
64.710076
20
236.128947
30
0.000000
11
73.274169
21
236.283879
31
0.000000
0
LINE
8
0
6
Continuous
10
73.274169
20
236.283879
30
0.000000
11
81.324061
21
236.429361
31
0.000000
0
LINE
8
0
6
Continuous
10
81.324061
20
236.429361
30
0.000000
11
89.456826
21
236.575871
31
0.000000
0
LINE
8
0
6
Continuous
10
89.456826
20
236.575871
30
0.000000
11
97.670625
21
236.723056
31
0.000000
0
LINE
8
0
6
Continuous
10
97.670625
20
236.723056
30
0.000000
11
105.963622
21
236.870560
31
0.000000
0
LINE
8
0
6
Continuous
10
105.963622
20
236.870560
30
0.000000
11
114.333979
21
237.018029
31
0.000000
0
LINE
8
0
6
Continuous
10
114.333979
20
237.018029
30
0.000000
11
122.779859
21
237.165108
31
0.000000
0
LINE
8
0
6
Continuous
10
122.779859
20
237.165108
30
0.000000
11
131.299425
21
237.311445
31
0.000000
0
LINE
8
0
6
Continuous
10
131.299425
20
237.311445
30
0.000000
11
139.890838
21
237.456683
31
0.000000
0
LINE
8
0
6
Continuous
10
139.890838
20
237.456683
30
0.000000
11
148.552262
21
237.600469
31
0.000000
0
LINE
8
0
6
Continuous
10
148.552262
20
237.600469
30
0.000000
11
156.665870
21
237.732533
31
0.000000
0
LINE
8
0
6
Continuous
10
156.665870
20
237.732533
30
0.000000
11
164.836925
21
237.862750
31
0.000000
0
LINE
8
0
6
Continuous
10
164.836925
20
237.862750
30
0.000000
11
173.063950
21
237.990836
31
0.000000
0
LINE
8
0
6
Continuous
10
173.063950
20
237.990836
30
0.000000
11
181.345469
21
238.116506
31
0.000000
0
LINE
8
0
6
Continuous
10
181.345469
20
238.116506
30
0.000000
11
189.680006
21
238.239476
31
0.000000
0
LINE
8
0
6
Continuous
10
189.680006
20
238.239476
30
0.000000
11
198.066084
21
238.359461
31
0.000000
0
LINE
8
0
6
Continuous
10
198.066084
20
238.359461
30
0.000000
11
206.502227
21
238.476176
31
0.000000
0
LINE
8
0
6
Continuous
10
206.502227
20
238.476176
30
0.000000
11
214.986958
21
238.589336
31
0.000000
0
LINE
8
0
6
Continuous
10
214.986958
20
238.589336
30
0.000000
11
223.518800
21
238.698657
31
0.000000
0
LINE
8
0
6
Continuous
10
223.518800
20
238.698657
30
0.000000
11
231.491714
21
238.796597
31
0.000000
0
LINE
8
0
6
Continuous
10
231.491714
20
238.796597
30
0.000000
11
239.502885
21
238.890745
31
0.000000
0
LINE
8
0
6
Continuous
10
239.502885
20
238.890745
30
0.000000
11
247.551126
21
238.980870
31
0.000000
0
LINE
8
0
6
Continuous
10
247.551126
20
238.980870
30
0.000000
11
255.635252
21
239.066744
31
0.000000
0
LINE
8
0
6
Continuous
10
255.635252
20
239.066744
30
0.000000
11
263.754076
21
239.148139
31
0.000000
0
LINE
8
0
6
Continuous
10
263.754076
20
239.148139
30
0.000000
11
271.906411
21
239.224825
31
0.000000
0
LINE
8
0
6
Continuous
10
271.906411
20
239.224825
30
0.000000
11
280.091072
21
239.296573
31
0.000000
0
LINE
8
0
6
Continuous
10
280.091072
20
239.296573
30
0.000000
11
288.306871
21
239.363156
31
0.000000
0
LINE
8
0
6
Continuous
10
288.306871
20
239.363156
30
0.000000
11
304.827140
21
239.479907
31
0.000000
0
LINE
8
0
6
Continuous
10
304.827140
20
239.479907
30
0.000000
11
320.154710
21
239.566841
31
0.000000
0
LINE
8
0
6
Continuous
10
320.154710
20
239.566841
30
0.000000
11
335.568598
21
239.632445
31
0.000000
0
POLYLINE
8
0
6
Continuous
70
0
66
 1
10
0.0
20
0.0
30
0.000000
0
VERTEX
8
0
10
335.568598
20
239.632445
30
0.000000
0
VERTEX
8
0
10
353.812957
20
239.686433
30
0.000000
0
VERTEX
8
0
10
372.057391
20
239.700721
30
0.000000
0
VERTEX
8
0
10
390.301812
20
239.675310
30
0.000000
0
VERTEX
8
0
10
408.546135
20
239.610200
30
0.000000
0
VERTEX
8
0
10
426.790273
20
239.505390
30
0.000000
0
VERTEX
8
0
10
445.034140
20
239.360881
30
0.000000
0
VERTEX
8
0
10
463.277649
20
239.176675
30
0.000000
0
VERTEX
8
0
10
481.520714
20
238.952771
30
0.000000
0
VERTEX
8
0
10
499.763249
20
238.689172
30
0.000000
0
SEQEND
8
0
0
POLYLINE
8
0
6
Continuous
70
0
66
 1
10
0.0
20
0.0
30
0.000000
0
VERTEX
8
0
10
499.763249
20
238.689172
30
0.000000
0
VERTEX
8
0
10
513.359987
20
238.455287
30
0.000000
0
VERTEX
8
0
10
526.956137
20
238.189457
30
0.000000
0
VERTEX
8
0
10
540.551626
20
237.891684
30
0.000000
0
VERTEX
8
0
10
554.146377
20
237.561970
30
0.000000
0
VERTEX
8
0
10
567.740317
20
237.200316
30
0.000000
0
VERTEX
8
0
10
581.333369
20
236.806724
30
0.000000
0
VERTEX
8
0
10
594.925458
20
236.381197
30
0.000000
0
VERTEX
8
0
10
608.516511
20
235.923736
30
0.000000
0
SEQEND
8
0
0
POLYLINE
8
0
6
Continuous
70
0
66
 1
10
0.0
20
0.0
30
0.000000
0
VERTEX
8
0
10
608.516511
20
235.923736
30
0.000000
0
VERTEX
8
0
10
620.218198
20
235.504203
30
0.000000
0
VERTEX
8
0
10
631.918667
20
235.051963
30
0.000000
0
VERTEX
8
0
10
643.617826
20
234.567021
30
0.000000
0
VERTEX
8
0
10
655.315584
20
234.049379
30
0.000000
0
VERTEX
8
0
10
667.011850
20
233.499043
30
0.000000
0
VERTEX
8
0
10
678.706531
20
232.916016
30
0.000000
0
VERTEX
8
0
10
690.399537
20
232.300303
30
0.000000
0
VERTEX
8
0
10
702.090777
20
231.651908
30
0.000000
0
VERTEX
8
0
10
713.780158
20
230.970838
30
0.000000
0
VERTEX
8
0
10
725.467590
20
230.257096
30
0.000000
0
SEQEND
8
0
0
POLYLINE
8
0
6
Continuous
70
0
66
 1
10
0.0
20
0.0
30
0.000000
0
VERTEX
8
0
10
725.467590
20
230.257096
30
0.000000
0
VERTEX
8
0
10
735.790084
20
229.599780
30
0.000000
0
VERTEX
8
0
10
746.110140
20
228.905229
30
0.000000
0
VERTEX
8
0
10
756.427623
20
228.173454
30
0.000000
0
VERTEX
8
0
10
766.742399
20
227.404463
30
0.000000
0
VERTEX
8
0
10
777.054333
20
226.598266
30
0.000000
0
VERTEX
8
0
10
787.363292
20
225.754874
30
0.000000
0
VERTEX
8
0
10
797.669142
20
224.874297
30
0.000000
0
VERTEX
8
0
10
807.971748
20
223.956548
30
0.000000
0
VERTEX
8
0
10
818.270976
20
223.001639
30
0.000000
0
VERTEX
8
0
10
828.566692
20
222.009581
30
0.000000
0
VERTEX
8
0
10
838.858762
20
220.980387
30
0.000000
0
SEQEND
8
0
0
POLYLINE
8
0
6
Continuous
70
0
66
 1
10
0.0
20
0.0
30
0.000000
0
VERTEX
8
0
10
838.858762
20
220.980387
30
0.000000
0
VERTEX
8
0
10
847.350746
20
220.098373
30
0.000000
0
VERTEX
8
0
10
855.838648
20
219.177906
30
0.000000
0
VERTEX
8
0
10
864.322294
20
218.219006
30
0.000000
0
VERTEX
8
0
10
872.801509
20
217.221690
30
0.000000
0
VERTEX
8
0
10
881.276121
20
216.185981
30
0.000000
0
VERTEX
8
0
10
889.745955
20
215.111900
30
0.000000
0
VERTEX
8
0
10
898.210837
20
213.999468
30
0.000000
0
VERTEX
8
0
10
906.670594
20
212.848708
30
0.000000
0
VERTEX
8
0
10
915.125053
20
211.659643
30
0.000000
0
VERTEX
8
0
10
923.574039
20
210.432300
30
0.000000
0
VERTEX
8
0
10
932.017379
20
209.166701
30
0.000000
0
SEQEND
8
0
0
POLYLINE
8
0
6
Continuous
70
0
66
 1
10
0.0
20
0.0
30
0.000000
0
VERTEX
8
0
10
932.017379
20
209.166701
30
0.000000
0
VERTEX
8
0
10
938.597110
20
208.141226
30
0.000000
0
VERTEX
8
0
10
945.171300
20
207.080808
30
0.000000
0
VERTEX
8
0
10
951.739763
20
205.985478
30
0.000000
0
VERTEX
8
0
10
958.302314
20
204.855265
30
0.000000
0
VERTEX
8
0
10
964.858767
20
203.690203
30
0.000000
0
VERTEX
8
0
10
971.408939
20
202.490323
30
0.000000
0
VERTEX
8
0
10
977.952643
20
201.255660
30
0.000000
0
VERTEX
8
0
10
984.489695
20
199.986249
30
0.000000
0
VERTEX
8
0
10
991.019911
20
198.682125
30
0.000000
0
VERTEX
8
0
10
997.543106
20
197.343326
30
0.000000
0
SEQEND
8
0
0
POLYLINE
8
0
6
Continuous
70
0
66
 1
10
0.0
20
0.0
30
0.000000
0
VERTEX
8
0
10
997.543106
20
197.343326
30
0.000000
0
VERTEX
8
0
10
1002.775094
20
196.235833
30
0.000000
0
VERTEX
8
0
10
1007.999680
20
195.093935
30
0.000000
0
VERTEX
8
0
10
1013.216640
20
193.917681
30
0.000000
0
VERTEX
8
0
10
1018.425745
20
192.707122
30
0.000000
0
VERTEX
8
0
10
1023.626772
20
191.462310
30
0.000000
0
VERTEX
8
0
10
1028.819495
20
190.183300
30
0.000000
0
VERTEX
8
0
10
1034.003688
20
188.870146
30
0.000000
0
VERTEX
8
0
10
1039.179129
20
187.522906
30
0.000000
0
VERTEX
8
0
10
1044.345591
20
186.141638
30
0.000000
0
VERTEX
8
0
10
1049.502852
20
184.726401
30
0.000000
0
SEQEND
8
0
0
POLYLINE
8
0
6
Continuous
70
0
66
 1
10
0.0
20
0.0
30
0.000000
0
VERTEX
8
0
10
1049.502852
20
184.726401
30
0.000000
0
VERTEX
8
0
10
1053.756031
20
183.529294
30
0.000000
0
VERTEX
8
0
10
1057.999063
20
182.296706
30
0.000000
0
VERTEX
8
0
10
1062.231653
20
181.028724
30
0.000000
0
VERTEX
8
0
10
1066.453505
20
179.725436
30
0.000000
0
VERTEX
8
0
10
1070.664325
20
178.386933
30
0.000000
0
VERTEX
8
0
10
1074.863819
20
177.013308
30
0.000000
0
VERTEX
8
0
10
1079.051694
20
175.604658
30
0.000000
0
VERTEX
8
0
10
1083.227659
20
174.161080
30
0.000000
0
VERTEX
8
0
10
1087.391421
20
172.682675
30
0.000000
0
VERTEX
8
0
10
1091.542690
20
171.169547
30
0.000000
0
SEQEND
8
0
0
POLYLINE
8
0
6
Continuous
70
0
66
 1
10
0.0
20
0.0
30
0.000000
0
VERTEX
8
0
10
1091.542690
20
171.169547
30
0.000000
0
VERTEX
8
0
10
1094.921831
20
169.903073
30
0.000000
0
VERTEX
8
0
10
1098.287594
20
168.601459
30
0.000000
0
VERTEX
8
0
10
1101.639612
20
167.264849
30
0.000000
0
VERTEX
8
0
10
1104.977523
20
165.893386
30
0.000000
0
VERTEX
8
0
10
1108.300962
20
164.487220
30
0.000000
0
VERTEX
8
0
10
1111.609571
20
163.046503
30
0.000000
0
VERTEX
8
0
10
1114.902988
20
161.571391
30
0.000000
0
VERTEX
8
0
10
1118.180858
20
160.062046
30
0.000000
0
VERTEX
8
0
10
1121.442824
20
158.518630
30
0.000000
0
VERTEX
8
0
10
1124.688532
20
156.941311
30
0.000000
0
SEQEND
8
0
0
POLYLINE
8
0
6
Continuous
70
0
66
 1
10
0.0
20
0.0
30
0.000000
0
VERTEX
8
0
10
1124.688532
20
156.941311
30
0.000000
0
VERTEX
8
0
10
1127.304718
20
155.629848
30
0.000000
0
VERTEX
8
0
10
1129.903218
20
154.283683
30
0.000000
0
VERTEX
8
0
10
1132.483572
20
152.903055
30
0.000000
0
VERTEX
8
0
10
1135.045323
20
151.488208
30
0.000000
0
VERTEX
8
0
10
1137.588018
20
150.039393
30
0.000000
0
VERTEX
8
0
10
1140.111205
20
148.556866
30
0.000000
0
VERTEX
8
0
10
1142.614439
20
147.040890
30
0.000000
0
VERTEX
8
0
10
1145.097275
20
145.491733
30
0.000000
0
VERTEX
8
0
10
1147.559274
20
143.909670
30
0.000000
0
VERTEX
8
0
10
1150.000000
20
142.294982
30
0.000000
0
SEQEND
8
0
0
LINE
8
Rudder
6
Continuous
10
0.000000
20
52.000000
30
0.000000
11
1188.786456
21
97.788934
31
0.000000
0
ENDSEC
0
EOF
